<?xml version="1.0" encoding="utf-8"?>
<!-- Generator: Adobe Illustrator 28.1.0, SVG Export Plug-In . SVG Version: 6.00 Build 0)  -->
<svg version="1.1" id="Camada_2_00000144331882496801599230000001060928721521309587_"
	 xmlns="http://www.w3.org/2000/svg" xmlns:xlink="http://www.w3.org/1999/xlink" x="0px" y="0px" viewBox="0 0 532 397.3"
	 style="enable-background:new 0 0 532 397.3;" xml:space="preserve">
<style type="text/css">
	.st0{enable-background:new    ;}
	.st1{fill:#F9A63A;}
	.st2{fill-rule:evenodd;clip-rule:evenodd;fill:#FFFFFF;}
	.st3{fill:#FFFFFF;}
</style>
<g class="st0">
	<path class="st1" d="M34.4,373c-0.4-1.1-0.6-1.8-0.6-5.4v-6.8c0-4-1.4-5.5-4.5-5.5h-2.4V373h-6.8v-43.6h10.3
		c7.1,0,10.1,3.3,10.1,10v3.4c0,4.5-1.4,7.3-4.5,8.8v0.1c3.4,1.4,4.5,4.7,4.5,9.2v6.7c0,2.1,0.1,3.7,0.7,5.3H34.4z M26.9,335.6V349
		h2.7c2.6,0,4.1-1.1,4.1-4.6v-4.3c0-3.1-1.1-4.5-3.5-4.5H26.9z"/>
	<path class="st1" d="M51.7,329.4V363c0,3.1,1.4,4.2,3.5,4.2s3.5-1.1,3.5-4.2v-33.6h6.5v33.2c0,7-3.5,11-10.2,11s-10.2-4-10.2-11
		v-33.2H51.7z"/>
	<path class="st1" d="M92.1,373h-6.9L84,365h-8.4l-1.2,7.9h-6.3l7-43.6h10L92.1,373z M76.4,359.1H83l-3.2-22h-0.1L76.4,359.1z"/>
	<path class="st1" d="M111,358.9v4c0,3.1,1.4,4.2,3.5,4.2s3.5-1.1,3.5-4.2v-9.6c0-3.1-1.4-4.3-3.5-4.3s-3.5,1.2-3.5,4.3v1.3h-6.5
		l1.2-25.3h18.1v6.2h-12l-0.6,10.4h0.1c1.2-2.1,3.2-3.2,5.9-3.2c5,0,7.6,3.5,7.6,10v9.7c0,7-3.5,11-10.2,11s-10.2-4-10.2-11v-3.6
		H111z"/>
	<path class="st1" d="M148.4,328.9c6.7,0,10.1,4,10.1,11v1.4H152v-1.8c0-3.1-1.2-4.3-3.4-4.3c-2.2,0-3.4,1.2-3.4,4.3
		c0,3.2,1.4,5.5,5.9,9.5c5.7,5,7.5,8.7,7.5,13.6c0,7-3.5,11-10.2,11s-10.2-4-10.2-11v-2.7h6.5v3.1c0,3.1,1.4,4.2,3.5,4.2
		s3.5-1.1,3.5-4.2c0-3.2-1.4-5.5-5.9-9.5c-5.7-5-7.5-8.7-7.5-13.6C138.3,332.9,141.7,328.9,148.4,328.9z"/>
	<path class="st1" d="M169,329.4V363c0,3.1,1.4,4.2,3.5,4.2s3.5-1.1,3.5-4.2v-33.6h6.5v33.2c0,7-3.5,11-10.2,11s-10.2-4-10.2-11
		v-33.2H169z"/>
	<path class="st1" d="M187.2,329.4h6.8v37.4h11.3v6.2h-18.1V329.4z"/>
	<path class="st1" d="M217.7,348h12.5v6.2h-12.5V348z"/>
</g>
<g class="st0">
	<path class="st1" d="M266.6,373h-6.9l-1.2-7.9h-8.4l-1.2,7.9h-6.3l7-43.6h10L266.6,373z M261.9,320.2l-6.4,6.9H251l4.2-6.9H261.9z
		 M251,359.1h6.6l-3.2-22h-0.1L251,359.1z"/>
</g>
<g class="st0">
	<path class="st1" d="M280,348.7h9.6v13.8c0,7-3.5,11-10.2,11s-10.2-4-10.2-11v-22.7c0-7,3.5-11,10.2-11s10.2,4,10.2,11v4.2h-6.5
		v-4.7c0-3.1-1.4-4.3-3.5-4.3c-2.2,0-3.5,1.2-3.5,4.3v23.5c0,3.1,1.4,4.2,3.5,4.2c2.2,0,3.5-1.1,3.5-4.2v-8H280V348.7z"/>
	<path class="st1" d="M300.5,329.4V363c0,3.1,1.4,4.2,3.5,4.2c2.2,0,3.5-1.1,3.5-4.2v-33.6h6.5v33.2c0,7-3.5,11-10.2,11
		s-10.2-4-10.2-11v-33.2H300.5z"/>
	<path class="st1" d="M340.9,373H334l-1.2-7.9h-8.4l-1.2,7.9H317l7-43.6h10L340.9,373z M325.3,359.1h6.6l-3.2-22h-0.1L325.3,359.1z"
		/>
	<path class="st1" d="M353.3,328.9c6.7,0,10.1,4,10.1,11v1.4h-6.5v-1.8c0-3.1-1.2-4.3-3.4-4.3s-3.4,1.2-3.4,4.3
		c0,3.2,1.4,5.5,5.9,9.5c5.7,5,7.5,8.7,7.5,13.6c0,7-3.5,11-10.2,11s-10.2-4-10.2-11v-2.7h6.5v3.1c0,3.1,1.4,4.2,3.5,4.2
		c2.2,0,3.5-1.1,3.5-4.2c0-3.2-1.4-5.5-5.9-9.5c-5.7-5-7.5-8.7-7.5-13.6C343.2,332.9,346.7,328.9,353.3,328.9z"/>
	<path class="st1" d="M396.9,356.7v5.8c0,7-3.5,11-10.2,11s-10.2-4-10.2-11v-22.7c0-7,3.5-11,10.2-11s10.2,4,10.2,11v4.2h-6.5v-4.7
		c0-3.1-1.4-4.3-3.5-4.3s-3.5,1.2-3.5,4.3v23.5c0,3.1,1.4,4.2,3.5,4.2s3.5-1.1,3.5-4.2v-6.2H396.9z"/>
	<path class="st1" d="M401.1,329.4h6.8v37.4h11.3v6.2h-18.1V329.4z"/>
	<path class="st1" d="M444.3,373h-6.9l-1.2-7.9h-8.4l-1.2,7.9h-6.3l7-43.6h10L444.3,373z M428.7,359.1h6.6l-3.2-22h-0.1L428.7,359.1
		z"/>
	<path class="st1" d="M461.8,373c-0.4-1.1-0.6-1.8-0.6-5.4v-6.8c0-4-1.4-5.5-4.5-5.5h-2.4V373h-6.8v-43.6h10.3
		c7.1,0,10.1,3.3,10.1,10v3.4c0,4.5-1.4,7.3-4.5,8.8v0.1c3.4,1.4,4.5,4.7,4.5,9.2v6.7c0,2.1,0.1,3.7,0.7,5.3H461.8z M454.3,335.6
		V349h2.7c2.6,0,4.1-1.1,4.1-4.6v-4.3c0-3.1-1.1-4.5-3.5-4.5H454.3z"/>
	<path class="st1" d="M494.7,373h-6.9l-1.2-7.9h-8.4L477,373h-6.3l7-43.6h10L494.7,373z M479.1,359.1h6.6l-3.2-22h-0.1L479.1,359.1z
		"/>
	<path class="st1" d="M507.1,328.9c6.7,0,10.1,4,10.1,11v1.4h-6.5v-1.8c0-3.1-1.2-4.3-3.4-4.3s-3.4,1.2-3.4,4.3
		c0,3.2,1.4,5.5,5.9,9.5c5.7,5,7.5,8.7,7.5,13.6c0,7-3.5,11-10.2,11s-10.2-4-10.2-11v-2.7h6.5v3.1c0,3.1,1.4,4.2,3.5,4.2
		c2.2,0,3.5-1.1,3.5-4.2c0-3.2-1.4-5.5-5.9-9.5c-5.7-5-7.5-8.7-7.5-13.6C497,332.9,500.4,328.9,507.1,328.9z"/>
</g>
<g>
	
		<image style="overflow:visible;opacity:0.5;" width="532" height="318" xlink:href="723C25A335E6EDDC.png"  transform="matrix(1 0 0 1 -5 -9.7)">
	</image>
	<g>
		<g>
			<path class="st2" d="M345.7,41.6c-9.5-1.4-16.1-10.2-14.7-19.7s10.2-16.1,19.7-14.7c8.2,1.2,14.4,8,14.8,16.2
				C357.4,27.6,350.6,33.9,345.7,41.6L345.7,41.6z"/>
			<path class="st2" d="M337.4,84.4c0,2.9-0.4,5.9-1.3,8.7c-26.4-0.8-49.7-5.8-55-14.7c0.1-0.8,0.3-1.5,0.6-2.2
				c4.7-15,20.7-23.4,35.7-18.7C329.2,61.2,337.3,72.1,337.4,84.4L337.4,84.4z M334.5,96.9c-6.9,14.1-24,20-38.1,13.1
				c-9.8-4.8-16-14.7-16-25.6c0-0.3,0.1-0.6,0.1-0.9C289.4,91.4,310.8,96,334.5,96.9L334.5,96.9z"/>
			<path class="st2" d="M489.7,36.1c0,15.7-12.8,28.5-28.5,28.5l0,0c-3,0-6-0.5-8.8-1.4c5.5-4.1,10.8-8.6,15.6-13.5
				c9.2-9.5,15.3-19.6,16.8-29.3c3.1,4.7,4.8,10.2,4.8,15.8L489.7,36.1z M448.2,61.4c-14-7.1-19.7-24.2-12.6-38.3
				s24.2-19.7,38.3-12.6c2.7,1.4,5.2,3.2,7.4,5.4c-0.1,10.1-6.2,20.8-16.1,31C459.9,52.2,454.2,57.1,448.2,61.4L448.2,61.4z"/>
			<path class="st2" d="M439.8,71.7c-1,27.2-23.8,48.4-50.9,47.4c-15.9-0.6-30.5-8.8-39.3-22l8.2-0.3c7.1-0.4,14.2-1.1,21-2.2
				c6.4-1,12.7-2.4,18.9-4.2h0.1c6.3-1.8,12.5-4.1,18.5-6.6C424.4,80.4,432.2,76.4,439.8,71.7L439.8,71.7z M347.3,93.1
				c-12.8-24-3.8-53.8,20.2-66.6c7.1-3.8,15.1-5.8,23.2-5.8c26,0,47.5,20.2,49.1,46.2c-8,5-16.3,9.3-25,13c-5.9,2.5-12,4.7-18.1,6.5
				l0,0c-6.1,1.7-12.3,3-18.5,4c-6.6,1-13.5,1.7-20.6,2.2L347.3,93.1L347.3,93.1z"/>
			<path class="st2" d="M16,210.8c-2.9-5.6-4.5-11.9-4.5-18.3c0-11.5,4.1-21.2,12.3-28.9c7.9-7.7,18.6-11.9,29.7-11.7H85v107.5H72.3
				v-26.8H52.9c-7.6,0-15-2-21.6-5.8c-6.5-3.8-11.8-9.4-15.2-16.1C16.1,210.7,16,210.8,16,210.8z M72.4,164.8H54.2
				c-8.3,0-15.2,2.6-20.8,7.8c-5.6,5.1-8.7,12.4-8.5,19.9c-0.2,7.7,3,15.1,8.7,20.3c5.7,5.4,13.2,8.3,21,8.1h17.8V164.8z"/>
			<path class="st2" d="M94.4,198.3v-46.2h12.9v45.6c-0.2,6.3,2.1,12.4,6.4,17c4.2,4.6,10.2,7.2,16.4,7c6.3,0.2,12.3-2.3,16.6-6.9
				c4.3-4.6,6.7-10.7,6.5-17v-45.7h13.2v80.6h-13.2v-8.5c-3.4,2.8-7.2,5.2-11.2,7c-4.1,1.7-8.5,2.6-12.9,2.5
				c-9.3,0.2-18.3-3.6-24.7-10.4c-6.6-6.6-10.2-15.6-10.1-24.9L94.4,198.3z"/>
			<path class="st2" d="M236.7,232.6v-69.1h-17.9c-7.8-0.1-15.4,2.8-21,8.3c-11.3,11.2-11.4,29.4-0.3,40.7c0.1,0.1,0.1,0.1,0.2,0.2
				c5.5,5.4,13,8.3,20.7,8.2c4.7,0,9.4-1.2,13.5-3.5v13c-4.6,1.7-9.4,2.6-14.2,2.7c-11.1,0.2-21.8-4-29.7-11.7
				c-8.1-7.5-12.5-18.1-12.3-29.1c0-6.5,1.6-12.9,4.6-18.7c3.4-6.7,8.7-12.2,15.2-16c6.6-3.8,14-5.8,21.6-5.7h32.1v80.7L236.7,232.6
				L236.7,232.6z"/>
			<path class="st2" d="M256.6,130.5h12.8v21.4h28V164h-28v39.7c0.1,1.8,0.5,3.5,1.1,5.2c0.5,1.7,1.2,3.4,2.2,4.9
				c3.4,4.7,9.3,7.1,17.8,7.1h9.5v11.7h-17.4c-2.9-0.2-5.7-0.7-8.4-1.5c-5.1-1.4-9.6-4.4-12.7-8.7c-3.2-4.3-4.9-9.6-4.9-15V130.5
				L256.6,130.5z"/>
			<path class="st2" d="M302.5,130.5h12.8v21.4h28V164h-28v39.7c0.1,1.8,0.5,3.5,1.1,5.2c0.5,1.7,1.2,3.4,2.1,4.9
				c3.4,4.7,9.3,7.1,17.8,7.1h9.5v11.7h-17.3c-2.9-0.2-5.7-0.7-8.4-1.5c-5.2-1.4-9.7-4.6-12.8-8.9c-3.2-4.3-4.9-9.6-4.9-15
				L302.5,130.5L302.5,130.5z"/>
			<path class="st2" d="M394,233.8c-11.4,0.2-22.4-4.1-30.7-12c-8.4-7.4-13.1-18.2-12.9-29.4c-0.2-11.2,4.5-22,12.8-29.5
				c8.2-7.9,19.3-12.3,30.7-12.1c11.5-0.2,22.6,4.2,30.9,12.1c8.7,8.1,13,17.9,13,29.5c0.2,11.2-4.6,22-13,29.4
				c-8.4,7.9-19.4,12.2-30.9,12H394z M394,162.9c-8.1-0.1-16,2.9-21.9,8.6c-6,5.3-9.3,13-9.2,21c0,7.9,3.3,15.5,9.3,20.7
				c5.9,5.5,13.7,8.5,21.8,8.4c8.1,0.1,16-2.9,21.9-8.4c11.5-10.4,12.5-28.1,2.1-39.7c-0.6-0.7-1.3-1.4-2-2
				c-6-5.6-13.9-8.7-22.1-8.6H394L394,162.9z"/>
			<path class="st2" d="M495.2,169.9c-4.3-4.6-10.3-7.2-16.6-7c-6.2-0.2-12.2,2.4-16.4,6.9c-4.3,4.6-6.7,10.7-6.5,17v45.9h-13.4
				v-80.8h13.3v8.4c3.4-2.8,7.2-5.2,11.2-7c4.1-1.8,8.5-2.6,12.9-2.6c10.9,0,19.9,4.3,26.8,12.9L495.2,169.9L495.2,169.9z"/>
			<path class="st3" d="M218.6,287.6v-25.9h-6.7c-2.9,0-5.8,1.1-7.9,3.1c-4.3,4.1-4.4,11-0.2,15.3l0.1,0.1c2.1,2,4.9,3.2,7.8,3.1
				c1.8,0,3.6-0.4,5.1-1.3v4.9c-1.7,0.6-3.5,1-5.3,1c-4.1,0-8.1-1.5-11.1-4.4c-3-2.8-4.6-6.8-4.6-10.9c0-2.4,0.6-4.8,1.7-7
				c1.3-2.5,3.3-4.6,5.7-6c2.5-1.4,5.3-2.1,8.2-2.1h12v30.2L218.6,287.6L218.6,287.6z"/>
			<path class="st3" d="M255.5,265.8c-2.7-3-5.8-4.4-9.1-4.4c-2.9,0-5.7,1.2-7.7,3.3c-2.1,2-3.3,4.9-3.3,7.8c0.1,6,5,10.9,11,10.9
				c2.2,0,4.4-0.6,6.2-1.8c1.8-1.2,3.2-3,3.9-5l3.3,3.2c-2.9,5.5-7.2,8.2-12.8,8.2c-4.2,0.1-8.4-1.4-11.5-4.2c-3.2-2.9-5-7-4.9-11.3
				c-0.1-4.2,1.6-8.2,4.6-11.1c3-3,7.1-4.6,11.3-4.5c5.5,0,9.7,2.1,12.8,6.3L255.5,265.8z"/>
			<path class="st3" d="M287.5,287.6v-25.9h-6.8c-2.9,0-5.7,1.1-7.8,3.1c-4.3,4.1-4.4,10.9-0.4,15.1c0.1,0.1,0.2,0.2,0.3,0.3
				c2.1,2.1,4.9,3.2,7.8,3.1c1.8,0,3.5-0.4,5.1-1.3v4.9c-1.7,0.6-3.5,1-5.3,1c-4.1,0.1-8.1-1.5-11.1-4.4c-3-2.8-4.7-6.8-4.6-10.9
				c0-2.4,0.5-4.8,1.6-7c1.3-2.5,3.3-4.6,5.8-6s5.3-2.1,8.1-2.1h12.1v30.2L287.5,287.6L287.5,287.6z"/>
			<path class="st3" d="M302.1,265.5c1.3-2.5,3.3-4.6,5.8-6s5.3-2.1,8.1-2.1h7.3v-8h4.7v38.2h-11.8c-4.2,0.1-8.2-1.4-11.2-4.3
				c-3-2.8-4.7-6.7-4.6-10.8c0-2.4,0.5-4.8,1.6-7L302.1,265.5L302.1,265.5z M323.3,261.8h-6.7c-2.9-0.1-5.8,1-7.9,3.1
				c-2.1,2-3.3,4.8-3.2,7.7c-0.1,2.8,1.1,5.5,3.2,7.4c2.2,1.9,4.9,2.9,7.8,2.8h6.8L323.3,261.8L323.3,261.8z"/>
			<path class="st3" d="M363.1,270.2c-0.9-5.9-4.6-8.8-10.9-8.8c-3.1-0.1-6.1,1.1-8.3,3.2c-2.2,2-3.4,4.9-3.3,7.9
				c0,2.9,1.1,5.7,3.2,7.7c2,2.1,4.9,3.3,7.8,3.2c2.5,0,5-0.5,7.3-1.5c2.7-1.2,4.4-2.7,5.2-4.7l3.2,3.1c-1.4,2.6-3.6,4.6-6.3,5.8
				c-2.8,1.2-5.8,1.9-8.9,1.8c-4.3,0.1-8.5-1.5-11.6-4.4s-4.9-6.9-4.8-11.1c0-4.2,1.7-8.3,4.9-11.1c3.1-3,7.2-4.6,11.5-4.6
				c4.9,0,8.7,1.1,11.4,3.3c2.7,2.2,4.9,6.5,4.9,11.8c0,0.7,0,1.3-0.1,2h-23.1v-3.9h17.9L363.1,270.2L363.1,270.2z"/>
			<path class="st3" d="M402.9,287.6h-4.7v-17.2c0-2.4-0.9-4.7-2.5-6.4c-3.3-3.4-8.8-3.5-12.2-0.1l-0.1,0.1c-1.7,1.7-2.6,4-2.5,6.4
				v17.2H376v-30.2h4.9v3.1c1.3-1,2.7-1.9,4.2-2.6s3.1-1,4.8-1c2.2,0,4.4,0.5,6.3,1.6s3.4,2.6,4.6,4.4c1.4-1.8,3.1-3.3,5.1-4.3
				c5.1-2.8,11.4-1.9,15.5,2.2c2.4,2.5,3.8,5.9,3.7,9.4v17.5h-4.8v-17.3c0-2.4-0.9-4.7-2.5-6.4c-1.6-1.7-3.8-2.7-6.1-2.6
				c-2.4-0.1-4.6,0.8-6.3,2.5c-1.6,1.7-2.5,4-2.5,6.3L402.9,287.6L402.9,287.6z"/>
			<path class="st3" d="M438,287.6h-4.9v-30.7h4.9V287.6z M433.3,251.9c0-1.2,1-2.2,2.3-2.3c0.6,0,1.3,0.2,1.7,0.7
				c0.5,0.4,0.7,1,0.7,1.6c0,1.3-1.1,2.4-2.4,2.4l0,0c-0.6,0-1.2-0.2-1.6-0.7C433.5,253.2,433.2,252.6,433.3,251.9z"/>
			<path class="st3" d="M469.1,287.6v-25.9h-6.7c-2.9,0-5.8,1.1-7.9,3.1c-4.3,4.1-4.4,11-0.2,15.3l0.1,0.1c2.1,2,4.9,3.2,7.8,3.1
				c1.8,0,3.5-0.4,5.1-1.3v4.9c-1.7,0.6-3.5,1-5.3,1c-4.2,0.1-8.2-1.5-11.2-4.4c-3-2.8-4.6-6.8-4.6-10.9c0-2.4,0.6-4.8,1.7-7
				c1.3-2.5,3.3-4.6,5.7-6c2.5-1.4,5.3-2.1,8.2-2.1h12v30.2L469.1,287.6L469.1,287.6z"/>
		</g>
	</g>
</g>
</svg>
