<?xml version="1.0" encoding="UTF-8"?>
<svg id="Camada_2" data-name="Camada 2" xmlns="http://www.w3.org/2000/svg" xmlns:xlink="http://www.w3.org/1999/xlink" viewBox="0 0 532 397.33">
  <defs>
    <style>
      .cls-1 {
        letter-spacing: 0em;
      }

      .cls-2 {
        filter: url(#drop-shadow-2);
      }

      .cls-3 {
        letter-spacing: 0em;
      }

      .cls-4 {
        fill: #db8f1b;
        filter: url(#drop-shadow-1);
        font-family: BebasNeue, 'Bebas Neue';
        font-size: 62.25px;
      }

      .cls-5 {
        fill-rule: evenodd;
      }

      .cls-5, .cls-6 {
        fill: #fff;
        stroke-width: 0px;
      }
    </style>
    <filter id="drop-shadow-1" filterUnits="userSpaceOnUse">
      <feOffset dx="6" dy="5"/>
      <feGaussianBlur result="blur" stdDeviation="5"/>
      <feFlood flood-color="#000" flood-opacity=".75"/>
      <feComposite in2="blur" operator="in"/>
      <feComposite in="SourceGraphic"/>
    </filter>
    <filter id="drop-shadow-2" filterUnits="userSpaceOnUse">
      <feOffset dx="7" dy="6"/>
      <feGaussianBlur result="blur-2" stdDeviation="5"/>
      <feFlood flood-color="#000" flood-opacity=".75"/>
      <feComposite in2="blur-2" operator="in"/>
      <feComposite in="SourceGraphic"/>
    </filter>
  </defs>
  <g id="Camada_1-2" data-name="Camada 1">
    <g>
      <text class="cls-4" transform="translate(9.95 365.95)"><tspan x="0" y="0">Rua 5 Sul - </tspan><tspan class="cls-3" x="224.35" y="0">Á</tspan><tspan class="cls-1" x="249.62" y="0">guas Claras</tspan></text>
      <g class="cls-2">
        <path class="cls-5" d="m338,34.62c-9.51-1.4-16.08-10.24-14.69-19.74,1.4-9.51,10.24-16.08,19.74-14.69,8.17,1.2,14.38,7.98,14.84,16.23-8.12,4.21-14.99,10.49-19.9,18.2Z"/>
        <path class="cls-5" d="m329.7,77.42c0,2.95-.44,5.88-1.3,8.7-26.4-.8-49.7-5.8-55-14.7.13-.75.33-1.49.6-2.2,4.7-15.02,20.69-23.39,35.71-18.69,11.82,3.7,19.9,14.61,19.99,26.99v-.1Zm-2.9,12.5c-6.92,14.14-23.99,19.99-38.13,13.07-9.77-4.78-15.96-14.7-15.97-25.57,0-.3.1-.6.1-.9,8.9,7.9,30.3,12.5,54,13.5v-.1Z"/>
        <path class="cls-5" d="m482,29.12c0,15.74-12.76,28.5-28.5,28.5h0c-2.99.02-5.96-.45-8.8-1.4,5.55-4.07,10.77-8.59,15.6-13.5,9.2-9.5,15.3-19.6,16.8-29.3,3.15,4.67,4.82,10.17,4.8,15.8l.1-.1Zm-41.5,25.3c-14.05-7.1-19.67-24.25-12.57-38.3s24.25-19.67,38.3-12.57c2.73,1.38,5.22,3.19,7.37,5.36-.1,10.1-6.2,20.8-16.1,31-5.23,5.33-10.91,10.18-17,14.5Z"/>
        <path class="cls-5" d="m432.1,64.72c-.97,27.16-23.76,48.39-50.92,47.42-15.88-.57-30.51-8.77-39.28-22.02l8.2-.3c7.1-.4,14.2-1.1,21-2.2,6.38-.99,12.7-2.39,18.9-4.2h.1c6.29-1.84,12.46-4.05,18.5-6.6,8.11-3.44,15.96-7.45,23.5-12v-.1Zm-92.5,21.4c-12.81-23.96-3.78-53.77,20.19-66.59,7.14-3.82,15.12-5.82,23.21-5.81,26,0,47.51,20.24,49.1,46.2-7.99,4.97-16.34,9.32-25,13-5.9,2.5-12,4.7-18.1,6.5h0c-6.08,1.7-12.26,3.03-18.5,4-6.6,1-13.5,1.7-20.6,2.2l-10.4.4.1.1Z"/>
        <path class="cls-5" d="m8.3,203.82c-2.94-5.65-4.49-11.93-4.5-18.3,0-11.5,4.1-21.2,12.3-28.9,7.94-7.7,18.64-11.92,29.7-11.7h31.5v107.5h-12.7v-26.8h-19.4c-7.59.04-15.05-1.96-21.6-5.8-6.5-3.8-11.78-9.39-15.2-16.1l-.1.1Zm56.4-46h-18.2c-8.3,0-15.2,2.6-20.8,7.8-5.59,5.08-8.69,12.35-8.5,19.9-.18,7.71,3,15.11,8.7,20.3,5.66,5.36,13.21,8.27,21,8.1h17.8v-56.1Z"/>
        <path class="cls-5" d="m86.7,191.32v-46.2h12.9v45.6c-.17,6.28,2.13,12.38,6.4,17,4.19,4.61,10.18,7.16,16.4,7,6.27.19,12.32-2.32,16.6-6.9,4.34-4.58,6.68-10.69,6.5-17v-45.7h13.2v80.6h-13.2v-8.5c-3.42,2.81-7.18,5.16-11.2,7-4.08,1.72-8.47,2.57-12.9,2.5-9.34.2-18.32-3.59-24.7-10.4-6.59-6.59-10.24-15.58-10.1-24.9l.1-.1Z"/>
        <path class="cls-5" d="m229,225.62v-69.1h-17.9c-7.83-.15-15.39,2.84-21,8.3-11.32,11.17-11.44,29.41-.27,40.73.06.06.11.11.17.17,5.53,5.39,12.98,8.34,20.7,8.2,4.73,0,9.37-1.2,13.5-3.5v13c-4.56,1.66-9.35,2.57-14.2,2.7-11.07.23-21.76-3.99-29.7-11.7-8.05-7.51-12.53-18.09-12.3-29.1,0-6.51,1.57-12.93,4.6-18.7,3.42-6.69,8.7-12.24,15.2-16,6.56-3.81,14.02-5.77,21.6-5.7h32.1v80.7h-12.5Z"/>
        <path class="cls-5" d="m248.9,123.52h12.8v21.4h28v12.1h-28v39.7c.14,1.77.51,3.52,1.1,5.2.5,1.73,1.24,3.38,2.2,4.9,3.4,4.7,9.3,7.1,17.8,7.1h9.5v11.7h-17.4c-2.85-.2-5.66-.7-8.4-1.5-5.1-1.36-9.59-4.43-12.7-8.7-3.22-4.33-4.94-9.6-4.9-15v-76.9Z"/>
        <path class="cls-5" d="m294.8,123.52h12.8v21.4h28v12.1h-28v39.7c.11,1.78.48,3.53,1.1,5.2.48,1.72,1.18,3.37,2.1,4.9,3.4,4.7,9.3,7.1,17.8,7.1h9.5v11.7h-17.3c-2.85-.2-5.66-.7-8.4-1.5-5.16-1.41-9.68-4.55-12.8-8.9-3.2-4.34-4.92-9.6-4.9-15l.1-76.7Z"/>
        <path class="cls-5" d="m386.3,226.82c-11.41.16-22.43-4.15-30.7-12-8.38-7.45-13.09-18.19-12.9-29.4-.19-11.22,4.48-21.97,12.8-29.5,8.24-7.93,19.27-12.28,30.7-12.1,11.49-.16,22.58,4.18,30.9,12.1,8.67,8.07,13,17.9,13,29.5.17,11.23-4.58,21.97-13,29.4-8.35,7.86-19.43,12.16-30.9,12h.1Zm0-70.9c-8.15-.14-16.03,2.95-21.9,8.6-5.96,5.34-9.31,13-9.2,21-.05,7.92,3.34,15.48,9.3,20.7,5.9,5.53,13.72,8.54,21.8,8.4,8.11.11,15.95-2.89,21.9-8.4,11.54-10.38,12.48-28.14,2.11-39.68-.63-.71-1.3-1.38-2.01-2.02-5.96-5.65-13.89-8.73-22.1-8.6h.1Z"/>
        <path class="cls-5" d="m487.5,162.92c-4.27-4.61-10.32-7.16-16.6-7-6.2-.16-12.18,2.35-16.4,6.9-4.32,4.59-6.66,10.7-6.5,17v45.9h-13.4v-80.8h13.3v8.4c3.4-2.83,7.17-5.18,11.2-7,4.07-1.75,8.47-2.64,12.9-2.6,10.93,0,19.87,4.3,26.8,12.9l-11.3,6.3Z"/>
        <path class="cls-6" d="m210.9,280.62v-25.9h-6.7c-2.94-.04-5.78,1.07-7.9,3.1-4.28,4.15-4.38,10.99-.23,15.27.04.04.08.09.13.13,2.07,2.05,4.89,3.17,7.8,3.1,1.79.03,3.55-.41,5.1-1.3v4.9c-1.7.62-3.49.96-5.3,1-4.14.05-8.12-1.53-11.1-4.4-2.98-2.84-4.65-6.79-4.6-10.9,0-2.44.58-4.84,1.7-7,1.28-2.51,3.26-4.6,5.7-6,2.5-1.41,5.33-2.13,8.2-2.1h12v30.2l-4.8-.1Z"/>
        <path class="cls-6" d="m247.8,258.82c-2.7-3-5.8-4.4-9.1-4.4-2.92-.04-5.72,1.16-7.7,3.3-2.13,2.04-3.32,4.86-3.3,7.8.11,6.01,4.99,10.85,11,10.9,2.2.02,4.35-.6,6.2-1.8,1.8-1.21,3.16-2.96,3.9-5l3.3,3.2c-2.9,5.5-7.2,8.2-12.8,8.2-4.23.15-8.36-1.36-11.5-4.2-3.22-2.86-5.01-6.99-4.9-11.3-.11-4.18,1.57-8.22,4.6-11.1,2.99-2.99,7.08-4.61,11.3-4.5,5.5,0,9.7,2.1,12.8,6.3l-3.8,2.6Z"/>
        <path class="cls-6" d="m279.8,280.62v-25.9h-6.8c-2.91-.04-5.71,1.08-7.8,3.1-4.28,4.08-4.44,10.85-.37,15.13.09.09.18.18.27.27,2.06,2.07,4.88,3.2,7.8,3.1,1.79.03,3.55-.41,5.1-1.3v4.9c-1.7.62-3.49.96-5.3,1-4.14.07-8.14-1.51-11.1-4.4-3-2.82-4.67-6.78-4.6-10.9,0-2.42.54-4.82,1.6-7,1.33-2.51,3.34-4.58,5.8-6,2.46-1.41,5.26-2.14,8.1-2.1h12.1v30.2l-4.8-.1Z"/>
        <path class="cls-6" d="m294.4,258.52c1.33-2.51,3.34-4.59,5.8-6,2.46-1.41,5.26-2.14,8.1-2.1h7.3v-8h4.7v38.2h-11.8c-4.16.11-8.18-1.44-11.2-4.3-3-2.78-4.67-6.71-4.6-10.8,0-2.42.54-4.82,1.6-7h.1Zm21.2-3.7h-6.7c-2.94-.06-5.79,1.05-7.9,3.1-2.13,1.99-3.29,4.79-3.2,7.7-.07,2.82,1.1,5.52,3.2,7.4,2.16,1.88,4.94,2.88,7.8,2.8h6.8v-21Z"/>
        <path class="cls-6" d="m355.4,263.22c-.9-5.9-4.6-8.8-10.9-8.8-3.08-.06-6.06,1.09-8.3,3.2-2.21,2.02-3.41,4.91-3.3,7.9-.05,2.9,1.11,5.69,3.2,7.7,2.05,2.1,4.87,3.26,7.8,3.2,2.51-.02,4.99-.53,7.3-1.5,2.7-1.2,4.4-2.7,5.2-4.7l3.2,3.1c-1.39,2.58-3.61,4.63-6.3,5.8-2.8,1.23-5.84,1.85-8.9,1.8-4.29.1-8.45-1.48-11.6-4.4-3.11-2.85-4.85-6.89-4.8-11.1-.05-4.24,1.73-8.29,4.9-11.1,3.07-3,7.21-4.65,11.5-4.6,4.9,0,8.7,1.1,11.4,3.3s4.9,6.5,4.9,11.8c0,.7,0,1.3-.1,2h-23.1v-3.9h17.9v.3Z"/>
        <path class="cls-6" d="m395.2,280.62h-4.7v-17.2c.05-2.38-.85-4.68-2.5-6.4-3.32-3.4-8.76-3.46-12.16-.14-.05.05-.09.09-.14.14-1.66,1.71-2.56,4.02-2.5,6.4v17.2h-4.9v-30.2h4.9v3.1c1.3-1.02,2.71-1.89,4.2-2.6,1.51-.67,3.15-1.01,4.8-1,2.2-.04,4.38.52,6.3,1.6,1.86,1.09,3.43,2.59,4.6,4.4,1.35-1.81,3.09-3.28,5.1-4.3,5.07-2.84,11.42-1.94,15.5,2.2,2.43,2.52,3.76,5.9,3.7,9.4v17.5h-4.8v-17.3c.05-2.38-.85-4.68-2.5-6.4-1.56-1.71-3.79-2.66-6.1-2.6-2.36-.08-4.64.83-6.3,2.5-1.62,1.69-2.52,3.95-2.5,6.3v17.4Z"/>
        <path class="cls-6" d="m430.3,280.62h-4.9v-30.7h4.9v30.7Zm-4.7-35.7c.05-1.25,1.05-2.25,2.3-2.3.64-.04,1.27.22,1.7.7.45.41.71.99.7,1.6,0,1.33-1.07,2.4-2.4,2.4h0c-.61.01-1.19-.25-1.6-.7-.48-.43-.74-1.06-.7-1.7Z"/>
        <path class="cls-6" d="m461.4,280.62v-25.9h-6.7c-2.94-.04-5.78,1.07-7.9,3.1-4.28,4.15-4.38,10.99-.23,15.27.04.04.08.09.13.13,2.07,2.05,4.89,3.17,7.8,3.1,1.78.02,3.54-.43,5.1-1.3v4.9c-1.7.61-3.49.95-5.3,1-4.17.07-8.19-1.51-11.2-4.4-2.98-2.84-4.65-6.79-4.6-10.9,0-2.44.58-4.84,1.7-7,1.3-2.5,3.27-4.58,5.7-6,2.5-1.41,5.33-2.13,8.2-2.1h12v30.2l-4.7-.1Z"/>
      </g>
    </g>
  </g>
</svg>