<?xml version="1.0" encoding="UTF-8"?>
<svg id="Camada_2" data-name="Camada 2" xmlns="http://www.w3.org/2000/svg" viewBox="0 0 297.28 169.59">
  <defs>
    <style>
      .cls-1 {
        fill: #8e8787;
      }

      .cls-1, .cls-2, .cls-3 {
        stroke-width: 0px;
      }

      .cls-1, .cls-3 {
        fill-rule: evenodd;
      }
    </style>
  </defs>
  <g id="Camada_1-2" data-name="Camada 1">
    <g>
      <path class="cls-1" d="m200.7,20.74c-5.04-.59-8.89-5.04-8.89-10.37,0-5.63,4.74-10.37,10.37-10.37s10.07,4.44,10.37,9.78c-4.74,2.67-8.89,6.52-11.85,10.96"/>
      <path class="cls-1" d="m193.85,54.27c-2.67,5.63-8.59,9.48-15.41,9.48-9.48,0-17.18-7.7-17.18-17.18v-.59c5.63,4.74,18.37,7.7,32.59,8.3m1.78-7.7c0,1.78-.3,3.56-.89,5.33-15.7-.59-29.92-3.56-32.89-8.89,0-.59.3-.89.3-1.19,2.07-7.11,8.59-12.15,16.3-12.15,3.56,0,6.81,1.19,9.48,2.96,4.74,2.96,7.7,8,7.7,13.92"/>
      <path class="cls-1" d="m262.31,32.71c-5.63-2.96-9.18-8.59-9.18-15.11,0-9.48,7.7-17.18,17.18-17.18,4.74,0,8.89,1.78,12.15,5.04,0,5.93-3.85,12.44-9.78,18.67-2.96,2.96-6.52,5.93-10.37,8.59m24.89-15.11c0,9.48-7.7,17.18-17.18,17.18-1.78,0-3.56-.3-5.33-.89,3.56-2.67,6.52-5.33,9.48-8,5.63-5.63,9.18-11.85,10.07-17.78,2.07,2.67,2.96,5.93,2.96,9.48"/>
      <path class="cls-1" d="m201.7,51.87c-2.07-4.15-3.56-8.89-3.56-13.92,0-3.26.59-6.52,1.48-9.48,3.85-11.55,15.11-20.15,27.85-20.15,5.93,0,11.26,1.78,15.7,4.74,7.7,5.04,13.04,13.33,13.63,23.11-4.74,2.96-9.78,5.63-15.11,7.7-3.56,1.48-7.11,2.67-10.96,3.85-3.56.89-7.11,1.78-10.96,2.37s-8,.89-12.44,1.19c-1.48.59-3.56.59-5.63.59m55.4-12.74c-.59,15.7-13.63,28.44-29.63,28.44-10.37,0-19.26-5.33-24.59-13.33,1.78,0,3.26,0,5.04-.3,4.15-.3,8.59-.59,12.74-1.19,4.15-.59,8-1.48,11.26-2.37h0c3.85-1.19,7.41-2.37,10.96-3.85,5.04-2.37,9.78-4.74,14.22-7.41"/>
      <path class="cls-3" d="m36.44,94.9h-10.96c-5.04,0-9.18,1.48-12.44,4.74s-5.04,7.11-5.04,11.85c0,5.04,1.78,8.89,5.33,12.15,3.56,3.26,7.7,4.74,12.74,4.74h10.67v-33.48h-.3ZM2.67,122.45c-1.78-3.56-2.67-7.11-2.67-10.96,0-6.81,2.37-12.74,7.41-17.48s10.96-7.11,17.78-7.11h18.96v64.59h-7.7v-16h-11.85c-4.74,0-9.18-1.19-13.04-3.56-3.56-2.07-6.81-5.33-8.89-9.48"/>
      <path class="cls-3" d="m49.82,115.09v-27.85h7.7v27.26c0,4.15,1.19,7.41,3.85,10.37,2.67,2.67,5.93,4.15,9.78,4.15,4.15,0,7.41-1.48,10.07-4.15s3.85-6.22,3.85-10.07v-27.55h8v48.29h-8v-5.04c-2.67,2.07-4.74,3.26-6.81,4.15-2.37.89-5.04,1.48-7.7,1.48-5.93,0-10.67-2.07-14.81-6.22-4.15-4.15-5.93-8.89-5.93-14.81"/>
      <path class="cls-3" d="m135.08,135.78v-41.48h-10.67c-5.04,0-9.18,1.78-12.74,5.04s-5.04,7.41-5.04,12.44,1.78,8.89,5.04,12.15c3.56,3.26,7.7,5.04,12.44,5.04,2.96,0,5.63-.59,8-2.07v7.7c-3.26,1.19-6.22,1.78-8.59,1.78-7.11,0-13.04-2.37-17.78-7.11-5.04-4.74-7.41-10.67-7.41-17.48,0-3.85.89-7.7,2.67-11.26,2.07-4.15,5.33-7.41,9.18-9.48,3.85-2.37,8.3-3.56,13.04-3.56h19.26v48.59h-7.41v-.3Z"/>
      <path class="cls-3" d="m147.05,74.32h7.7v12.74h16.89v7.41h-16.89v24c0,.59.3,1.78.59,3.26.59,1.48.89,2.37,1.19,2.96,2.07,2.67,5.63,4.15,10.67,4.15h5.63v7.11h-10.37c-2.07-.3-3.56-.59-5.04-.89-3.26-.89-5.63-2.67-7.7-5.33-2.07-2.67-2.96-5.63-2.96-8.89v-46.51h.3Z"/>
      <path class="cls-3" d="m174.67,74.32h7.7v12.74h16.89v7.41h-16.89v24c0,.59.3,1.78.59,3.26.3,1.48.89,2.37,1.19,2.96,2.07,2.67,5.63,4.15,10.67,4.15h5.63v7.11h-10.37c-2.07-.3-3.56-.59-5.04-.89-3.26-.89-5.63-2.67-7.7-5.33-2.07-2.67-2.96-5.63-2.96-8.89v-46.51h.3Z"/>
      <path class="cls-3" d="m229.75,93.7c-5.04,0-9.48,1.78-13.33,5.04-3.56,3.56-5.63,7.7-5.63,12.74s1.78,9.18,5.63,12.44c3.56,3.26,8,5.04,13.04,5.04s9.48-1.78,13.33-5.04c3.56-3.26,5.63-7.41,5.63-12.44s-1.78-9.18-5.63-12.74c-3.56-3.26-8-5.04-13.04-5.04m0,42.66c-7.11,0-13.33-2.37-18.37-7.11s-7.7-10.67-7.7-17.78,2.67-12.74,7.7-17.78c5.04-4.74,11.26-7.41,18.37-7.41s13.33,2.37,18.67,7.41c5.33,4.74,7.7,10.67,7.7,17.78s-2.67,12.74-7.7,17.78c-5.33,4.74-11.55,7.11-18.67,7.11"/>
      <path class="cls-3" d="m290.46,98.09c-2.67-2.67-5.93-4.15-10.07-4.15-3.85,0-7.41,1.48-9.78,4.15-2.67,2.67-3.85,6.22-3.85,10.37v27.55h-8v-48.59h8v5.04c2.67-2.07,4.74-3.56,6.81-4.15,2.37-.89,5.04-1.48,7.7-1.48,6.52,0,11.85,2.67,16,7.7l-6.81,3.56Z"/>
      <path class="cls-2" d="m124.49,168.69v-15.7h-4.15c-1.78,0-3.56.59-4.74,1.78s-2.07,2.67-2.07,4.74c0,1.78.59,3.26,1.78,4.74,1.19,1.19,2.96,1.78,4.74,1.78,1.19,0,2.07-.3,2.96-.89v2.96c-1.19.3-2.37.59-3.26.59-2.67,0-4.74-.89-6.81-2.67-1.78-1.78-2.67-3.85-2.67-6.52,0-1.48.3-2.96.89-4.15.89-1.48,2.07-2.67,3.56-3.56,1.48-.89,3.26-1.19,5.04-1.19h7.11v18.07h-2.37Z"/>
      <path class="cls-2" d="m146.61,155.75c-1.78-1.78-3.56-2.67-5.33-2.67s-3.26.59-4.74,2.07c-1.19,1.19-2.07,2.96-2.07,4.74s.59,3.26,2.07,4.74c1.19,1.19,2.67,2.07,4.74,2.07,1.48,0,2.67-.3,3.85-1.19,1.19-.89,1.78-1.78,2.37-2.96l2.07,1.78c-1.78,3.26-4.44,5.04-7.7,5.04-2.67,0-5.04-.89-6.81-2.67-2.07-1.78-2.96-4.15-2.96-6.81s.89-5.04,2.67-6.81c1.78-1.78,4.15-2.67,6.81-2.67,3.26,0,5.93,1.19,7.7,3.85l-2.67,1.48Z"/>
      <path class="cls-2" d="m165.78,168.69v-15.7h-4.15c-1.78,0-3.56.59-4.74,1.78-1.19,1.19-2.07,2.67-2.07,4.74,0,1.78.59,3.26,2.07,4.74,1.19,1.19,2.67,1.78,4.74,1.78,1.19,0,2.07-.3,2.96-.89v2.96c-1.19.3-2.37.59-3.26.59-2.67,0-4.74-.89-6.81-2.67-1.78-1.78-2.67-3.85-2.67-6.52,0-1.48.3-2.96.89-4.15.89-1.48,2.07-2.67,3.56-3.56,1.48-.89,2.96-1.19,4.74-1.19h7.11v18.07h-2.37Z"/>
      <path class="cls-2" d="m187.15,153.03h-4.15c-1.78,0-3.56.59-4.74,1.78-1.19,1.19-2.07,2.67-2.07,4.74,0,1.78.59,3.26,1.78,4.44,1.19,1.19,2.96,1.78,4.74,1.78h4.15v-12.74h.3Zm-12.74,2.37c.89-1.48,2.07-2.67,3.56-3.56,1.48-.89,2.96-1.19,4.74-1.19h4.44v-4.74h2.67v22.81h-7.11c-2.67,0-4.74-.89-6.81-2.67-1.78-1.78-2.67-3.85-2.67-6.52.3-1.48.59-2.96,1.19-4.15"/>
      <path class="cls-2" d="m211.32,158.33c-.59-3.56-2.67-5.33-6.52-5.33-2.07,0-3.56.59-5.04,2.07-1.48,1.19-2.07,2.96-2.07,4.74s.59,3.26,2.07,4.74c1.19,1.19,2.96,2.07,4.74,2.07,1.48,0,2.96-.3,4.44-.89,1.78-.59,2.67-1.78,3.26-2.67l2.07,1.78c-.89,1.48-2.07,2.67-3.85,3.56-1.48.59-3.26,1.19-5.33,1.19-2.67,0-5.04-.89-6.81-2.67s-2.96-4.15-2.96-6.52c0-2.67.89-4.74,2.96-6.52s4.15-2.67,6.81-2.67c2.96,0,5.33.59,6.81,2.07,2.07,1.48,2.96,3.85,2.96,7.11v1.19h-13.92v-2.37h10.37v-.89Z"/>
      <path class="cls-2" d="m235.19,168.79h-2.96v-10.37c0-1.48-.59-2.67-1.48-3.85-.89-.89-2.07-1.48-3.56-1.48s-2.67.59-3.85,1.48c-.89.89-1.48,2.37-1.48,3.85v10.37h-2.96v-18.07h2.96v1.78c.89-.59,1.78-1.19,2.67-1.48.89-.3,1.78-.59,2.96-.59,1.48,0,2.67.3,3.85.89s2.07,1.48,2.67,2.67c.89-1.19,1.78-2.07,2.96-2.67,1.19-.59,2.37-.89,3.85-.89,2.07,0,4.15.89,5.63,2.37s2.37,3.56,2.37,5.63v10.37h-2.96v-10.37c0-1.48-.59-2.67-1.48-3.85-.89-.89-2.07-1.48-3.56-1.48s-2.67.59-3.85,1.48c-.89,1.19-1.48,2.37-1.48,3.85v10.37h-.3Z"/>
      <path class="cls-2" d="m253.28,147.36c0-.3,0-.59.3-.89.3-.3.59-.3.89-.3s.89,0,.89.3c.3.3.3.59.3.89s0,.89-.3.89c-.3.3-.59.3-.89.3s-.59,0-.89-.3-.3-.59-.3-.89m2.96,21.33h-2.96v-18.37h2.96v18.37Z"/>
      <path class="cls-2" d="m274.95,168.69v-15.7h-4.15c-1.78,0-3.56.59-4.74,1.78-1.19,1.19-2.07,2.67-2.07,4.74,0,1.78.59,3.26,1.78,4.74,1.19,1.19,2.96,1.78,4.74,1.78,1.19,0,2.07-.3,2.96-.89v2.96c-1.19.3-2.37.59-3.26.59-2.67,0-4.74-.89-6.81-2.67-1.78-1.78-2.67-3.85-2.67-6.52,0-1.48.3-2.96.89-4.15.89-1.48,2.07-2.67,3.56-3.56,1.48-.89,3.26-1.19,5.04-1.19h7.11v18.07h-2.37Z"/>
    </g>
  </g>
</svg>