<?xml version="1.0" encoding="UTF-8" standalone="no"?>
<!DOCTYPE svg PUBLIC "-//W3C//DTD SVG 1.1//EN" "http://www.w3.org/Graphics/SVG/1.1/DTD/svg11.dtd">
<svg width="100%" height="100%" viewBox="0 0 2604 1396" version="1.1" xmlns="http://www.w3.org/2000/svg" xmlns:xlink="http://www.w3.org/1999/xlink" xml:space="preserve" xmlns:serif="http://www.serif.com/" style="fill-rule:evenodd;clip-rule:evenodd;stroke-linejoin:round;stroke-miterlimit:2;">
    <g transform="matrix(1,0,0,1,308.051,143.298)">
        <g transform="matrix(1,0,0,1,-298.617,-5.74512)">
            <g transform="matrix(1.4563,0,0,1.4563,122.925,353.415)">
                <g transform="matrix(20.3948,0,0,20.3948,466.967,-337.135)">
                    <path d="M0,14.51C-3.521,14.008 -6.248,10.961 -6.248,7.281C-6.248,3.281 -2.992,0 1.033,0C4.926,0 8.104,3.045 8.314,6.885C4.926,8.658 2.041,11.278 0,14.51" style="fill:url(#_Linear1);"/>
                </g>
                <g transform="matrix(20.3948,0,0,20.3948,370.809,217.986)">
                    <path d="M0,10.488C-1.932,14.435 -6.008,17.16 -10.695,17.16C-17.289,17.16 -22.638,11.812 -22.638,5.244C-22.638,5.113 -22.611,4.98 -22.611,4.847C-18.904,8.156 -9.928,10.063 0,10.488M1.221,5.244C1.221,6.515 1.008,7.734 0.664,8.873C-10.379,8.528 -20.148,6.437 -22.346,2.703C-22.294,2.385 -22.213,2.067 -22.109,1.776C-20.625,-3.123 -16.072,-6.672 -10.695,-6.672C-8.207,-6.672 -5.902,-5.904 -3.996,-4.604C-0.846,-2.461 1.221,1.14 1.221,5.244" style="fill:url(#_Linear2);"/>
                </g>
                <g transform="matrix(20.3948,0,0,20.3948,1341.82,-303.677)">
                    <path d="M0,21.184C-3.838,19.198 -6.434,15.2 -6.434,10.592C-6.434,4.024 -1.113,-1.324 5.482,-1.324C8.738,-1.324 11.705,0 13.85,2.12C13.797,6.329 11.254,10.83 7.123,15.094C5.084,17.213 2.676,19.252 0,21.184M17.396,10.592C17.396,17.184 12.049,22.508 5.482,22.508C4.186,22.508 2.967,22.323 1.803,21.926C4.236,20.125 6.434,18.219 8.342,16.258C12.182,12.288 14.748,8.051 15.385,3.973C16.656,5.852 17.396,8.129 17.396,10.592" style="fill:url(#_Linear3);"/>
                </g>
                <g transform="matrix(20.3948,0,0,20.3948,479.952,3.62923)">
                    <path d="M0,19.409C-1.537,16.524 -2.438,13.213 -2.438,9.718C-2.438,7.388 -2.041,5.163 -1.326,3.071C1.43,-5.03 9.107,-10.884 18.164,-10.884C22.216,-10.884 26,-9.718 29.179,-7.681C34.607,-4.237 38.314,1.669 38.711,8.473C35.455,10.513 31.906,12.366 28.253,13.928C25.764,14.96 23.221,15.888 20.68,16.655C18.295,17.344 15.701,17.899 12.949,18.35C10.193,18.774 7.281,19.065 4.342,19.252C2.885,19.33 1.43,19.383 0,19.409M38.738,10.432C38.369,21.475 29.285,30.293 18.164,30.293C10.988,30.293 4.66,26.638 0.979,21.051C2.117,21.024 3.283,20.97 4.422,20.918C7.414,20.735 10.379,20.442 13.213,19.992C16.045,19.541 18.72,18.959 21.129,18.244L21.156,18.244C23.751,17.475 26.346,16.548 28.888,15.463C32.303,14.008 35.64,12.311 38.738,10.432" style="fill:url(#_Linear4);"/>
                </g>
            </g>
        </g>
    </g>
    <defs>
        <linearGradient id="_Linear1" x1="0" y1="0" x2="1" y2="0" gradientUnits="userSpaceOnUse" gradientTransform="matrix(81.4334,-0.6478,0.6478,81.4334,-21.1414,24.1485)"><stop offset="0" style="stop-color:white;stop-opacity:1"/><stop offset="1" style="stop-color:rgb(166,166,166);stop-opacity:1"/></linearGradient>
        <linearGradient id="_Linear2" x1="0" y1="0" x2="1" y2="0" gradientUnits="userSpaceOnUse" gradientTransform="matrix(81.4334,-0.6478,0.6478,81.4334,-16.4266,-3.0703)"><stop offset="0" style="stop-color:white;stop-opacity:1"/><stop offset="1" style="stop-color:rgb(166,166,166);stop-opacity:1"/></linearGradient>
        <linearGradient id="_Linear3" x1="0" y1="0" x2="1" y2="0" gradientUnits="userSpaceOnUse" gradientTransform="matrix(81.4334,-0.6478,0.6478,81.4334,-64.0374,22.508)"><stop offset="0" style="stop-color:white;stop-opacity:1"/><stop offset="1" style="stop-color:rgb(166,166,166);stop-opacity:1"/></linearGradient>
        <linearGradient id="_Linear4" x1="0" y1="0" x2="1" y2="0" gradientUnits="userSpaceOnUse" gradientTransform="matrix(81.4334,-0.6478,0.6478,81.4334,-21.7781,7.4401)"><stop offset="0" style="stop-color:white;stop-opacity:1"/><stop offset="1" style="stop-color:rgb(166,166,166);stop-opacity:1"/></linearGradient>
    </defs>
</svg>
