<?xml version="1.0" encoding="UTF-8" standalone="no"?><!DOCTYPE svg PUBLIC "-//W3C//DTD SVG 1.1//EN" "http://www.w3.org/Graphics/SVG/1.1/DTD/svg11.dtd"><svg width="100%" height="100%" viewBox="0 0 2426 209" version="1.1" xmlns="http://www.w3.org/2000/svg" xmlns:xlink="http://www.w3.org/1999/xlink" xml:space="preserve" xmlns:serif="http://www.serif.com/" style="fill-rule:evenodd;clip-rule:evenodd;stroke-linejoin:round;stroke-miterlimit:2;"><g id="c"><g><path d="M84.208,81.624c-10.833,-1.542 -19.25,-10.917 -19.25,-22.25c0,-12.334 10.042,-22.417 22.417,-22.417c12.375,-0 21.792,9.375 22.417,21.208c-10.417,5.459 -19.334,13.542 -25.584,23.459" style="fill:#079cd9;fill-rule:nonzero;"/><path d="M73.458,136.915c0,3.917 -0.666,7.667 -1.708,11.167c-34,-1.083 -64.083,-7.5 -70.833,-19c0.166,-1 0.416,-1.958 0.75,-2.875c4.583,-15.083 18.583,-26 35.125,-26c7.666,-0 14.75,2.375 20.625,6.375c9.708,6.583 16.083,17.667 16.083,30.333m-3.792,16.167c-5.958,12.167 -18.5,20.542 -32.916,20.542c-20.292,-0 -36.792,-16.459 -36.792,-36.709c0,-0.416 0.083,-0.833 0.083,-1.208c11.417,10.208 39.042,16.042 69.625,17.375" style="fill:#e41f26;fill-rule:nonzero;"/><path d="M269.875,74.624c0,20.291 -16.458,36.708 -36.667,36.708c-4,-0 -7.75,-0.583 -11.333,-1.792c7.5,-5.541 14.25,-11.416 20.125,-17.458c11.833,-12.208 19.708,-25.292 21.667,-37.833c3.916,5.791 6.208,12.791 6.208,20.375m-53.583,32.625c-11.834,-6.125 -19.792,-18.417 -19.792,-32.625c-0,-20.209 16.375,-36.709 36.708,-36.709c10.042,0 19.167,4.084 25.75,10.584c-0.166,12.958 -8,26.833 -20.708,39.958c-6.292,6.542 -13.708,12.792 -21.917,18.75" style="fill:#3daa48;fill-rule:nonzero;"/><path d="M205.458,120.54c-1.125,34 -29.125,61.167 -63.333,61.167c-22.083,-0 -41.583,-11.25 -52.917,-28.458c3.5,-0.084 7.084,-0.25 10.584,-0.417c9.208,-0.583 18.333,-1.458 27.083,-2.833c8.708,-1.375 16.958,-3.167 24.375,-5.375l0.083,-0c8,-2.375 16,-5.209 23.792,-8.584c10.5,-4.5 20.792,-9.708 30.333,-15.5m-119.291,27.625c-4.75,-8.875 -7.5,-19.083 -7.5,-29.833c-0,-7.167 1.208,-14.042 3.416,-20.458c8.5,-24.959 32.125,-42.959 60,-42.959c12.5,0 24.125,3.584 33.917,9.875c16.708,10.584 28.125,28.792 29.333,49.75c-10.041,6.292 -20.958,12 -32.208,16.792c-7.667,3.167 -15.5,6.042 -23.333,8.375c-7.334,2.125 -15.334,3.833 -23.792,5.208c-8.5,1.292 -17.458,2.209 -26.5,2.792c-4.5,0.25 -8.958,0.417 -13.375,0.5" style="fill:#f29120;fill-rule:nonzero;"/><path d="M2239.58,81.624c-10.833,-1.542 -19.25,-10.917 -19.25,-22.25c0,-12.334 10.042,-22.417 22.417,-22.417c12.375,-0 21.75,9.375 22.417,21.208c-10.459,5.459 -19.334,13.542 -25.625,23.459" style="fill:#079cd9;fill-rule:nonzero;"/><path d="M2228.79,136.915c-0,3.917 -0.625,7.667 -1.709,11.167c-34,-1.083 -64.083,-7.5 -70.833,-19c0.167,-1 0.375,-1.958 0.708,-2.875c4.584,-15.083 18.584,-26 35.125,-26c7.667,-0 14.75,2.375 20.625,6.375c9.709,6.583 16.042,17.667 16.042,30.333m-3.708,16.167c-5.959,12.167 -18.5,20.542 -32.959,20.542c-20.291,-0 -36.75,-16.459 -36.75,-36.709c0,-0.416 0.084,-0.833 0.084,-1.208c11.416,10.208 39.083,16.042 69.625,17.375" style="fill:#e41f26;fill-rule:nonzero;"/><path d="M2425.21,74.624c0,20.291 -16.458,36.708 -36.708,36.708c-4,-0 -7.75,-0.583 -11.333,-1.792c7.5,-5.541 14.25,-11.416 20.125,-17.458c11.833,-12.208 19.708,-25.292 21.666,-37.833c3.917,5.791 6.209,12.791 6.209,20.375m-53.5,32.625c-11.834,-6.125 -19.834,-18.417 -19.834,-32.625c0,-20.209 16.375,-36.709 36.709,-36.709c10.041,0 19.166,4.084 25.791,10.584c-0.166,12.958 -8,26.833 -20.708,39.958c-6.292,6.542 -13.667,12.792 -21.917,18.75" style="fill:#3daa48;fill-rule:nonzero;"/><path d="M2360.79,120.54c-1.125,34 -29.125,61.167 -63.375,61.167c-22.084,-0 -41.584,-11.25 -52.917,-28.458c3.5,-0.084 7.125,-0.25 10.625,-0.417c9.208,-0.583 18.333,-1.458 27.042,-2.833c8.708,-1.375 16.958,-3.167 24.375,-5.375l0.083,-0c8,-2.375 16,-5.209 23.833,-8.584c10.5,-4.5 20.792,-9.708 30.334,-15.5m-119.25,27.625c-4.75,-8.875 -7.5,-19.083 -7.5,-29.833c-0,-7.167 1.208,-14.042 3.416,-20.458c8.5,-24.959 32.125,-42.959 60,-42.959c12.5,0 24.125,3.584 33.917,9.875c16.708,10.584 28.125,28.792 29.375,49.75c-10.042,6.292 -20.958,12 -32.208,16.792c-7.667,3.167 -15.5,6.042 -23.334,8.375c-7.333,2.125 -15.333,3.833 -23.791,5.208c-8.5,1.292 -17.459,2.209 -26.5,2.792c-4.5,0.25 -8.959,0.417 -13.375,0.5" style="fill:#f29120;fill-rule:nonzero;"/></g><g transform="matrix(18.6186,0,0,13.4395,-1839.24,-118.465)"><text x="117.797px" y="20.514px" style="font-family:'DINCondensed-Bold', 'DIN Condensed';font-weight:700;font-stretch:condensed;font-size:12px;">SEMANA 4</text><text x="157.805px" y="20.514px" style="font-family:'DINCondensed-Bold', 'DIN Condensed';font-weight:700;font-stretch:condensed;font-size:12px;fill:#f29120;">|</text><g transform="matrix(12,0,0,12,212.693,20.5138)"></g><text x="162.701px" y="20.514px" style="font-family:'DINCondensed-Bold', 'DIN Condensed';font-weight:700;font-stretch:condensed;font-size:12px;">HIPER<tspan x="184.481px 188.465px " y="20.514px 20.514px ">TR</tspan>OFIA</text></g></g></svg>