<?xml version="1.0" encoding="UTF-8"?>
<svg id="b" data-name="Camada 2" xmlns="http://www.w3.org/2000/svg" xmlns:xlink="http://www.w3.org/1999/xlink" viewBox="0 0 533.97 46.6">
  <defs>
    <style>
      .k {
        fill: #010101;
      }

      .k, .l, .m, .n, .o, .p, .q, .r, .s, .t, .u, .v, .w {
        stroke-width: 0px;
      }

      .l {
        fill: none;
      }

      .m {
        fill: #1d1d1b;
      }

      .n {
        fill: #f39208;
      }

      .n, .o, .p, .r {
        fill-rule: evenodd;
      }

      .o {
        fill: #e20e18;
      }

      .x {
        clip-path: url(#i);
      }

      .y {
        clip-path: url(#f);
      }

      .p {
        fill: #3eab37;
      }

      .q {
        fill: #fff;
      }

      .r {
        fill: #1b9dd9;
      }

      .s {
        fill: url(#e);
      }

      .t {
        fill: url(#d);
      }

      .u {
        fill: url(#j);
      }

      .v {
        fill: url(#h);
      }

      .w {
        fill: url(#g);
      }
    </style>
    <linearGradient id="d" data-name="Gradiente sem nome 16" x1="503.42" y1="36.05" x2="503.42" y2=".59" gradientUnits="userSpaceOnUse">
      <stop offset="0" stop-color="#3dac4a"/>
      <stop offset="1" stop-color="#02445e"/>
    </linearGradient>
    <linearGradient id="e" data-name="Gradiente sem nome 12" x1="506.03" y1="18.34" x2="533.97" y2="18.34" gradientUnits="userSpaceOnUse">
      <stop offset="0" stop-color="#d45015"/>
      <stop offset="1" stop-color="#f39221"/>
    </linearGradient>
    <clipPath id="f">
      <path class="l" d="M493.61.48v35.68h19.62V.48h-19.62ZM513.17,8.92h-7.14V.6h7.14v8.33Z"/>
    </clipPath>
    <linearGradient id="g" data-name="Gradiente sem nome 16" x1="10.24" y1="38.17" x2="10.24" y2="2.71" xlink:href="#d"/>
    <linearGradient id="h" data-name="Gradiente sem nome 12" x1="12.85" y1="20.46" x2="40.8" y2="20.46" xlink:href="#e"/>
    <clipPath id="i">
      <path class="l" d="M.43,2.6v35.68h19.62V2.6H.43ZM20,11.04h-7.14V2.72h7.14v8.33Z"/>
    </clipPath>
    <linearGradient id="j" data-name="Gradiente sem nome 16" x1="10.24" y1="38.17" x2="10.24" y2="2.71" xlink:href="#d"/>
  </defs>
  <g id="c" data-name="Camada 1">
    <g>
      <g>
        <g>
          <g>
            <path class="t" d="M513.11.59v35.46h-9.51V12.81c-1.54,1.21-3.03,2.18-4.47,2.93-1.44.75-3.24,1.46-5.42,2.14v-7.94c3.2-1.06,5.69-2.34,7.46-3.83,1.77-1.49,3.16-3.33,4.16-5.52h7.78Z"/>
            <path class="s" d="M506.03.6h27.94v6.66c-2.43,2.26-4.46,4.7-6.09,7.33-1.97,3.19-3.53,6.75-4.68,10.67-.91,3.05-1.52,6.66-1.83,10.82h-9.54c.75-5.79,1.93-10.65,3.55-14.57,1.61-3.92,4.17-8.12,7.66-12.59h-17.02V.6Z"/>
            <g class="y">
              <path class="t" d="M513.11.59v35.46h-9.51V12.81c-1.54,1.21-3.03,2.18-4.47,2.93-1.44.75-3.24,1.46-5.42,2.14v-7.94c3.2-1.06,5.69-2.34,7.46-3.83,1.77-1.49,3.16-3.33,4.16-5.52h7.78Z"/>
            </g>
          </g>
          <g>
            <path class="q" d="M515.12,34.99v-1.47h-.37c-.17,0-.32.06-.43.18-.12.12-.18.26-.18.44s.06.32.18.43c.12.12.26.17.43.17.1,0,.19-.02.28-.07v.28c-.11.04-.21.06-.29.06-.24,0-.44-.08-.61-.25-.17-.17-.25-.37-.25-.62,0-.14.03-.27.09-.4.07-.15.18-.26.31-.34.13-.08.28-.12.45-.12h.66v1.72h-.26Z"/>
            <path class="q" d="M517.05,34v.99h-.26v-.98c0-.14-.04-.26-.13-.36-.09-.1-.2-.15-.34-.15s-.25.05-.34.15-.13.22-.13.36v.98h-.27v-1.72h.27v.18c.09-.07.17-.12.23-.15.08-.04.17-.05.27-.05.2,0,.37.07.51.22.14.15.21.32.21.53Z"/>
            <path class="q" d="M518.13,35.02c-.24,0-.46-.08-.63-.25s-.27-.38-.27-.62.09-.46.27-.63.39-.26.63-.26.46.09.64.26.27.38.27.63-.09.45-.27.62-.39.25-.64.25ZM518.13,33.51c-.18,0-.33.06-.45.18-.13.12-.19.27-.19.45,0,.18.07.32.19.44.13.12.28.18.45.18s.33-.06.45-.18c.13-.12.19-.27.19-.44,0-.18-.06-.32-.19-.45-.13-.12-.28-.18-.46-.18Z"/>
            <path class="q" d="M519.11,34.99v-.29h1.14c.07,0,.12-.02.17-.07s.07-.1.07-.17-.02-.12-.07-.17-.1-.07-.17-.07h-.69c-.18,0-.31-.08-.4-.23-.04-.07-.06-.16-.06-.24,0-.13.04-.24.13-.33.09-.09.2-.14.33-.14h1.16v.28h-1.15c-.05,0-.1.02-.14.06-.04.04-.06.09-.06.14s.02.1.06.14c.04.04.09.06.14.06h.7c.2,0,.35.09.45.26.04.08.07.17.07.26,0,.15-.05.28-.15.38-.1.1-.23.15-.37.15h-1.14Z"/>
          </g>
        </g>
        <g>
          <g>
            <path class="r" d="M494.36,23.62c-.03.3-.29.52-.59.52-.32,0-.59-.28-.59-.61s.25-.59.56-.61c.14.28.36.52.63.7"/>
            <path class="o" d="M496.26,24.02c.32.16.54.51.54.91,0,.56-.44,1.01-.98,1.01h-.03c.29-.33.44-1.08.47-1.92M495.84,23.92c.1,0,.2.02.31.05-.03.93-.2,1.76-.51,1.94-.03,0-.05-.02-.07-.02-.41-.12-.7-.51-.7-.96,0-.21.07-.4.17-.56.15-.28.46-.45.8-.45"/>
            <path class="p" d="M495.04,19.99c-.17.33-.49.54-.86.54-.54,0-.98-.45-.98-1.01,0-.28.1-.52.29-.72.34,0,.71.23,1.07.58.15.19.32.38.49.61M494.16,18.52c.54,0,.98.45.98,1.01,0,.1-.02.21-.05.31-.15-.21-.31-.38-.46-.56-.32-.33-.68-.54-1.02-.59.15-.1.34-.17.54-.17"/>
            <path class="n" d="M496.12,23.56c-.24.12-.51.21-.8.21-.19,0-.37-.03-.54-.09-.66-.23-1.15-.89-1.15-1.64,0-.35.1-.66.27-.93.29-.45.76-.77,1.32-.8.17.28.32.58.44.89.08.21.15.42.22.65.05.21.1.42.14.65s.05.47.07.73c.03.09.03.23.03.33M495.4,20.29c.9.03,1.63.8,1.63,1.75,0,.61-.31,1.14-.76,1.45,0-.1,0-.19-.02-.3-.02-.24-.03-.51-.07-.75-.03-.24-.08-.47-.14-.66h0c-.07-.23-.14-.44-.22-.65-.14-.3-.27-.58-.42-.84"/>
          </g>
          <g>
            <g>
              <path class="k" d="M499.5,35.65c-.4,0-.73-.15-.99-.44-.27-.29-.4-.64-.4-1.05v-1.11h3.7v.45h-.92v.69c0,.28-.07.54-.2.77s-.32.41-.55.54c-.2.11-.41.16-.63.16ZM498.56,33.49v.64c0,.29.09.54.27.74.18.2.41.3.68.3s.51-.1.7-.31.28-.45.28-.74v-.63h-1.92Z"/>
              <path class="k" d="M499.7,32.71h-1.59v-.46h1.57c.23,0,.43-.08.58-.23.16-.15.24-.35.24-.58s-.08-.43-.24-.59c-.16-.15-.35-.23-.58-.23h-1.57v-.47h2.77v.47h-.29c.12.15.19.28.24.4.06.14.09.29.09.46,0,.34-.12.63-.36.87-.24.24-.52.36-.86.36Z"/>
              <path class="k" d="M500.88,27.55h-2.38v.63c0,.29.09.54.28.74s.42.31.7.31.52-.1.7-.3c.19-.2.28-.45.28-.73,0-.17-.04-.33-.12-.48h.45c.06.19.09.36.09.5,0,.41-.14.76-.41,1.05-.27.29-.6.44-1,.44-.22,0-.44-.05-.64-.16-.24-.13-.42-.31-.55-.54s-.2-.49-.2-.77v-1.14h2.77v.44Z"/>
              <path class="k" d="M497.38,26.85v-.45h.73v-.99h.41v.99h1.37s.1-.01.18-.04c.08-.03.14-.05.17-.08.16-.12.24-.33.24-.63v-.34h.4s0,.12,0,.29c0,.13,0,.24,0,.32,0,.12-.03.21-.05.3-.05.19-.15.34-.31.45-.15.12-.32.17-.51.17h-2.64Z"/>
              <path class="k" d="M497.38,25.22v-.45h.73v-.99h.41v.99h1.37s.1-.01.18-.04c.08-.03.14-.05.17-.08.16-.12.24-.33.24-.63v-.34h.4s0,.12,0,.29c0,.13,0,.24,0,.32,0,.12-.03.21-.05.3-.05.19-.15.34-.31.45-.15.12-.32.17-.51.17h-2.64Z"/>
              <path class="k" d="M500.92,22.29c0,.42-.14.78-.41,1.09-.27.3-.61.46-1.01.46s-.74-.15-1.01-.46c-.28-.3-.42-.67-.42-1.09s.14-.79.42-1.1c.28-.31.62-.46,1.01-.46s.74.15,1.01.46c.27.31.41.67.41,1.1ZM498.48,22.29c0,.3.1.56.3.78.2.22.44.32.72.32.28,0,.52-.11.71-.33s.29-.47.29-.77-.1-.56-.29-.78c-.19-.22-.43-.33-.71-.33-.28,0-.52.11-.72.33-.2.22-.3.48-.3.78Z"/>
              <path class="k" d="M498.48,19.3c0,.24.08.43.24.58.16.15.35.23.59.23h1.58v.47h-2.77v-.47h.29c-.12-.15-.2-.29-.24-.4-.06-.14-.09-.29-.09-.46,0-.39.15-.71.44-.95l.21.4c-.16.16-.24.35-.24.59Z"/>
            </g>
            <g>
              <path class="k" d="M502.9,28.23h-.97v.26c0,.12.04.22.12.3.08.08.17.12.29.12s.21-.04.29-.12c.08-.08.11-.18.11-.3,0-.07-.02-.14-.05-.2h.18c.03.08.04.15.04.2,0,.17-.06.31-.17.43-.11.12-.25.18-.41.18-.09,0-.18-.02-.26-.07-.1-.05-.17-.13-.22-.22-.05-.09-.08-.2-.08-.31v-.46h1.13v.18Z"/>
              <path class="k" d="M502.09,26.9c-.11.11-.17.22-.17.35,0,.12.04.21.12.3.08.08.18.12.29.12s.21-.04.29-.12c.08-.08.12-.18.12-.3,0-.09-.02-.17-.07-.24-.05-.07-.11-.12-.19-.15l.12-.13c.21.11.31.28.31.49,0,.18-.05.33-.16.44-.11.12-.25.19-.42.19s-.3-.06-.42-.18-.17-.26-.17-.44c0-.21.08-.38.24-.49l.1.15Z"/>
              <path class="k" d="M502.9,25.77h-.97v.26c0,.12.04.22.12.3.08.08.17.12.29.12s.21-.04.29-.12c.08-.08.11-.18.11-.3,0-.07-.02-.14-.05-.2h.18c.03.08.04.15.04.2,0,.17-.06.31-.17.43-.11.12-.25.18-.41.18-.09,0-.18-.02-.26-.07-.1-.05-.17-.13-.22-.22-.05-.09-.08-.2-.08-.31v-.46h1.13v.18Z"/>
              <path class="k" d="M502.07,25.29c-.1-.05-.17-.13-.22-.22-.05-.09-.08-.2-.08-.31v-.28h-.3v-.18h1.43v.45c0,.17-.05.31-.16.43s-.24.18-.4.18c-.09,0-.18-.02-.26-.07ZM501.93,24.48v.26c0,.12.04.22.12.3.08.08.17.12.29.12s.21-.04.28-.12c.07-.08.11-.18.11-.3v-.26h-.79Z"/>
              <path class="k" d="M502.25,23.04c-.22.03-.33.18-.33.42,0,.12.04.23.12.32.08.09.18.13.29.13.11,0,.21-.04.29-.13.08-.08.12-.18.12-.3,0-.1-.02-.19-.05-.28-.04-.1-.1-.17-.18-.2l.12-.12c.09.05.16.13.21.24.05.1.07.21.07.34,0,.17-.06.32-.17.45s-.25.19-.41.19-.3-.06-.41-.19c-.11-.12-.17-.27-.17-.44,0-.19.04-.33.12-.44.1-.13.24-.19.44-.19.02,0,.05,0,.08,0v.89h-.14v-.69h0Z"/>
              <path class="k" d="M502.9,21.6v.18h-.64c-.09,0-.17.03-.24.09-.07.06-.1.14-.1.24s.03.18.1.24c.06.06.14.09.24.09h.64v.19h-1.13v-.19h.12c-.05-.06-.08-.12-.1-.16-.02-.06-.04-.12-.04-.19,0-.09.02-.17.06-.24.04-.07.09-.13.16-.18-.07-.05-.12-.12-.16-.19-.04-.08-.06-.16-.06-.24,0-.14.05-.26.15-.36s.21-.15.35-.15h.65v.19h-.64c-.09,0-.17.03-.24.09-.07.06-.1.14-.1.24s.03.18.1.24c.06.06.14.1.24.1h.65Z"/>
              <path class="k" d="M501.56,20.53s-.04,0-.06-.03c-.02-.02-.03-.04-.03-.06,0-.03,0-.05.03-.07.02-.02.04-.03.06-.03.03,0,.05,0,.06.03.02.02.03.04.03.07s0,.05-.03.06c-.02.02-.04.03-.06.03ZM502.9,20.34v.19h-1.15v-.19h1.15Z"/>
              <path class="k" d="M502.9,19.24h-.97v.26c0,.12.04.22.12.3.08.08.17.12.29.12s.21-.04.29-.12c.08-.08.11-.18.11-.3,0-.07-.02-.14-.05-.2h.18c.03.08.04.15.04.2,0,.17-.06.31-.17.43-.11.12-.25.18-.41.18-.09,0-.18-.02-.26-.07-.1-.05-.17-.13-.22-.22-.05-.09-.08-.2-.08-.31v-.46h1.13v.18Z"/>
            </g>
          </g>
        </g>
      </g>
      <g>
        <g>
          <g>
            <path class="w" d="M19.94,2.71v35.46h-9.51V14.93c-1.54,1.21-3.03,2.18-4.47,2.93-1.44.75-3.24,1.46-5.42,2.14v-7.94c3.2-1.06,5.69-2.34,7.46-3.83,1.77-1.49,3.16-3.33,4.16-5.52h7.78Z"/>
            <path class="v" d="M12.85,2.72h27.94v6.66c-2.43,2.26-4.46,4.7-6.09,7.33-1.97,3.19-3.53,6.75-4.68,10.67-.91,3.05-1.52,6.66-1.83,10.82h-9.54c.75-5.79,1.93-10.65,3.55-14.57,1.61-3.92,4.17-8.12,7.66-12.59H12.85V2.72Z"/>
            <g class="x">
              <path class="u" d="M19.94,2.71v35.46h-9.51V14.93c-1.54,1.21-3.03,2.18-4.47,2.93-1.44.75-3.24,1.46-5.42,2.14v-7.94c3.2-1.06,5.69-2.34,7.46-3.83,1.77-1.49,3.16-3.33,4.16-5.52h7.78Z"/>
            </g>
          </g>
          <g>
            <path class="q" d="M21.95,37.11v-1.47h-.37c-.17,0-.32.06-.43.18-.12.12-.18.26-.18.44s.06.32.18.43c.12.12.26.17.43.17.1,0,.19-.02.28-.07v.28c-.11.04-.21.06-.29.06-.24,0-.44-.08-.61-.25-.17-.17-.25-.37-.25-.62,0-.14.03-.27.09-.4.07-.15.18-.26.31-.34.13-.08.28-.12.45-.12h.66v1.72h-.26Z"/>
            <path class="q" d="M23.88,36.12v.99h-.26v-.98c0-.14-.04-.26-.13-.36-.09-.1-.2-.15-.34-.15s-.25.05-.34.15-.13.22-.13.36v.98h-.27v-1.72h.27v.18c.09-.07.17-.12.23-.15.08-.04.17-.05.27-.05.2,0,.37.07.51.22.14.15.21.32.21.53Z"/>
            <path class="q" d="M24.95,37.14c-.24,0-.46-.08-.63-.25s-.27-.38-.27-.62.09-.46.27-.63.39-.26.63-.26.46.09.64.26.27.38.27.63-.09.45-.27.62-.39.25-.64.25ZM24.95,35.63c-.18,0-.33.06-.45.18-.13.12-.19.27-.19.45,0,.18.07.32.19.44.13.12.28.18.45.18s.33-.06.45-.18c.13-.12.19-.27.19-.44,0-.18-.06-.32-.19-.45-.13-.12-.28-.18-.46-.18Z"/>
            <path class="q" d="M25.94,37.11v-.29h1.14c.07,0,.12-.02.17-.07s.07-.1.07-.17-.02-.12-.07-.17-.1-.07-.17-.07h-.69c-.18,0-.31-.08-.4-.23-.04-.07-.06-.16-.06-.24,0-.13.04-.24.13-.33.09-.09.2-.14.33-.14h1.16v.28h-1.15c-.05,0-.1.02-.14.06-.04.04-.06.09-.06.14s.02.1.06.14c.04.04.09.06.14.06h.7c.2,0,.35.09.45.26.04.08.07.17.07.26,0,.15-.05.28-.15.38-.1.1-.23.15-.37.15h-1.14Z"/>
          </g>
        </g>
        <g>
          <g>
            <path class="r" d="M1.19,25.74c-.03.3-.29.52-.59.52-.32,0-.59-.28-.59-.61s.25-.59.56-.61c.14.28.36.52.63.7"/>
            <path class="o" d="M3.09,26.14c.32.16.54.51.54.91,0,.56-.44,1.01-.98,1.01h-.03c.29-.33.44-1.08.47-1.92M2.67,26.04c.1,0,.2.02.31.05-.03.93-.2,1.76-.51,1.94-.03,0-.05-.02-.07-.02-.41-.12-.7-.51-.7-.96,0-.21.07-.4.17-.56.15-.28.46-.45.8-.45"/>
            <path class="p" d="M1.87,22.11c-.17.33-.49.54-.86.54-.54,0-.98-.45-.98-1.01,0-.28.1-.52.29-.72.34,0,.71.23,1.07.58.15.19.32.38.49.61M.99,20.64c.54,0,.98.45.98,1.01,0,.1-.02.21-.05.31-.15-.21-.31-.38-.46-.56-.32-.33-.68-.54-1.02-.59.15-.1.34-.17.54-.17"/>
            <path class="n" d="M2.95,25.68c-.24.12-.51.21-.8.21-.19,0-.37-.03-.54-.09-.66-.23-1.15-.89-1.15-1.64,0-.35.1-.66.27-.93.29-.45.76-.77,1.32-.8.17.28.32.58.44.89.08.21.15.42.22.65.05.21.1.42.14.65s.05.47.07.73c.03.09.03.23.03.33M2.22,22.41c.9.03,1.63.8,1.63,1.75,0,.61-.31,1.14-.76,1.45,0-.1,0-.19-.02-.3-.02-.24-.03-.51-.07-.75-.03-.24-.08-.47-.14-.66h0c-.07-.23-.14-.44-.22-.65-.14-.3-.27-.58-.42-.84"/>
          </g>
          <g>
            <g>
              <path class="k" d="M6.33,37.77c-.4,0-.73-.15-.99-.44-.27-.29-.4-.64-.4-1.05v-1.11h3.7v.45h-.92v.69c0,.28-.07.54-.2.77s-.32.41-.55.54c-.2.11-.41.16-.63.16ZM5.38,35.61v.64c0,.29.09.54.27.74.18.2.41.3.68.3s.51-.1.7-.31.28-.45.28-.74v-.63h-1.92Z"/>
              <path class="k" d="M6.53,34.83h-1.59v-.46h1.57c.23,0,.43-.08.58-.23.16-.15.24-.35.24-.58s-.08-.43-.24-.59c-.16-.15-.35-.23-.58-.23h-1.57v-.47h2.77v.47h-.29c.12.15.19.28.24.4.06.14.09.29.09.46,0,.34-.12.63-.36.87-.24.24-.52.36-.86.36Z"/>
              <path class="k" d="M7.71,29.67h-2.38v.63c0,.29.09.54.28.74s.42.31.7.31.52-.1.7-.3c.19-.2.28-.45.28-.73,0-.17-.04-.33-.12-.48h.45c.06.19.09.36.09.5,0,.41-.14.76-.41,1.05-.27.29-.6.44-1,.44-.22,0-.44-.05-.64-.16-.24-.13-.42-.31-.55-.54s-.2-.49-.2-.77v-1.14h2.77v.44Z"/>
              <path class="k" d="M4.2,28.97v-.45h.73v-.99h.41v.99h1.37s.1-.01.18-.04c.08-.03.14-.05.17-.08.16-.12.24-.33.24-.63v-.34h.4s0,.12,0,.29c0,.13,0,.24,0,.32,0,.12-.03.21-.05.3-.05.19-.15.34-.31.45-.15.12-.32.17-.51.17h-2.64Z"/>
              <path class="k" d="M4.2,27.34v-.45h.73v-.99h.41v.99h1.37s.1-.01.18-.04c.08-.03.14-.05.17-.08.16-.12.24-.33.24-.63v-.34h.4s0,.12,0,.29c0,.13,0,.24,0,.32,0,.12-.03.21-.05.3-.05.19-.15.34-.31.45-.15.12-.32.17-.51.17h-2.64Z"/>
              <path class="k" d="M7.75,24.41c0,.42-.14.78-.41,1.09-.27.3-.61.46-1.01.46s-.74-.15-1.01-.46c-.28-.3-.42-.67-.42-1.09s.14-.79.42-1.1c.28-.31.62-.46,1.01-.46s.74.15,1.01.46c.27.31.41.67.41,1.1ZM5.31,24.41c0,.3.1.56.3.78.2.22.44.32.72.32.28,0,.52-.11.71-.33s.29-.47.29-.77-.1-.56-.29-.78c-.19-.22-.43-.33-.71-.33-.28,0-.52.11-.72.33-.2.22-.3.48-.3.78Z"/>
              <path class="k" d="M5.31,21.42c0,.24.08.43.24.58.16.15.35.23.59.23h1.58v.47h-2.77v-.47h.29c-.12-.15-.2-.29-.24-.4-.06-.14-.09-.29-.09-.46,0-.39.15-.71.44-.95l.21.4c-.16.16-.24.35-.24.59Z"/>
            </g>
            <g>
              <path class="k" d="M9.73,30.35h-.97v.26c0,.12.04.22.12.3.08.08.17.12.29.12s.21-.04.29-.12c.08-.08.11-.18.11-.3,0-.07-.02-.14-.05-.2h.18c.03.08.04.15.04.2,0,.17-.06.31-.17.43-.11.12-.25.18-.41.18-.09,0-.18-.02-.26-.07-.1-.05-.17-.13-.22-.22-.05-.09-.08-.2-.08-.31v-.46h1.13v.18Z"/>
              <path class="k" d="M8.91,29.03c-.11.11-.17.22-.17.35,0,.12.04.21.12.3.08.08.18.12.29.12s.21-.04.29-.12c.08-.08.12-.18.12-.3,0-.09-.02-.17-.07-.24-.05-.07-.11-.12-.19-.15l.12-.13c.21.11.31.28.31.49,0,.18-.05.33-.16.44-.11.12-.25.19-.42.19s-.3-.06-.42-.18-.17-.26-.17-.44c0-.21.08-.38.24-.49l.1.15Z"/>
              <path class="k" d="M9.73,27.89h-.97v.26c0,.12.04.22.12.3.08.08.17.12.29.12s.21-.04.29-.12c.08-.08.11-.18.11-.3,0-.07-.02-.14-.05-.2h.18c.03.08.04.15.04.2,0,.17-.06.31-.17.43-.11.12-.25.18-.41.18-.09,0-.18-.02-.26-.07-.1-.05-.17-.13-.22-.22-.05-.09-.08-.2-.08-.31v-.46h1.13v.18Z"/>
              <path class="k" d="M8.9,27.42c-.1-.05-.17-.13-.22-.22-.05-.09-.08-.2-.08-.31v-.28h-.3v-.18h1.43v.45c0,.17-.05.31-.16.43s-.24.18-.4.18c-.09,0-.18-.02-.26-.07ZM8.76,26.6v.26c0,.12.04.22.12.3.08.08.17.12.29.12s.21-.04.28-.12c.07-.08.11-.18.11-.3v-.26h-.79Z"/>
              <path class="k" d="M9.07,25.16c-.22.03-.33.18-.33.42,0,.12.04.23.12.32.08.09.18.13.29.13.11,0,.21-.04.29-.13.08-.08.12-.18.12-.3,0-.1-.02-.19-.05-.28-.04-.1-.1-.17-.18-.2l.12-.12c.09.05.16.13.21.24.05.1.07.21.07.34,0,.17-.06.32-.17.45s-.25.19-.41.19-.3-.06-.41-.19c-.11-.12-.17-.27-.17-.44,0-.19.04-.33.12-.44.1-.13.24-.19.44-.19.02,0,.05,0,.08,0v.89h-.14v-.69h0Z"/>
              <path class="k" d="M9.73,23.72v.18h-.64c-.09,0-.17.03-.24.09-.07.06-.1.14-.1.24s.03.18.1.24c.06.06.14.09.24.09h.64v.19h-1.13v-.19h.12c-.05-.06-.08-.12-.1-.16-.02-.06-.04-.12-.04-.19,0-.09.02-.17.06-.24.04-.07.09-.13.16-.18-.07-.05-.12-.12-.16-.19-.04-.08-.06-.16-.06-.24,0-.14.05-.26.15-.36s.21-.15.35-.15h.65v.19h-.64c-.09,0-.17.03-.24.09-.07.06-.1.14-.1.24s.03.18.1.24c.06.06.14.1.24.1h.65Z"/>
              <path class="k" d="M8.39,22.65s-.04,0-.06-.03c-.02-.02-.03-.04-.03-.06,0-.03,0-.05.03-.07.02-.02.04-.03.06-.03.03,0,.05,0,.06.03.02.02.03.04.03.07s0,.05-.03.06c-.02.02-.04.03-.06.03ZM9.73,22.47v.19h-1.15v-.19h1.15Z"/>
              <path class="k" d="M9.73,21.36h-.97v.26c0,.12.04.22.12.3.08.08.17.12.29.12s.21-.04.29-.12c.08-.08.11-.18.11-.3,0-.07-.02-.14-.05-.2h.18c.03.08.04.15.04.2,0,.17-.06.31-.17.43-.11.12-.25.18-.41.18-.09,0-.18-.02-.26-.07-.1-.05-.17-.13-.22-.22-.05-.09-.08-.2-.08-.31v-.46h1.13v.18Z"/>
            </g>
          </g>
        </g>
      </g>
      <g>
        <path class="m" d="M48.56,24.86l5.97-.53c.13,1.37.39,2.41.79,3.13.65,1.16,1.57,1.74,2.77,1.74.9,0,1.59-.3,2.07-.89s.73-1.28.73-2.06-.23-1.41-.69-1.99c-.46-.59-1.53-1.14-3.21-1.66-2.75-.87-4.71-2.03-5.89-3.48-1.18-1.45-1.77-3.29-1.77-5.53,0-1.47.3-2.86.91-4.17s1.51-2.34,2.73-3.09c1.21-.75,2.88-1.12,4.99-1.12,2.59,0,4.57.68,5.94,2.04,1.36,1.36,2.17,3.53,2.43,6.5l-5.91.49c-.16-1.29-.49-2.23-.99-2.81-.5-.59-1.2-.88-2.08-.88-.73,0-1.28.22-1.65.66-.37.44-.55.97-.55,1.59,0,.46.15.87.46,1.23.3.38,1,.73,2.11,1.05,2.74.83,4.71,1.68,5.89,2.53,1.19.85,2.05,1.91,2.59,3.17s.81,2.68.81,4.24c0,1.84-.36,3.53-1.08,5.08-.72,1.55-1.73,2.73-3.02,3.53-1.29.8-2.92,1.2-4.89,1.2-3.45,0-5.85-.94-7.17-2.81s-2.08-4.26-2.26-7.15Z"/>
        <path class="m" d="M70.13,5.69h16.82v6.12h-10.53v4.55h9.77v5.84h-9.77v5.65h10.83v6.49h-17.12V5.69Z"/>
        <path class="m" d="M90.56,5.69h8.25l3.18,17.43,3.16-17.43h8.25v28.65h-5.14V12.49l-3.96,21.85h-4.65l-3.95-21.85v21.85h-5.14V5.69Z"/>
        <path class="m" d="M129.89,29.61h-7.12l-.99,4.73h-6.41l7.63-28.65h6.84l7.63,28.65h-6.57l-1.02-4.73ZM128.59,23.41l-2.24-10.3-2.22,10.3h4.46Z"/>
        <path class="m" d="M139.51,5.69h5.86l7.65,15.85V5.69h5.91v28.65h-5.91l-7.6-15.73v15.73h-5.9V5.69Z"/>
        <path class="m" d="M175.31,29.61h-7.12l-.99,4.73h-6.41l7.63-28.65h6.84l7.63,28.65h-6.57l-1.02-4.73ZM174,23.41l-2.24-10.3-2.22,10.3h4.46Z"/>
        <path class="m" d="M194.43,5.69h9.32c1.84,0,3.32.35,4.45,1.06,1.13.7,2.07,1.71,2.8,3.03.74,1.32,1.27,2.85,1.61,4.59.33,1.75.5,3.6.5,5.55,0,3.06-.25,5.43-.74,7.12-.49,1.69-1.18,3.1-2.06,4.24-.88,1.14-1.82,1.9-2.83,2.28-1.38.52-2.62.78-3.74.78h-9.32V5.69ZM200.7,12.18v15.65h1.54c1.31,0,2.24-.21,2.8-.62.55-.41.99-1.13,1.3-2.15s.47-2.68.47-4.97c0-3.04-.35-5.11-1.05-6.23-.7-1.12-1.87-1.68-3.49-1.68h-1.56Z"/>
        <path class="m" d="M227.68,29.61h-7.12l-.99,4.73h-6.41l7.63-28.65h6.84l7.63,28.65h-6.57l-1.02-4.73ZM226.38,23.41l-2.24-10.3-2.22,10.3h4.46Z"/>
        <path class="m" d="M246.75,5.69h6.27v10.02h6.86V5.69h6.3v28.65h-6.3v-11.59h-6.86v11.59h-6.27V5.69Z"/>
        <path class="m" d="M270.6,5.69h6.29v28.65h-6.29V5.69Z"/>
        <path class="m" d="M281.36,5.69h10.43c2.27,0,3.97.76,5.1,2.29,1.13,1.52,1.7,3.69,1.7,6.51s-.62,5.15-1.85,6.78c-1.23,1.63-3.11,2.44-5.64,2.44h-3.43v10.63h-6.3V5.69ZM287.66,17.9h1.54c1.21,0,2.06-.3,2.55-.89s.73-1.35.73-2.28-.21-1.66-.64-2.29c-.42-.62-1.22-.94-2.4-.94h-1.79v6.39Z"/>
        <path class="m" d="M301.86,5.69h16.82v6.12h-10.53v4.55h9.76v5.84h-9.76v5.65h10.83v6.49h-17.12V5.69Z"/>
        <path class="m" d="M322.44,34.33V5.69h10.46c1.94,0,3.42.23,4.45.7,1.03.47,1.85,1.34,2.48,2.61.63,1.27.94,2.82.94,4.64,0,1.59-.24,2.96-.72,4.11-.48,1.15-1.14,2.09-1.98,2.8-.54.46-1.27.83-2.2,1.13.75.35,1.29.71,1.63,1.06.23.23.57.74,1,1.51s.73,1.36.88,1.78l3.04,8.3h-7.09l-3.35-8.75c-.42-1.13-.8-1.87-1.14-2.21-.45-.44-.96-.66-1.54-.66h-.55v11.63h-6.3ZM328.74,17.29h2.65c.29,0,.84-.13,1.66-.39.42-.12.75-.42,1.02-.9.26-.48.39-1.04.39-1.66,0-.92-.21-1.63-.62-2.13-.42-.5-1.2-.74-2.34-.74h-2.76v5.82Z"/>
        <path class="m" d="M342.75,5.69h19.07v7.07h-6.4v21.57h-6.28V12.76h-6.4v-7.07Z"/>
        <path class="m" d="M364.74,34.33V5.69h10.46c1.94,0,3.42.23,4.45.7,1.03.47,1.85,1.34,2.48,2.61.63,1.27.94,2.82.94,4.64,0,1.59-.24,2.96-.72,4.11-.48,1.15-1.14,2.09-1.98,2.8-.54.46-1.27.83-2.2,1.13.75.35,1.29.71,1.63,1.06.23.23.57.74,1,1.51s.73,1.36.88,1.78l3.04,8.3h-7.09l-3.35-8.75c-.42-1.13-.8-1.87-1.14-2.21-.45-.44-.96-.66-1.54-.66h-.55v11.63h-6.3ZM371.05,17.29h2.65c.29,0,.84-.13,1.66-.39.42-.12.75-.42,1.02-.9.26-.48.39-1.04.39-1.66,0-.92-.21-1.63-.62-2.13-.42-.5-1.2-.74-2.34-.74h-2.76v5.82Z"/>
        <path class="m" d="M385.45,20.03c0-4.68.92-8.32,2.77-10.92s4.42-3.91,7.71-3.91,5.98,1.28,7.81,3.84c1.83,2.56,2.74,6.15,2.74,10.76,0,3.35-.4,6.09-1.2,8.24-.8,2.14-1.95,3.81-3.46,5-1.51,1.19-3.39,1.79-5.64,1.79s-4.18-.51-5.69-1.54c-1.5-1.03-2.72-2.66-3.65-4.89-.93-2.23-1.4-5.01-1.4-8.36ZM391.73,20.07c0,2.89.38,4.97,1.14,6.23.76,1.26,1.8,1.9,3.11,1.9s2.39-.62,3.13-1.86c.74-1.24,1.11-3.46,1.11-6.66,0-2.7-.39-4.67-1.16-5.91-.77-1.24-1.82-1.87-3.14-1.87s-2.28.63-3.05,1.9c-.77,1.26-1.15,3.35-1.15,6.27Z"/>
        <path class="m" d="M409.9,5.69h15.51v6.16h-9.21v5h7.87v5.78h-7.87v11.7h-6.3V5.69Z"/>
        <path class="m" d="M429.04,5.69h6.29v28.65h-6.29V5.69Z"/>
        <path class="m" d="M452.32,29.61h-7.12l-.99,4.73h-6.41l7.63-28.65h6.84l7.63,28.65h-6.57l-1.02-4.73ZM451.01,23.41l-2.24-10.3-2.22,10.3h4.46Z"/>
        <path class="m" d="M483.23,5.2v29.13h-5.71V15.24c-.92.99-1.82,1.79-2.68,2.4-.86.61-1.95,1.2-3.25,1.76v-6.53c1.92-.87,3.41-1.92,4.47-3.15s1.89-2.74,2.49-4.53h4.67Z"/>
      </g>
    </g>
  </g>
</svg>