<?xml version="1.0" encoding="UTF-8" standalone="no"?>
<!DOCTYPE svg PUBLIC "-//W3C//DTD SVG 1.1//EN" "http://www.w3.org/Graphics/SVG/1.1/DTD/svg11.dtd">
<svg width="100%" height="100%" viewBox="0 0 1302 81" version="1.1" xmlns="http://www.w3.org/2000/svg" xmlns:xlink="http://www.w3.org/1999/xlink" xml:space="preserve" xmlns:serif="http://www.serif.com/" style="fill-rule:evenodd;clip-rule:evenodd;stroke-linejoin:round;stroke-miterlimit:2;">
    <g transform="matrix(1,0,0,1,-127.933,-648.46)">
        <g>
            <g transform="matrix(0.752305,0,0,1.06234,21.8239,-81.6606)">
                <g>
                    <g>
                        <g transform="matrix(90.3415,0,0,90.3415,1668.26,761.124)">
                        </g>
                        <text x="377.285px" y="761.124px" style="font-family:'DozerTwo', 'Dozer Two';font-weight:900;font-size:90.341px;">INICIANTE SEMANA 1</text>
                    </g>
                </g>
            </g>
            <g transform="matrix(1.98457,0,0,1.98457,-1822.93,-204.529)">
                <g transform="matrix(0.859058,0,0,0.859058,1006.51,429.812)">
                    <path d="M0,14.51C-3.521,14.008 -6.248,10.961 -6.248,7.281C-6.248,3.281 -2.992,0 1.033,0C4.926,0 8.104,3.045 8.314,6.885C4.926,8.658 2.041,11.278 0,14.51" style="fill:rgb(0,158,223);"/>
                </g>
                <g transform="matrix(0.859058,0,0,0.859058,1002.46,453.194)">
                    <path d="M0,10.488C-1.932,14.435 -6.008,17.16 -10.695,17.16C-17.289,17.16 -22.638,11.812 -22.638,5.244C-22.638,5.113 -22.611,4.98 -22.611,4.847C-18.904,8.156 -9.928,10.062 0,10.488M1.221,5.244C1.221,6.515 1.008,7.734 0.664,8.873C-10.378,8.527 -20.148,6.437 -22.346,2.703C-22.294,2.384 -22.213,2.066 -22.109,1.775C-20.625,-3.123 -16.072,-6.672 -10.695,-6.672C-8.207,-6.672 -5.902,-5.904 -3.996,-4.604C-0.846,-2.461 1.221,1.14 1.221,5.244" style="fill:rgb(229,30,37);"/>
                </g>
                <g transform="matrix(0.859058,0,0,0.859058,1043.36,431.221)">
                    <path d="M0,21.183C-3.838,19.197 -6.434,15.199 -6.434,10.592C-6.434,4.023 -1.113,-1.324 5.482,-1.324C8.738,-1.324 11.704,0 13.85,2.119C13.796,6.328 11.254,10.829 7.123,15.093C5.084,17.212 2.676,19.251 0,21.183M17.396,10.592C17.396,17.183 12.049,22.507 5.482,22.507C4.185,22.507 2.967,22.322 1.802,21.925C4.236,20.124 6.434,18.218 8.342,16.258C12.181,12.287 14.748,8.05 15.385,3.972C16.656,5.851 17.396,8.129 17.396,10.592" style="fill:rgb(59,170,73);"/>
                </g>
                <g transform="matrix(0.859058,0,0,0.859058,1007.06,444.166)">
                    <path d="M0,19.408C-1.537,16.523 -2.438,13.213 -2.438,9.717C-2.438,7.387 -2.041,5.162 -1.326,3.07C1.43,-5.031 9.107,-10.884 18.164,-10.884C22.217,-10.884 26,-9.719 29.18,-7.681C34.607,-4.238 38.314,1.668 38.711,8.472C35.455,10.512 31.906,12.365 28.254,13.928C25.764,14.959 23.221,15.887 20.68,16.654C18.295,17.344 15.701,17.898 12.949,18.349C10.193,18.773 7.281,19.064 4.342,19.251C2.885,19.33 1.43,19.383 0,19.408M38.738,10.431C38.369,21.474 29.285,30.292 18.164,30.292C10.988,30.292 4.66,26.637 0.979,21.051C2.117,21.023 3.283,20.969 4.422,20.918C7.414,20.734 10.379,20.441 13.213,19.992C16.045,19.541 18.721,18.959 21.129,18.244L21.156,18.244C23.752,17.474 26.346,16.547 28.889,15.463C32.303,14.008 35.641,12.311 38.738,10.431" style="fill:rgb(244,146,31);"/>
                </g>
            </g>
            <g transform="matrix(1.98457,0,0,1.98457,-670.529,-204.529)">
                <g transform="matrix(0.859058,0,0,0.859058,1006.51,429.812)">
                    <path d="M0,14.51C-3.521,14.008 -6.248,10.961 -6.248,7.281C-6.248,3.281 -2.992,0 1.033,0C4.926,0 8.104,3.045 8.314,6.885C4.926,8.658 2.041,11.278 0,14.51" style="fill:rgb(0,158,223);"/>
                </g>
                <g transform="matrix(0.859058,0,0,0.859058,1002.46,453.194)">
                    <path d="M0,10.488C-1.932,14.435 -6.008,17.16 -10.695,17.16C-17.289,17.16 -22.638,11.812 -22.638,5.244C-22.638,5.113 -22.611,4.98 -22.611,4.847C-18.904,8.156 -9.928,10.062 0,10.488M1.221,5.244C1.221,6.515 1.008,7.734 0.664,8.873C-10.378,8.527 -20.148,6.437 -22.346,2.703C-22.294,2.384 -22.213,2.066 -22.109,1.775C-20.625,-3.123 -16.072,-6.672 -10.695,-6.672C-8.207,-6.672 -5.902,-5.904 -3.996,-4.604C-0.846,-2.461 1.221,1.14 1.221,5.244" style="fill:rgb(229,30,37);"/>
                </g>
                <g transform="matrix(0.859058,0,0,0.859058,1043.36,431.221)">
                    <path d="M0,21.183C-3.838,19.197 -6.434,15.199 -6.434,10.592C-6.434,4.023 -1.113,-1.324 5.482,-1.324C8.738,-1.324 11.704,0 13.85,2.119C13.796,6.328 11.254,10.829 7.123,15.093C5.084,17.212 2.676,19.251 0,21.183M17.396,10.592C17.396,17.183 12.049,22.507 5.482,22.507C4.185,22.507 2.967,22.322 1.802,21.925C4.236,20.124 6.434,18.218 8.342,16.258C12.181,12.287 14.748,8.05 15.385,3.972C16.656,5.851 17.396,8.129 17.396,10.592" style="fill:rgb(59,170,73);"/>
                </g>
                <g transform="matrix(0.859058,0,0,0.859058,1007.06,444.166)">
                    <path d="M0,19.408C-1.537,16.523 -2.438,13.213 -2.438,9.717C-2.438,7.387 -2.041,5.162 -1.326,3.07C1.43,-5.031 9.107,-10.884 18.164,-10.884C22.217,-10.884 26,-9.719 29.18,-7.681C34.607,-4.238 38.314,1.668 38.711,8.472C35.455,10.512 31.906,12.365 28.254,13.928C25.764,14.959 23.221,15.887 20.68,16.654C18.295,17.344 15.701,17.898 12.949,18.349C10.193,18.773 7.281,19.064 4.342,19.251C2.885,19.33 1.43,19.383 0,19.408M38.738,10.431C38.369,21.474 29.285,30.292 18.164,30.292C10.988,30.292 4.66,26.637 0.979,21.051C2.117,21.023 3.283,20.969 4.422,20.918C7.414,20.734 10.379,20.441 13.213,19.992C16.045,19.541 18.721,18.959 21.129,18.244L21.156,18.244C23.752,17.474 26.346,16.547 28.889,15.463C32.303,14.008 35.641,12.311 38.738,10.431" style="fill:rgb(244,146,31);"/>
                </g>
            </g>
        </g>
    </g>
</svg>
