<?xml version="1.0" encoding="UTF-8" standalone="no"?>
<!DOCTYPE svg PUBLIC "-//W3C//DTD SVG 1.1//EN" "http://www.w3.org/Graphics/SVG/1.1/DTD/svg11.dtd">
<svg width="100%" height="100%" viewBox="0 0 864 491" version="1.1" xmlns="http://www.w3.org/2000/svg" xmlns:xlink="http://www.w3.org/1999/xlink" xml:space="preserve" xmlns:serif="http://www.serif.com/" style="fill-rule:evenodd;clip-rule:evenodd;stroke-linejoin:round;stroke-miterlimit:2;">
    <g transform="matrix(1,0,0,1,-364.759,-338.685)">
        <g transform="matrix(4.16667,0,0,4.16667,0,0)">
            <g transform="matrix(1,0,0,1,227.457,81.2844)">
                <path d="M0,14.51C-3.521,14.008 -6.248,10.961 -6.248,7.281C-6.248,3.281 -2.992,0 1.033,0C4.926,0 8.104,3.045 8.314,6.885C4.926,8.658 2.041,11.278 0,14.51" style="fill:rgb(0,159,227);"/>
            </g>
            <g transform="matrix(1,0,0,1,222.743,108.503)">
                <path d="M0,10.488C-1.932,14.435 -6.008,17.16 -10.695,17.16C-17.289,17.16 -22.638,11.812 -22.638,5.244C-22.638,5.113 -22.611,4.98 -22.611,4.847C-18.904,8.156 -9.928,10.063 0,10.488M1.221,5.244C1.221,6.515 1.008,7.734 0.664,8.873C-10.379,8.528 -20.148,6.437 -22.346,2.703C-22.294,2.385 -22.213,2.067 -22.109,1.776C-20.625,-3.123 -16.072,-6.672 -10.695,-6.672C-8.207,-6.672 -5.902,-5.904 -3.996,-4.604C-0.846,-2.461 1.221,1.14 1.221,5.244" style="fill:rgb(227,6,19);"/>
            </g>
            <g transform="matrix(1,0,0,1,270.353,82.9249)">
                <path d="M0,21.184C-3.838,19.198 -6.434,15.2 -6.434,10.592C-6.434,4.024 -1.113,-1.324 5.482,-1.324C8.738,-1.324 11.705,0 13.85,2.12C13.797,6.329 11.254,10.83 7.123,15.094C5.084,17.213 2.676,19.252 0,21.184M17.396,10.592C17.396,17.184 12.049,22.508 5.482,22.508C4.186,22.508 2.967,22.323 1.803,21.926C4.236,20.125 6.434,18.219 8.342,16.258C12.182,12.288 14.748,8.051 15.385,3.973C16.656,5.852 17.396,8.129 17.396,10.592" style="fill:rgb(59,170,53);"/>
            </g>
            <g transform="matrix(1,0,0,1,228.094,97.9928)">
                <path d="M0,19.409C-1.537,16.524 -2.438,13.213 -2.438,9.718C-2.438,7.388 -2.041,5.163 -1.326,3.071C1.43,-5.03 9.107,-10.884 18.164,-10.884C22.216,-10.884 26,-9.718 29.179,-7.681C34.607,-4.237 38.314,1.669 38.711,8.473C35.455,10.513 31.906,12.366 28.253,13.928C25.764,14.96 23.221,15.888 20.68,16.655C18.295,17.344 15.701,17.899 12.949,18.35C10.193,18.774 7.281,19.065 4.342,19.252C2.885,19.33 1.43,19.383 0,19.409M38.738,10.432C38.369,21.475 29.285,30.293 18.164,30.293C10.988,30.293 4.66,26.638 0.979,21.051C2.117,21.024 3.283,20.97 4.422,20.918C7.414,20.735 10.379,20.442 13.213,19.992C16.045,19.541 18.72,18.959 21.129,18.244L21.156,18.244C23.751,17.475 26.346,16.548 28.888,15.463C32.303,14.008 35.64,12.311 38.738,10.432" style="fill:rgb(243,146,0);"/>
            </g>
            <g transform="matrix(1,0,0,1,113.015,181.616)">
                <path d="M0,-34.213L-7.6,-34.213C-11.07,-34.213 -13.955,-33.127 -16.312,-30.955C-18.668,-28.758 -19.859,-26.004 -19.859,-22.614C-19.859,-19.199 -18.643,-16.366 -16.23,-14.115C-13.824,-11.864 -10.91,-10.725 -7.441,-10.725L0,-10.725L0,-34.213ZM-23.594,-14.963C-24.838,-17.399 -25.473,-19.965 -25.473,-22.614C-25.473,-27.432 -23.752,-31.484 -20.311,-34.715C-16.895,-37.973 -12.738,-39.615 -7.891,-39.615L5.295,-39.615L5.295,5.402L0,5.402L0,-5.827L-8.156,-5.827C-11.467,-5.827 -14.484,-6.647 -17.211,-8.237C-19.937,-9.825 -22.084,-12.075 -23.594,-14.963" style="fill:rgb(29,29,27);"/>
            </g>
            <g transform="matrix(1,0,0,1,122.229,156.831)">
                <path d="M0,4.607L0,-14.775L5.402,-14.775L5.402,4.316C5.402,7.123 6.301,9.505 8.102,11.439C9.903,13.373 12.18,14.35 14.961,14.35C17.768,14.35 20.071,13.398 21.898,11.466C23.725,9.531 24.625,7.177 24.625,4.369L24.625,-14.775L30.133,-14.775L30.133,18.959L24.625,18.959L24.625,15.412C22.825,16.814 21.262,17.769 19.939,18.324C18.297,19.039 16.496,19.382 14.537,19.382C10.459,19.382 7.016,17.953 4.211,15.041C1.403,12.154 0,8.66 0,4.607" style="fill:rgb(29,29,27);"/>
            </g>
            <g transform="matrix(1,0,0,1,181.808,142.213)">
                <path d="M0,33.576L0,4.635L-7.492,4.635C-10.936,4.635 -13.875,5.801 -16.285,8.104C-18.693,10.407 -19.885,13.267 -19.885,16.683C-19.885,20.097 -18.721,22.957 -16.338,25.236C-13.955,27.514 -11.068,28.678 -7.652,28.678C-5.613,28.678 -3.707,28.176 -1.986,27.221L-1.986,32.648C-4.262,33.418 -6.223,33.789 -7.917,33.789C-12.789,33.789 -16.92,32.146 -20.361,28.862C-23.805,25.553 -25.525,21.502 -25.525,16.683C-25.525,13.955 -24.891,11.334 -23.619,8.871C-22.109,5.985 -19.99,3.762 -17.266,2.172C-14.537,0.582 -11.518,-0.213 -8.209,-0.213L5.242,-0.213L5.242,33.576L0,33.576Z" style="fill:rgb(29,29,27);"/>
            </g>
            <g transform="matrix(1,0,0,1,190.149,175.87)">
                <path d="M0,-42.818L5.348,-42.818L5.348,-33.869L17.053,-33.869L17.053,-28.81L5.348,-28.81L5.348,-12.18C5.348,-11.676 5.508,-10.963 5.799,-9.983C6.117,-9.031 6.408,-8.34 6.699,-7.945C8.104,-5.985 10.592,-4.979 14.141,-4.979L18.137,-4.979L18.137,-0.08C17.926,-0.08 16.762,-0.08 14.695,-0.027C13.135,0 11.889,0 10.91,-0.027C9.532,-0.133 8.367,-0.344 7.389,-0.637C5.217,-1.244 3.416,-2.49 2.065,-4.344C0.689,-6.223 0,-8.315 0,-10.619L0,-42.818Z" style="fill:rgb(29,29,27);"/>
            </g>
            <g transform="matrix(1,0,0,1,209.372,175.87)">
                <path d="M0,-42.818L5.35,-42.818L5.35,-33.869L17.055,-33.869L17.055,-28.81L5.35,-28.81L5.35,-12.18C5.35,-11.676 5.482,-10.963 5.801,-9.983C6.092,-9.031 6.41,-8.34 6.672,-7.945C8.078,-5.985 10.566,-4.979 14.141,-4.979L18.113,-4.979L18.113,-0.08C17.9,-0.08 16.762,-0.08 14.67,-0.027C13.135,0 11.863,0 10.885,-0.027C9.533,-0.133 8.369,-0.344 7.389,-0.637C5.191,-1.244 3.416,-2.49 2.041,-4.344C0.689,-6.223 0,-8.315 0,-10.619L0,-42.818Z" style="fill:rgb(29,29,27);"/>
            </g>
            <g transform="matrix(1,0,0,1,247.661,171.209)">
                <path d="M0,-24.626C-3.574,-24.626 -6.645,-23.435 -9.188,-21.024C-11.758,-18.615 -13.026,-15.675 -13.026,-12.234C-13,-8.792 -11.703,-5.904 -9.133,-3.55C-6.592,-1.218 -3.547,-0.052 0,-0.052C3.549,-0.052 6.621,-1.218 9.189,-3.55C11.757,-5.904 13.082,-8.792 13.109,-12.234C13.134,-15.675 11.865,-18.615 9.242,-21.024C6.648,-23.435 3.549,-24.626 0,-24.626M0,5.059C-4.977,5.059 -9.268,3.391 -12.869,0.052C-16.469,-3.285 -18.242,-7.386 -18.242,-12.259C-18.242,-17.105 -16.469,-21.21 -12.869,-24.599C-9.268,-27.988 -4.977,-29.685 0,-29.685C4.979,-29.685 9.322,-27.988 12.949,-24.599C16.576,-21.21 18.404,-17.105 18.404,-12.259C18.404,-7.386 16.576,-3.285 12.949,0.052C9.322,3.391 4.979,5.059 0,5.059" style="fill:rgb(29,29,27);"/>
            </g>
            <g transform="matrix(1,0,0,1,290.053,167.791)">
                <path d="M0,-18.269C-1.852,-20.228 -4.155,-21.208 -6.961,-21.208C-9.743,-21.208 -12.02,-20.255 -13.846,-18.322C-15.647,-16.415 -16.575,-14.033 -16.575,-11.199L-16.575,7.998L-22.135,7.998L-22.135,-25.79L-16.575,-25.79L-16.575,-22.267C-14.774,-23.671 -13.211,-24.65 -11.887,-25.179C-10.247,-25.896 -8.446,-26.267 -6.485,-26.267C-1.905,-26.267 1.83,-24.464 4.742,-20.865L0,-18.269Z" style="fill:rgb(29,29,27);"/>
            </g>
            <g transform="matrix(1,0,0,1,174.235,186.223)">
                <path d="M0,12.578L0,1.721L-2.807,1.721C-4.104,1.721 -5.217,2.172 -6.117,3.019C-7.018,3.89 -7.467,4.953 -7.467,6.248C-7.467,7.519 -7.018,8.605 -6.145,9.453C-5.242,10.328 -4.158,10.751 -2.887,10.751C-2.119,10.751 -1.404,10.566 -0.77,10.195L-0.77,12.234C-1.617,12.525 -2.357,12.658 -2.992,12.658C-4.793,12.658 -6.355,12.049 -7.652,10.831C-8.924,9.586 -9.586,8.049 -9.586,6.248C-9.586,5.218 -9.348,4.236 -8.871,3.31C-8.314,2.224 -7.521,1.404 -6.488,0.795C-5.455,0.211 -4.316,-0.08 -3.072,-0.08L1.959,-0.08L1.959,12.578L0,12.578Z" style="fill:rgb(29,29,27);fill-rule:nonzero;"/>
            </g>
            <g transform="matrix(1,0,0,1,189.7,195.253)">
                <path d="M0,-5.561C-1.139,-6.805 -2.41,-7.415 -3.814,-7.415C-5.084,-7.415 -6.144,-6.965 -7.044,-6.038C-7.972,-5.11 -8.421,-4.026 -8.421,-2.754C-8.421,-1.51 -7.972,-0.424 -7.044,0.476C-6.144,1.376 -5.084,1.827 -3.814,1.827C-2.861,1.827 -1.986,1.562 -1.219,1.06C-0.451,0.529 0.104,-0.161 0.422,-1.034L1.799,0.291C0.582,2.595 -1.219,3.734 -3.55,3.734C-5.482,3.734 -7.07,3.15 -8.369,1.959C-9.719,0.742 -10.408,-0.847 -10.408,-2.754C-10.408,-4.608 -9.771,-6.17 -8.474,-7.415C-7.203,-8.685 -5.615,-9.295 -3.734,-9.295C-1.431,-9.295 0.344,-8.42 1.614,-6.647L0,-5.561Z" style="fill:rgb(29,29,27);fill-rule:nonzero;"/>
            </g>
            <g transform="matrix(1,0,0,1,203.071,186.223)">
                <path d="M0,12.578L0,1.721L-2.833,1.721C-4.132,1.721 -5.217,2.172 -6.115,3.019C-7.043,3.89 -7.494,4.953 -7.494,6.248C-7.494,7.519 -7.043,8.605 -6.143,9.453C-5.27,10.328 -4.184,10.751 -2.887,10.751C-2.119,10.751 -1.402,10.566 -0.768,10.195L-0.768,12.234C-1.615,12.525 -2.357,12.658 -2.992,12.658C-4.818,12.658 -6.381,12.049 -7.652,10.831C-8.951,9.586 -9.586,8.049 -9.586,6.248C-9.586,5.218 -9.347,4.236 -8.896,3.31C-8.314,2.224 -7.52,1.404 -6.488,0.795C-5.482,0.211 -4.343,-0.08 -3.098,-0.08L1.959,-0.08L1.959,12.578L0,12.578Z" style="fill:rgb(29,29,27);fill-rule:nonzero;"/>
            </g>
            <g transform="matrix(1,0,0,1,218.084,193.637)">
                <path d="M0,-5.666L-2.807,-5.666C-4.105,-5.666 -5.191,-5.242 -6.117,-4.369C-7.018,-3.523 -7.467,-2.436 -7.467,-1.166C-7.467,0.105 -7.018,1.139 -6.143,1.935C-5.242,2.727 -4.158,3.125 -2.859,3.125L0,3.125L0,-5.666ZM-8.871,-4.104C-8.289,-5.189 -7.494,-6.01 -6.461,-6.619C-5.455,-7.203 -4.316,-7.494 -3.072,-7.494L0,-7.494L0,-10.83L1.959,-10.83L1.959,5.164L-2.967,5.164C-4.793,5.164 -6.355,4.58 -7.652,3.363C-8.924,2.145 -9.559,0.635 -9.559,-1.166C-9.559,-2.196 -9.322,-3.178 -8.871,-4.104" style="fill:rgb(29,29,27);fill-rule:nonzero;"/>
            </g>
            <g transform="matrix(1,0,0,1,234.741,193.424)">
                <path d="M0,-1.905C-0.371,-4.367 -1.908,-5.586 -4.555,-5.586C-5.906,-5.586 -7.043,-5.137 -8.025,-4.237C-8.979,-3.336 -9.455,-2.223 -9.428,-0.926C-9.428,0.345 -8.979,1.431 -8.078,2.304C-7.178,3.205 -6.092,3.656 -4.82,3.656C-3.762,3.656 -2.729,3.443 -1.75,3.045C-0.609,2.543 0.105,1.908 0.422,1.086L1.773,2.385C1.217,3.443 0.316,4.238 -0.875,4.793C-1.986,5.297 -3.23,5.562 -4.582,5.562C-6.463,5.562 -8.078,4.953 -9.428,3.708C-10.752,2.437 -11.439,0.9 -11.439,-0.926C-11.439,-2.754 -10.752,-4.288 -9.4,-5.559C-8.051,-6.83 -6.436,-7.467 -4.582,-7.467C-2.543,-7.467 -0.955,-6.99 0.184,-6.089C1.561,-5.03 2.223,-3.362 2.223,-1.137C2.223,-0.846 2.223,-0.581 2.197,-0.29L-7.494,-0.29L-7.494,-1.905L0,-1.905Z" style="fill:rgb(29,29,27);fill-rule:nonzero;"/>
            </g>
            <g transform="matrix(1,0,0,1,251.396,185.957)">
                <path d="M0,12.844L-1.988,12.844L-1.988,5.641C-1.988,4.582 -2.332,3.707 -3.02,2.967C-3.682,2.252 -4.556,1.881 -5.589,1.881C-6.648,1.881 -7.521,2.252 -8.183,2.967C-8.873,3.682 -9.215,4.582 -9.215,5.641L-9.215,12.844L-11.283,12.844L-11.283,0.186L-9.215,0.186L-9.215,1.485C-8.527,0.982 -7.945,0.611 -7.441,0.399C-6.832,0.133 -6.171,0 -5.429,0C-4.476,0 -3.602,0.211 -2.808,0.664C-2.013,1.139 -1.378,1.723 -0.876,2.49C-0.32,1.748 0.37,1.139 1.243,0.69C2.09,0.211 2.963,0 3.864,0C5.374,0 6.67,0.531 7.73,1.617C8.764,2.701 9.292,4.026 9.292,5.533L9.292,12.844L7.281,12.844L7.281,5.641C7.281,4.582 6.936,3.707 6.248,2.967C5.586,2.252 4.738,1.881 3.678,1.881C2.646,1.881 1.772,2.225 1.057,2.94C0.37,3.682 0,4.555 0,5.588L0,12.844Z" style="fill:rgb(29,29,27);fill-rule:nonzero;"/>
            </g>
            <g transform="matrix(1,0,0,1,264.105,197.821)">
                <path d="M0,-13.981C0,-14.247 0.079,-14.483 0.29,-14.668C0.477,-14.881 0.715,-14.961 0.979,-14.961C1.27,-14.961 1.508,-14.881 1.694,-14.668C1.906,-14.483 1.986,-14.247 1.986,-13.981C1.986,-13.69 1.906,-13.452 1.694,-13.266C1.508,-13.055 1.27,-12.975 0.979,-12.975C0.715,-12.975 0.477,-13.055 0.29,-13.266C0.079,-13.452 0,-13.69 0,-13.981M1.986,0.98L-0.08,0.98L-0.08,-11.864L1.986,-11.864L1.986,0.98Z" style="fill:rgb(29,29,27);fill-rule:nonzero;"/>
            </g>
            <g transform="matrix(1,0,0,1,279.119,186.223)">
                <path d="M0,12.578L0,1.721L-2.807,1.721C-4.105,1.721 -5.217,2.172 -6.117,3.019C-7.018,3.89 -7.468,4.953 -7.468,6.248C-7.468,7.519 -7.018,8.605 -6.143,9.453C-5.244,10.328 -4.158,10.751 -2.887,10.751C-2.119,10.751 -1.402,10.566 -0.742,10.195L-0.742,12.234C-1.615,12.525 -2.357,12.658 -2.967,12.658C-4.793,12.658 -6.357,12.049 -7.652,10.831C-8.924,9.586 -9.586,8.049 -9.586,6.248C-9.586,5.218 -9.348,4.236 -8.871,3.31C-8.314,2.224 -7.494,1.404 -6.488,0.795C-5.455,0.211 -4.316,-0.08 -3.072,-0.08L1.959,-0.08L1.959,12.578L0,12.578Z" style="fill:rgb(29,29,27);fill-rule:nonzero;"/>
            </g>
        </g>
    </g>
</svg>
