<?xml version="1.0" encoding="UTF-8" standalone="no"?>
<!DOCTYPE svg PUBLIC "-//W3C//DTD SVG 1.1//EN" "http://www.w3.org/Graphics/SVG/1.1/DTD/svg11.dtd">
<svg width="100%" height="100%" viewBox="0 0 172 172" version="1.1" xmlns="http://www.w3.org/2000/svg" xmlns:xlink="http://www.w3.org/1999/xlink" xml:space="preserve" xmlns:serif="http://www.serif.com/" style="fill-rule:evenodd;clip-rule:evenodd;stroke-linejoin:round;stroke-miterlimit:2;">
    <g transform="matrix(4.16667,0,0,4.16667,10.1542,45.3522)">
        <g>
            <g>
                <path d="M0,19.409C-1.537,16.524 -2.437,13.213 -2.437,9.718C-2.437,7.388 -2.041,5.163 -1.326,3.071C1.43,-5.03 9.108,-10.884 18.164,-10.884C22.217,-10.884 26,-9.718 29.18,-7.681C34.607,-4.237 38.314,1.669 38.711,8.473C35.455,10.513 31.906,12.366 28.254,13.928C25.764,14.96 23.221,15.888 20.68,16.655C18.295,17.344 15.701,17.899 12.949,18.35C10.193,18.774 7.281,19.065 4.342,19.252C2.885,19.33 1.43,19.383 0,19.409M38.738,10.432C38.369,21.475 29.285,30.293 18.164,30.293C10.988,30.293 4.66,26.637 0.979,21.051C2.118,21.024 3.283,20.97 4.422,20.918C7.414,20.735 10.379,20.442 13.213,19.992C16.045,19.541 18.721,18.959 21.129,18.244L21.156,18.244C23.752,17.475 26.346,16.548 28.889,15.464C32.303,14.008 35.641,12.311 38.738,10.432" style="fill:rgb(255,0,0);"/>
            </g>
        </g>
    </g>
</svg>
