<?xml version="1.0" encoding="UTF-8"?>
<svg id="b" data-name="Camada_2" xmlns="http://www.w3.org/2000/svg" xmlns:xlink="http://www.w3.org/1999/xlink" viewBox="0 0 533.97 49.3">
  <defs>
    <style>
      .k {
        fill: none;
      }

      .l {
        fill: url(#j);
      }

      .m {
        fill: url(#h);
      }

      .n {
        fill: url(#g);
      }

      .o {
        fill: url(#e);
      }

      .p {
        fill: url(#d);
      }

      .q {
        fill: #010101;
      }

      .r {
        fill: #e20e18;
      }

      .r, .s, .t, .u {
        fill-rule: evenodd;
      }

      .v {
        fill: #1d1d1b;
      }

      .s {
        fill: #1b9dd9;
      }

      .w {
        fill: #fff;
      }

      .t {
        fill: #3eab37;
      }

      .x {
        clip-path: url(#f);
      }

      .y {
        clip-path: url(#i);
      }

      .u {
        fill: #f39208;
      }
    </style>
    <linearGradient id="d" data-name="Gradiente sem nome 16" x1="503.42" y1="36.05" x2="503.42" y2=".59" gradientUnits="userSpaceOnUse">
      <stop offset="0" stop-color="#3dac4a"/>
      <stop offset="1" stop-color="#02445e"/>
    </linearGradient>
    <linearGradient id="e" data-name="Gradiente sem nome 12" x1="506.03" y1="18.34" x2="533.97" y2="18.34" gradientUnits="userSpaceOnUse">
      <stop offset="0" stop-color="#d45015"/>
      <stop offset="1" stop-color="#f39221"/>
    </linearGradient>
    <clipPath id="f">
      <path class="k" d="M493.61.48v35.68h19.62V.48h-19.62ZM513.17,8.92h-7.14V.6h7.14v8.33Z"/>
    </clipPath>
    <linearGradient id="g" data-name="Gradiente sem nome 16" x1="10.24" y1="38.17" x2="10.24" y2="2.71" xlink:href="#d"/>
    <linearGradient id="h" data-name="Gradiente sem nome 12" x1="12.85" y1="20.46" x2="40.8" y2="20.46" xlink:href="#e"/>
    <clipPath id="i">
      <path class="k" d="M.43,2.6v35.68h19.62V2.6H.43ZM20,11.04h-7.14V2.72h7.14v8.33Z"/>
    </clipPath>
    <linearGradient id="j" data-name="Gradiente sem nome 16" x1="10.24" y1="38.17" x2="10.24" y2="2.71" xlink:href="#d"/>
  </defs>
  <g id="c" data-name="Camada_1">
    <g>
      <g>
        <g>
          <g>
            <path class="p" d="M513.11.59v35.46h-9.51V12.81c-1.54,1.21-3.03,2.18-4.47,2.93-1.44.75-3.24,1.46-5.42,2.14v-7.94c3.2-1.06,5.69-2.34,7.46-3.83,1.77-1.49,3.16-3.33,4.16-5.52h7.78Z"/>
            <path class="o" d="M506.03.6h27.94v6.66c-2.43,2.26-4.46,4.7-6.09,7.33-1.97,3.19-3.53,6.75-4.68,10.67-.91,3.05-1.52,6.66-1.83,10.82h-9.54c.75-5.79,1.93-10.65,3.55-14.57,1.61-3.92,4.17-8.12,7.66-12.59h-17.02V.6Z"/>
            <g class="x">
              <path class="p" d="M513.11.59v35.46h-9.51V12.81c-1.54,1.21-3.03,2.18-4.47,2.93-1.44.75-3.24,1.46-5.42,2.14v-7.94c3.2-1.06,5.69-2.34,7.46-3.83,1.77-1.49,3.16-3.33,4.16-5.52h7.78Z"/>
            </g>
          </g>
          <g>
            <path class="w" d="M515.12,34.99v-1.47h-.37c-.17,0-.32.06-.43.18-.12.12-.18.26-.18.44s.06.32.18.43c.12.12.26.17.43.17.1,0,.19-.02.28-.07v.28c-.11.04-.21.06-.29.06-.24,0-.44-.08-.61-.25-.17-.17-.25-.37-.25-.62,0-.14.03-.27.09-.4.07-.15.18-.26.31-.34.13-.08.28-.12.45-.12h.66v1.72h-.26Z"/>
            <path class="w" d="M517.05,34v.99h-.26v-.98c0-.14-.04-.26-.13-.36-.09-.1-.2-.15-.34-.15s-.25.05-.34.15-.13.22-.13.36v.98h-.27v-1.72h.27v.18c.09-.07.17-.12.23-.15.08-.04.17-.05.27-.05.2,0,.37.07.51.22.14.15.21.32.21.53Z"/>
            <path class="w" d="M518.13,35.02c-.24,0-.46-.08-.63-.25s-.27-.38-.27-.62.09-.46.27-.63.39-.26.63-.26.46.09.64.26.27.38.27.63-.09.45-.27.62-.39.25-.64.25ZM518.13,33.51c-.18,0-.33.06-.45.18-.13.12-.19.27-.19.45,0,.18.07.32.19.44.13.12.28.18.45.18s.33-.06.45-.18c.13-.12.19-.27.19-.44,0-.18-.06-.32-.19-.45-.13-.12-.28-.18-.46-.18Z"/>
            <path class="w" d="M519.11,34.99v-.29h1.14c.07,0,.12-.02.17-.07s.07-.1.07-.17-.02-.12-.07-.17-.1-.07-.17-.07h-.69c-.18,0-.31-.08-.4-.23-.04-.07-.06-.16-.06-.24,0-.13.04-.24.13-.33.09-.09.2-.14.33-.14h1.16v.28h-1.15c-.05,0-.1.02-.14.06-.04.04-.06.09-.06.14s.02.1.06.14c.04.04.09.06.14.06h.7c.2,0,.35.09.45.26.04.08.07.17.07.26,0,.15-.05.28-.15.38-.1.1-.23.15-.37.15h-1.14Z"/>
          </g>
        </g>
        <g>
          <g>
            <path class="s" d="M494.36,23.62c-.03.3-.29.52-.59.52-.32,0-.59-.28-.59-.61s.25-.59.56-.61c.14.28.36.52.63.7"/>
            <path class="r" d="M496.26,24.02c.32.16.54.51.54.91,0,.56-.44,1.01-.98,1.01h-.03c.29-.33.44-1.08.47-1.92M495.84,23.92c.1,0,.2.02.31.05-.03.93-.2,1.76-.51,1.94-.03,0-.05-.02-.07-.02-.41-.12-.7-.51-.7-.96,0-.21.07-.4.17-.56.15-.28.46-.45.8-.45"/>
            <path class="t" d="M495.04,19.99c-.17.33-.49.54-.86.54-.54,0-.98-.45-.98-1.01,0-.28.1-.52.29-.72.34,0,.71.23,1.07.58.15.19.32.38.49.61M494.16,18.52c.54,0,.98.45.98,1.01,0,.1-.02.21-.05.31-.15-.21-.31-.38-.46-.56-.32-.33-.68-.54-1.02-.59.15-.1.34-.17.54-.17"/>
            <path class="u" d="M496.12,23.56c-.24.12-.51.21-.8.21-.19,0-.37-.03-.54-.09-.66-.23-1.15-.89-1.15-1.64,0-.35.1-.66.27-.93.29-.45.76-.77,1.32-.8.17.28.32.58.44.89.08.21.15.42.22.65.05.21.1.42.14.65s.05.47.07.73c.03.09.03.23.03.33M495.4,20.29c.9.03,1.63.8,1.63,1.75,0,.61-.31,1.14-.76,1.45,0-.1,0-.19-.02-.3-.02-.24-.03-.51-.07-.75-.03-.24-.08-.47-.14-.66h0c-.07-.23-.14-.44-.22-.65-.14-.3-.27-.58-.42-.84"/>
          </g>
          <g>
            <g>
              <path class="q" d="M499.5,35.65c-.4,0-.73-.15-.99-.44-.27-.29-.4-.64-.4-1.05v-1.11h3.7v.45h-.92v.69c0,.28-.07.54-.2.77s-.32.41-.55.54c-.2.11-.41.16-.63.16ZM498.56,33.49v.64c0,.29.09.54.27.74.18.2.41.3.68.3s.51-.1.7-.31.28-.45.28-.74v-.63h-1.92Z"/>
              <path class="q" d="M499.7,32.71h-1.59v-.46h1.57c.23,0,.43-.08.58-.23.16-.15.24-.35.24-.58s-.08-.43-.24-.59c-.16-.15-.35-.23-.58-.23h-1.57v-.47h2.77v.47h-.29c.12.15.19.28.24.4.06.14.09.29.09.46,0,.34-.12.63-.36.87-.24.24-.52.36-.86.36Z"/>
              <path class="q" d="M500.88,27.55h-2.38v.63c0,.29.09.54.28.74s.42.31.7.31.52-.1.7-.3c.19-.2.28-.45.28-.73,0-.17-.04-.33-.12-.48h.45c.06.19.09.36.09.5,0,.41-.14.76-.41,1.05-.27.29-.6.44-1,.44-.22,0-.44-.05-.64-.16-.24-.13-.42-.31-.55-.54s-.2-.49-.2-.77v-1.14h2.77v.44Z"/>
              <path class="q" d="M497.38,26.85v-.45h.73v-.99h.41v.99h1.37s.1-.01.18-.04c.08-.03.14-.05.17-.08.16-.12.24-.33.24-.63v-.34h.4s0,.12,0,.29c0,.13,0,.24,0,.32,0,.12-.03.21-.05.3-.05.19-.15.34-.31.45-.15.12-.32.17-.51.17h-2.64Z"/>
              <path class="q" d="M497.38,25.22v-.45h.73v-.99h.41v.99h1.37s.1-.01.18-.04c.08-.03.14-.05.17-.08.16-.12.24-.33.24-.63v-.34h.4s0,.12,0,.29c0,.13,0,.24,0,.32,0,.12-.03.21-.05.3-.05.19-.15.34-.31.45-.15.12-.32.17-.51.17h-2.64Z"/>
              <path class="q" d="M500.92,22.29c0,.42-.14.78-.41,1.09-.27.3-.61.46-1.01.46s-.74-.15-1.01-.46c-.28-.3-.42-.67-.42-1.09s.14-.79.42-1.1c.28-.31.62-.46,1.01-.46s.74.15,1.01.46c.27.31.41.67.41,1.1ZM498.48,22.29c0,.3.1.56.3.78.2.22.44.32.72.32.28,0,.52-.11.71-.33s.29-.47.29-.77-.1-.56-.29-.78c-.19-.22-.43-.33-.71-.33-.28,0-.52.11-.72.33-.2.22-.3.48-.3.78Z"/>
              <path class="q" d="M498.48,19.3c0,.24.08.43.24.58.16.15.35.23.59.23h1.58v.47h-2.77v-.47h.29c-.12-.15-.2-.29-.24-.4-.06-.14-.09-.29-.09-.46,0-.39.15-.71.44-.95l.21.4c-.16.16-.24.35-.24.59Z"/>
            </g>
            <g>
              <path class="q" d="M502.9,28.23h-.97v.26c0,.12.04.22.12.3.08.08.17.12.29.12s.21-.04.29-.12c.08-.08.11-.18.11-.3,0-.07-.02-.14-.05-.2h.18c.03.08.04.15.04.2,0,.17-.06.31-.17.43-.11.12-.25.18-.41.18-.09,0-.18-.02-.26-.07-.1-.05-.17-.13-.22-.22-.05-.09-.08-.2-.08-.31v-.46h1.13v.18Z"/>
              <path class="q" d="M502.09,26.9c-.11.11-.17.22-.17.35,0,.12.04.21.12.3.08.08.18.12.29.12s.21-.04.29-.12c.08-.08.12-.18.12-.3,0-.09-.02-.17-.07-.24-.05-.07-.11-.12-.19-.15l.12-.13c.21.11.31.28.31.49,0,.18-.05.33-.16.44-.11.12-.25.19-.42.19s-.3-.06-.42-.18-.17-.26-.17-.44c0-.21.08-.38.24-.49l.1.15Z"/>
              <path class="q" d="M502.9,25.77h-.97v.26c0,.12.04.22.12.3.08.08.17.12.29.12s.21-.04.29-.12c.08-.08.11-.18.11-.3,0-.07-.02-.14-.05-.2h.18c.03.08.04.15.04.2,0,.17-.06.31-.17.43-.11.12-.25.18-.41.18-.09,0-.18-.02-.26-.07-.1-.05-.17-.13-.22-.22-.05-.09-.08-.2-.08-.31v-.46h1.13v.18Z"/>
              <path class="q" d="M502.07,25.29c-.1-.05-.17-.13-.22-.22-.05-.09-.08-.2-.08-.31v-.28h-.3v-.18h1.43v.45c0,.17-.05.31-.16.43s-.24.18-.4.18c-.09,0-.18-.02-.26-.07ZM501.93,24.48v.26c0,.12.04.22.12.3.08.08.17.12.29.12s.21-.04.28-.12c.07-.08.11-.18.11-.3v-.26h-.79Z"/>
              <path class="q" d="M502.25,23.04c-.22.03-.33.18-.33.42,0,.12.04.23.12.32.08.09.18.13.29.13.11,0,.21-.04.29-.13.08-.08.12-.18.12-.3,0-.1-.02-.19-.05-.28-.04-.1-.1-.17-.18-.2l.12-.12c.09.05.16.13.21.24.05.1.07.21.07.34,0,.17-.06.32-.17.45s-.25.19-.41.19-.3-.06-.41-.19c-.11-.12-.17-.27-.17-.44,0-.19.04-.33.12-.44.1-.13.24-.19.44-.19.02,0,.05,0,.08,0v.89h-.14v-.69h0Z"/>
              <path class="q" d="M502.9,21.6v.18h-.64c-.09,0-.17.03-.24.09-.07.06-.1.14-.1.24s.03.18.1.24c.06.06.14.09.24.09h.64v.19h-1.13v-.19h.12c-.05-.06-.08-.12-.1-.16-.02-.06-.04-.12-.04-.19,0-.09.02-.17.06-.24.04-.07.09-.13.16-.18-.07-.05-.12-.12-.16-.19-.04-.08-.06-.16-.06-.24,0-.14.05-.26.15-.36s.21-.15.35-.15h.65v.19h-.64c-.09,0-.17.03-.24.09-.07.06-.1.14-.1.24s.03.18.1.24c.06.06.14.1.24.1h.65Z"/>
              <path class="q" d="M501.56,20.53s-.04,0-.06-.03c-.02-.02-.03-.04-.03-.06,0-.03,0-.05.03-.07.02-.02.04-.03.06-.03.03,0,.05,0,.06.03.02.02.03.04.03.07s0,.05-.03.06c-.02.02-.04.03-.06.03ZM502.9,20.34v.19h-1.15v-.19h1.15Z"/>
              <path class="q" d="M502.9,19.24h-.97v.26c0,.12.04.22.12.3.08.08.17.12.29.12s.21-.04.29-.12c.08-.08.11-.18.11-.3,0-.07-.02-.14-.05-.2h.18c.03.08.04.15.04.2,0,.17-.06.31-.17.43-.11.12-.25.18-.41.18-.09,0-.18-.02-.26-.07-.1-.05-.17-.13-.22-.22-.05-.09-.08-.2-.08-.31v-.46h1.13v.18Z"/>
            </g>
          </g>
        </g>
      </g>
      <g>
        <g>
          <g>
            <path class="n" d="M19.94,2.71v35.46h-9.51V14.93c-1.54,1.21-3.03,2.18-4.47,2.93-1.44.75-3.24,1.46-5.42,2.14v-7.94c3.2-1.06,5.69-2.34,7.46-3.83,1.77-1.49,3.16-3.33,4.16-5.52h7.78Z"/>
            <path class="m" d="M12.85,2.72h27.94v6.66c-2.43,2.26-4.46,4.7-6.09,7.33-1.97,3.19-3.53,6.75-4.68,10.67-.91,3.05-1.52,6.66-1.83,10.82h-9.54c.75-5.79,1.93-10.65,3.55-14.57,1.61-3.92,4.17-8.12,7.66-12.59H12.85V2.72Z"/>
            <g class="y">
              <path class="l" d="M19.94,2.71v35.46h-9.51V14.93c-1.54,1.21-3.03,2.18-4.47,2.93-1.44.75-3.24,1.46-5.42,2.14v-7.94c3.2-1.06,5.69-2.34,7.46-3.83,1.77-1.49,3.16-3.33,4.16-5.52h7.78Z"/>
            </g>
          </g>
          <g>
            <path class="w" d="M21.95,37.11v-1.47h-.37c-.17,0-.32.06-.43.18-.12.12-.18.26-.18.44s.06.32.18.43c.12.12.26.17.43.17.1,0,.19-.02.28-.07v.28c-.11.04-.21.06-.29.06-.24,0-.44-.08-.61-.25-.17-.17-.25-.37-.25-.62,0-.14.03-.27.09-.4.07-.15.18-.26.31-.34.13-.08.28-.12.45-.12h.66v1.72h-.26Z"/>
            <path class="w" d="M23.88,36.12v.99h-.26v-.98c0-.14-.04-.26-.13-.36-.09-.1-.2-.15-.34-.15s-.25.05-.34.15-.13.22-.13.36v.98h-.27v-1.72h.27v.18c.09-.07.17-.12.23-.15.08-.04.17-.05.27-.05.2,0,.37.07.51.22.14.15.21.32.21.53Z"/>
            <path class="w" d="M24.95,37.14c-.24,0-.46-.08-.63-.25s-.27-.38-.27-.62.09-.46.27-.63.39-.26.63-.26.46.09.64.26.27.38.27.63-.09.45-.27.62-.39.25-.64.25ZM24.95,35.63c-.18,0-.33.06-.45.18-.13.12-.19.27-.19.45,0,.18.07.32.19.44.13.12.28.18.45.18s.33-.06.45-.18c.13-.12.19-.27.19-.44,0-.18-.06-.32-.19-.45-.13-.12-.28-.18-.46-.18Z"/>
            <path class="w" d="M25.94,37.11v-.29h1.14c.07,0,.12-.02.17-.07s.07-.1.07-.17-.02-.12-.07-.17-.1-.07-.17-.07h-.69c-.18,0-.31-.08-.4-.23-.04-.07-.06-.16-.06-.24,0-.13.04-.24.13-.33.09-.09.2-.14.33-.14h1.16v.28h-1.15c-.05,0-.1.02-.14.06-.04.04-.06.09-.06.14s.02.1.06.14c.04.04.09.06.14.06h.7c.2,0,.35.09.45.26.04.08.07.17.07.26,0,.15-.05.28-.15.38-.1.1-.23.15-.37.15h-1.14Z"/>
          </g>
        </g>
        <g>
          <g>
            <path class="s" d="M1.19,25.74c-.03.3-.29.52-.59.52-.32,0-.59-.28-.59-.61s.25-.59.56-.61c.14.28.36.52.63.7"/>
            <path class="r" d="M3.09,26.14c.32.16.54.51.54.91,0,.56-.44,1.01-.98,1.01h-.03c.29-.33.44-1.08.47-1.92M2.67,26.04c.1,0,.2.02.31.05-.03.93-.2,1.76-.51,1.94-.03,0-.05-.02-.07-.02-.41-.12-.7-.51-.7-.96,0-.21.07-.4.17-.56.15-.28.46-.45.8-.45"/>
            <path class="t" d="M1.87,22.11c-.17.33-.49.54-.86.54-.54,0-.98-.45-.98-1.01,0-.28.1-.52.29-.72.34,0,.71.23,1.07.58.15.19.32.38.49.61M.99,20.64c.54,0,.98.45.98,1.01,0,.1-.02.21-.05.31-.15-.21-.31-.38-.46-.56-.32-.33-.68-.54-1.02-.59.15-.1.34-.17.54-.17"/>
            <path class="u" d="M2.95,25.68c-.24.12-.51.21-.8.21-.19,0-.37-.03-.54-.09-.66-.23-1.15-.89-1.15-1.64,0-.35.1-.66.27-.93.29-.45.76-.77,1.32-.8.17.28.32.58.44.89.08.21.15.42.22.65.05.21.1.42.14.65s.05.47.07.73c.03.09.03.23.03.33M2.22,22.41c.9.03,1.63.8,1.63,1.75,0,.61-.31,1.14-.76,1.45,0-.1,0-.19-.02-.3-.02-.24-.03-.51-.07-.75-.03-.24-.08-.47-.14-.66h0c-.07-.23-.14-.44-.22-.65-.14-.3-.27-.58-.42-.84"/>
          </g>
          <g>
            <g>
              <path class="q" d="M6.33,37.77c-.4,0-.73-.15-.99-.44-.27-.29-.4-.64-.4-1.05v-1.11h3.7v.45h-.92v.69c0,.28-.07.54-.2.77s-.32.41-.55.54c-.2.11-.41.16-.63.16ZM5.38,35.61v.64c0,.29.09.54.27.74.18.2.41.3.68.3s.51-.1.7-.31.28-.45.28-.74v-.63h-1.92Z"/>
              <path class="q" d="M6.53,34.83h-1.59v-.46h1.57c.23,0,.43-.08.58-.23.16-.15.24-.35.24-.58s-.08-.43-.24-.59c-.16-.15-.35-.23-.58-.23h-1.57v-.47h2.77v.47h-.29c.12.15.19.28.24.4.06.14.09.29.09.46,0,.34-.12.63-.36.87-.24.24-.52.36-.86.36Z"/>
              <path class="q" d="M7.71,29.67h-2.38v.63c0,.29.09.54.28.74s.42.31.7.31.52-.1.7-.3c.19-.2.28-.45.28-.73,0-.17-.04-.33-.12-.48h.45c.06.19.09.36.09.5,0,.41-.14.76-.41,1.05-.27.29-.6.44-1,.44-.22,0-.44-.05-.64-.16-.24-.13-.42-.31-.55-.54s-.2-.49-.2-.77v-1.14h2.77v.44Z"/>
              <path class="q" d="M4.2,28.97v-.45h.73v-.99h.41v.99h1.37s.1-.01.18-.04c.08-.03.14-.05.17-.08.16-.12.24-.33.24-.63v-.34h.4s0,.12,0,.29c0,.13,0,.24,0,.32,0,.12-.03.21-.05.3-.05.19-.15.34-.31.45-.15.12-.32.17-.51.17h-2.64Z"/>
              <path class="q" d="M4.2,27.34v-.45h.73v-.99h.41v.99h1.37s.1-.01.18-.04c.08-.03.14-.05.17-.08.16-.12.24-.33.24-.63v-.34h.4s0,.12,0,.29c0,.13,0,.24,0,.32,0,.12-.03.21-.05.3-.05.19-.15.34-.31.45-.15.12-.32.17-.51.17h-2.64Z"/>
              <path class="q" d="M7.75,24.41c0,.42-.14.78-.41,1.09-.27.3-.61.46-1.01.46s-.74-.15-1.01-.46c-.28-.3-.42-.67-.42-1.09s.14-.79.42-1.1c.28-.31.62-.46,1.01-.46s.74.15,1.01.46c.27.31.41.67.41,1.1ZM5.31,24.41c0,.3.1.56.3.78.2.22.44.32.72.32.28,0,.52-.11.71-.33s.29-.47.29-.77-.1-.56-.29-.78c-.19-.22-.43-.33-.71-.33-.28,0-.52.11-.72.33-.2.22-.3.48-.3.78Z"/>
              <path class="q" d="M5.31,21.42c0,.24.08.43.24.58.16.15.35.23.59.23h1.58v.47h-2.77v-.47h.29c-.12-.15-.2-.29-.24-.4-.06-.14-.09-.29-.09-.46,0-.39.15-.71.44-.95l.21.4c-.16.16-.24.35-.24.59Z"/>
            </g>
            <g>
              <path class="q" d="M9.73,30.35h-.97v.26c0,.12.04.22.12.3.08.08.17.12.29.12s.21-.04.29-.12c.08-.08.11-.18.11-.3,0-.07-.02-.14-.05-.2h.18c.03.08.04.15.04.2,0,.17-.06.31-.17.43-.11.12-.25.18-.41.18-.09,0-.18-.02-.26-.07-.1-.05-.17-.13-.22-.22-.05-.09-.08-.2-.08-.31v-.46h1.13v.18Z"/>
              <path class="q" d="M8.91,29.03c-.11.11-.17.22-.17.35,0,.12.04.21.12.3.08.08.18.12.29.12s.21-.04.29-.12c.08-.08.12-.18.12-.3,0-.09-.02-.17-.07-.24-.05-.07-.11-.12-.19-.15l.12-.13c.21.11.31.28.31.49,0,.18-.05.33-.16.44-.11.12-.25.19-.42.19s-.3-.06-.42-.18-.17-.26-.17-.44c0-.21.08-.38.24-.49l.1.15Z"/>
              <path class="q" d="M9.73,27.89h-.97v.26c0,.12.04.22.12.3.08.08.17.12.29.12s.21-.04.29-.12c.08-.08.11-.18.11-.3,0-.07-.02-.14-.05-.2h.18c.03.08.04.15.04.2,0,.17-.06.31-.17.43-.11.12-.25.18-.41.18-.09,0-.18-.02-.26-.07-.1-.05-.17-.13-.22-.22-.05-.09-.08-.2-.08-.31v-.46h1.13v.18Z"/>
              <path class="q" d="M8.9,27.42c-.1-.05-.17-.13-.22-.22-.05-.09-.08-.2-.08-.31v-.28h-.3v-.18h1.43v.45c0,.17-.05.31-.16.43s-.24.18-.4.18c-.09,0-.18-.02-.26-.07ZM8.76,26.6v.26c0,.12.04.22.12.3.08.08.17.12.29.12s.21-.04.28-.12c.07-.08.11-.18.11-.3v-.26h-.79Z"/>
              <path class="q" d="M9.07,25.16c-.22.03-.33.18-.33.42,0,.12.04.23.12.32.08.09.18.13.29.13.11,0,.21-.04.29-.13.08-.08.12-.18.12-.3,0-.1-.02-.19-.05-.28-.04-.1-.1-.17-.18-.2l.12-.12c.09.05.16.13.21.24.05.1.07.21.07.34,0,.17-.06.32-.17.45s-.25.19-.41.19-.3-.06-.41-.19c-.11-.12-.17-.27-.17-.44,0-.19.04-.33.12-.44.1-.13.24-.19.44-.19.02,0,.05,0,.08,0v.89h-.14v-.69h0Z"/>
              <path class="q" d="M9.73,23.72v.18h-.64c-.09,0-.17.03-.24.09-.07.06-.1.14-.1.24s.03.18.1.24c.06.06.14.09.24.09h.64v.19h-1.13v-.19h.12c-.05-.06-.08-.12-.1-.16-.02-.06-.04-.12-.04-.19,0-.09.02-.17.06-.24.04-.07.09-.13.16-.18-.07-.05-.12-.12-.16-.19-.04-.08-.06-.16-.06-.24,0-.14.05-.26.15-.36s.21-.15.35-.15h.65v.19h-.64c-.09,0-.17.03-.24.09-.07.06-.1.14-.1.24s.03.18.1.24c.06.06.14.1.24.1h.65Z"/>
              <path class="q" d="M8.39,22.65s-.04,0-.06-.03c-.02-.02-.03-.04-.03-.06,0-.03,0-.05.03-.07.02-.02.04-.03.06-.03.03,0,.05,0,.06.03.02.02.03.04.03.07s0,.05-.03.06c-.02.02-.04.03-.06.03ZM9.73,22.47v.19h-1.15v-.19h1.15Z"/>
              <path class="q" d="M9.73,21.36h-.97v.26c0,.12.04.22.12.3.08.08.17.12.29.12s.21-.04.29-.12c.08-.08.11-.18.11-.3,0-.07-.02-.14-.05-.2h.18c.03.08.04.15.04.2,0,.17-.06.31-.17.43-.11.12-.25.18-.41.18-.09,0-.18-.02-.26-.07-.1-.05-.17-.13-.22-.22-.05-.09-.08-.2-.08-.31v-.46h1.13v.18Z"/>
            </g>
          </g>
        </g>
      </g>
      <g>
        <path class="v" d="M46.62,26.29l6.31-.56c.14,1.45.42,2.55.83,3.31.68,1.23,1.66,1.84,2.93,1.84.95,0,1.68-.31,2.19-.94.51-.63.77-1.35.77-2.18s-.24-1.49-.73-2.11c-.49-.62-1.62-1.21-3.4-1.76-2.91-.92-4.99-2.15-6.23-3.68-1.25-1.53-1.88-3.48-1.88-5.85,0-1.56.32-3.03.96-4.41s1.6-2.47,2.89-3.27c1.28-.79,3.04-1.19,5.28-1.19,2.74,0,4.84.72,6.28,2.16,1.44,1.44,2.3,3.73,2.57,6.87l-6.26.52c-.17-1.36-.52-2.36-1.05-2.98-.53-.62-1.27-.93-2.21-.93-.77,0-1.35.23-1.74.69s-.59,1.02-.59,1.68c0,.48.16.92.48,1.3.31.4,1.06.77,2.23,1.12,2.9.88,4.98,1.77,6.23,2.68s2.17,2.02,2.74,3.36c.57,1.34.86,2.83.86,4.49,0,1.94-.38,3.73-1.14,5.37-.76,1.64-1.83,2.88-3.19,3.73-1.37.85-3.09,1.27-5.17,1.27-3.65,0-6.18-.99-7.59-2.98-1.41-1.98-2.2-4.51-2.39-7.56Z"/>
        <path class="v" d="M69.43,6.02h17.79v6.47h-11.14v4.82h10.33v6.18h-10.33v5.97h11.46v6.86h-18.11V6.02Z"/>
        <path class="v" d="M91.04,6.02h8.73l3.37,18.44,3.34-18.44h8.72v30.3h-5.44V13.21l-4.19,23.11h-4.92l-4.18-23.11v23.11h-5.44V6.02Z"/>
        <path class="v" d="M132.65,31.32h-7.54l-1.05,5h-6.78l8.07-30.3h7.24l8.07,30.3h-6.95l-1.07-5ZM131.27,24.76l-2.37-10.89-2.35,10.89h4.72Z"/>
        <path class="v" d="M142.82,6.02h6.2l8.09,16.76V6.02h6.26v30.3h-6.26l-8.04-16.64v16.64h-6.24V6.02Z"/>
        <path class="v" d="M180.69,31.32h-7.54l-1.05,5h-6.78l8.07-30.3h7.24l8.07,30.3h-6.95l-1.07-5ZM179.31,24.76l-2.37-10.89-2.35,10.89h4.72Z"/>
        <path class="v" d="M210.12,30.66h-10.87v-6.92l10.87-18.23h5.2v18.62h2.7v6.53h-2.7v5.66h-5.2v-5.66ZM210.12,24.12v-9.54l-5.74,9.54h5.74Z"/>
        <path class="v" d="M230.88,6.02h6.64v10.6h7.25V6.02h6.67v30.3h-6.67v-12.26h-7.25v12.26h-6.64V6.02Z"/>
        <path class="v" d="M256.11,6.02h6.65v30.3h-6.65V6.02Z"/>
        <path class="v" d="M267.5,6.02h11.03c2.4,0,4.2.81,5.4,2.42s1.79,3.91,1.79,6.88-.65,5.45-1.96,7.17c-1.3,1.72-3.29,2.58-5.97,2.58h-3.63v11.24h-6.67V6.02ZM274.16,18.94h1.63c1.28,0,2.18-.31,2.7-.94s.78-1.43.78-2.41-.22-1.76-.67-2.42-1.29-.99-2.53-.99h-1.89v6.76Z"/>
        <path class="v" d="M289.18,6.02h17.79v6.47h-11.14v4.82h10.33v6.18h-10.33v5.97h11.46v6.86h-18.11V6.02Z"/>
        <path class="v" d="M310.95,36.32V6.02h11.06c2.05,0,3.62.25,4.7.74,1.08.5,1.96,1.42,2.62,2.76.66,1.34,1,2.98,1,4.91,0,1.68-.25,3.13-.76,4.35-.51,1.22-1.21,2.21-2.1,2.97-.57.48-1.34.88-2.33,1.2.79.37,1.37.75,1.73,1.12.24.25.6.78,1.06,1.59.46.81.77,1.44.93,1.88l3.21,8.78h-7.5l-3.55-9.26c-.45-1.2-.85-1.98-1.2-2.34-.48-.47-1.02-.7-1.63-.7h-.59v12.3h-6.67ZM317.62,18.29h2.8c.3,0,.89-.14,1.76-.41.44-.12.8-.44,1.08-.95s.42-1.1.42-1.76c0-.98-.22-1.73-.66-2.25-.44-.52-1.26-.79-2.48-.79h-2.92v6.16Z"/>
        <path class="v" d="M332.43,6.02h20.18v7.48h-6.77v22.82h-6.64V13.5h-6.77v-7.48Z"/>
        <path class="v" d="M355.7,36.32V6.02h11.06c2.05,0,3.62.25,4.7.74,1.08.5,1.96,1.42,2.62,2.76.66,1.34,1,2.98,1,4.91,0,1.68-.25,3.13-.76,4.35-.51,1.22-1.21,2.21-2.1,2.97-.57.48-1.34.88-2.33,1.2.79.37,1.37.75,1.73,1.12.24.25.6.78,1.06,1.59.46.81.77,1.44.93,1.88l3.21,8.78h-7.5l-3.55-9.26c-.45-1.2-.85-1.98-1.2-2.34-.48-.47-1.02-.7-1.63-.7h-.59v12.3h-6.67ZM362.37,18.29h2.8c.3,0,.89-.14,1.76-.41.44-.12.8-.44,1.08-.95s.42-1.1.42-1.76c0-.98-.22-1.73-.66-2.25-.44-.52-1.26-.79-2.48-.79h-2.92v6.16Z"/>
        <path class="v" d="M377.61,21.19c0-4.95.98-8.8,2.93-11.55,1.95-2.76,4.67-4.13,8.16-4.13s6.33,1.35,8.26,4.06c1.93,2.71,2.9,6.5,2.9,11.38,0,3.54-.42,6.45-1.27,8.71s-2.07,4.03-3.66,5.29c-1.6,1.26-3.59,1.89-5.97,1.89s-4.43-.54-6.01-1.63c-1.59-1.09-2.87-2.81-3.86-5.17-.99-2.36-1.48-5.3-1.48-8.85ZM384.24,21.23c0,3.06.4,5.26,1.21,6.59.81,1.34,1.9,2,3.29,2s2.53-.65,3.31-1.96c.78-1.31,1.17-3.66,1.17-7.05,0-2.85-.41-4.94-1.22-6.25-.82-1.32-1.92-1.97-3.32-1.97s-2.41.67-3.22,2c-.81,1.34-1.22,3.55-1.22,6.63Z"/>
        <path class="v" d="M403.47,6.02h16.41v6.51h-9.74v5.29h8.32v6.12h-8.32v12.38h-6.67V6.02Z"/>
        <path class="v" d="M423.72,6.02h6.65v30.3h-6.65V6.02Z"/>
        <path class="v" d="M448.33,31.32h-7.54l-1.05,5h-6.78l8.07-30.3h7.24l8.07,30.3h-6.95l-1.07-5ZM446.96,24.76l-2.37-10.89-2.35,10.89h4.72Z"/>
        <path class="v" d="M473.3,14.78l-5.64-1.43c.47-2.54,1.37-4.48,2.7-5.83,1.33-1.35,3.22-2.03,5.66-2.03,2.8,0,4.83.74,6.08,2.21,1.25,1.47,1.88,3.33,1.88,5.56,0,1.31-.25,2.49-.76,3.55-.51,1.06-1.27,1.99-2.3,2.79.83.29,1.46.63,1.9,1.01.71.62,1.27,1.44,1.66,2.45s.59,2.22.59,3.63c0,1.76-.33,3.46-.98,5.07s-1.6,2.87-2.83,3.74c-1.23.88-2.85,1.31-4.85,1.31s-3.49-.32-4.62-.97-2.06-1.59-2.78-2.84-1.29-2.81-1.68-4.7l5.96-1.12c.23,1.7.6,2.87,1.09,3.52s1.12.98,1.88.98c.8,0,1.47-.41,2-1.24.53-.83.8-1.93.8-3.31s-.26-2.49-.77-3.27c-.51-.77-1.21-1.16-2.09-1.16-.47,0-1.11.17-1.93.5l.31-6.01c.33.07.59.1.78.1.78,0,1.43-.35,1.96-1.05.52-.7.78-1.54.78-2.5s-.2-1.66-.59-2.21c-.39-.55-.93-.83-1.61-.83s-1.27.3-1.71.9-.74,1.65-.89,3.15Z"/>
      </g>
    </g>
  </g>
</svg>