<?xml version="1.0" encoding="UTF-8"?>
<svg id="b" data-name="Camada 2" xmlns="http://www.w3.org/2000/svg" viewBox="0 0 582.05 50.02">
  <defs>
    <style>
      .d {
        fill: #079cd9;
      }

      .d, .e, .f, .g, .h {
        stroke-width: 0px;
      }

      .d, .f, .g, .h {
        fill-rule: evenodd;
      }

      .e {
        fill: #000;
      }

      .f {
        fill: #f29120;
      }

      .g {
        fill: #e41f26;
      }

      .h {
        fill: #3daa48;
      }
    </style>
  </defs>
  <g id="c" data-name="Camada 1">
    <g>
      <g>
        <path class="e" d="M84.78,40.58v-7.33h14.92c1.52,0,2.39-1.36,2.39-3.52,0-2.3-.87-3.62-2.39-3.62h-8.94c-3.89,0-6.28-4.04-6.28-9.82s2.23-9.87,6.33-9.87h14.29v7.33h-14.29c-1.2,0-1.93,1.17-1.93,3.29s.76,3.29,1.93,3.29h8.89c4.16,0,6.39,3.2,6.39,10.01,0,5.87-2.09,10.25-6.39,10.25h-14.92Z"/>
        <path class="e" d="M108.78,40.58V6.41h17.94v7.33h-13.72v19.5h13.75v7.33h-17.96ZM115.47,26.1v-5.78h10.49v5.78h-10.49Z"/>
        <path class="e" d="M153.79,40.58l-3.23-21.57-5.27,19.32c-.49,1.74-1.11,2.73-2.15,2.73s-1.69-.99-2.15-2.73l-5.25-19.32-3.21,21.57h-4.16l4.84-31.63c.3-1.97.98-2.96,2.07-2.96.87,0,1.69.89,2.12,2.44l5.87,21.71,5.87-21.71c.41-1.55,1.11-2.44,2.01-2.44,1.03,0,1.71.99,2.01,2.96l4.81,31.63h-4.19Z"/>
        <path class="e" d="M180.1,40.58l-2.77-8.08h-8.34l1.93-5.69h4.46l-3.61-10.53-8.29,24.3h-4.81l11.22-32.29c.49-1.41,1.11-2.35,2.04-2.35s1.55.94,2.04,2.35l11.22,32.29h-5.08Z"/>
        <path class="e" d="M190.97,17.83v22.75h-4.02V10.31c0-2.68.82-4.32,2.12-4.32.62,0,1.11.38,1.71,1.36l12.94,21.48V6.08h4.05v30.6c0,2.73-.87,4.37-2.12,4.37-.65,0-1.17-.42-1.74-1.41l-12.94-21.81Z"/>
        <path class="e" d="M230.95,40.58l-2.77-8.08h-8.34l1.93-5.69h4.46l-3.61-10.53-8.29,24.3h-4.81l11.22-32.29c.49-1.41,1.11-2.35,2.04-2.35s1.55.94,2.04,2.35l11.22,32.29h-5.08Z"/>
        <path class="e" d="M246.01,40.58v-7.33h14.92c1.49,0,2.36-1.36,2.36-3.52,0-2.3-.87-3.62-2.36-3.62h-14.92V6.41h20.33v7.33h-15.95v6.58h10.54c4.13,0,6.36,3.2,6.36,10.01,0,5.87-2.09,10.25-6.36,10.25h-14.92Z"/>
        <path class="e" d="M278.28,40.67V6.41h4.24v34.26h-4.24ZM293.71,40.67v-14.29h-8.75v-6.3h8.75V6.41h4.24v34.26h-4.24Z"/>
        <path class="e" d="M301.3,40.58V6.41h4.24v34.17h-4.24Z"/>
        <path class="e" d="M315.57,31.37v-7.1h7.36c2.07,0,3.29-2.12,3.29-5.26s-1.22-5.26-3.29-5.26h-9.84v26.83h-4.21V6.41h14.05c4.67,0,7.42,4.79,7.42,12.36s-2.74,12.6-7.42,12.6h-7.36Z"/>
        <path class="e" d="M332.53,40.58V6.41h17.94v7.33h-13.72v19.5h13.75v7.33h-17.96ZM339.21,26.1v-5.78h10.49v5.78h-10.49Z"/>
        <path class="e" d="M370.82,40.58l-4.81-9.31h-6.14v-6.25h7.66c2.07,0,3.21-2.12,3.21-5.73s-1.2-5.54-3.21-5.54h-10.14v26.83h-4.21V6.41h14.35c4.62,0,7.37,4.93,7.37,12.69,0,5.59-1.52,9.49-4,11.19l5.92,10.29h-6.01Z"/>
        <path class="e" d="M384.44,40.58V13.74h-7.26v-7.33h18.75v7.33h-7.26v26.83h-4.24Z"/>
        <path class="e" d="M415.59,40.58l-4.81-9.31h-6.14v-6.25h7.66c2.07,0,3.21-2.12,3.21-5.73s-1.2-5.54-3.21-5.54h-10.14v26.83h-4.21V6.41h14.35c4.62,0,7.37,4.93,7.37,12.69,0,5.59-1.52,9.49-4,11.19l5.92,10.29h-6.01Z"/>
        <path class="e" d="M432.3,40.58c-5.62,0-9.76-7.52-9.76-17.44s4.13-16.73,9.76-16.73h4.89c5.82,0,9.84,6.81,9.84,16.73s-4.13,17.44-9.84,17.44h-4.89ZM437.2,33.24c3.29,0,5.6-4.09,5.6-9.73s-2.31-9.78-5.6-9.78h-4.89c-3.18,0-5.52,4.09-5.52,9.78s2.31,9.73,5.52,9.73h4.89Z"/>
        <path class="e" d="M449.56,40.58V6.41h17.04v7.33h-12.83v26.83h-4.21ZM456.25,26.99v-6.2h9.54v6.2h-9.54Z"/>
        <path class="e" d="M468.92,40.58V6.41h4.24v34.17h-4.24Z"/>
        <path class="e" d="M496.61,40.58l-2.77-8.08h-8.34l1.93-5.69h4.46l-3.61-10.53-8.29,24.3h-4.81l11.22-32.29c.49-1.41,1.11-2.35,2.04-2.35s1.55.94,2.04,2.35l11.22,32.29h-5.08Z"/>
      </g>
      <path class="d" d="M20.21,14.86c-2.6-.37-4.62-2.62-4.62-5.34,0-2.96,2.41-5.38,5.38-5.38s5.23,2.25,5.38,5.09c-2.5,1.31-4.64,3.25-6.14,5.63"/>
      <path class="g" d="M17.63,28.13c0,.94-.16,1.84-.41,2.68-8.16-.26-15.38-1.8-17-4.56.04-.24.1-.47.18-.69,1.1-3.62,4.46-6.24,8.43-6.24,1.84,0,3.54.57,4.95,1.53,2.33,1.58,3.86,4.24,3.86,7.28M16.73,32.01c-1.43,2.92-4.44,4.93-7.9,4.93-4.87,0-8.83-3.95-8.83-8.81,0-.1.02-.2.02-.29,2.74,2.45,9.37,3.85,16.71,4.17"/>
      <path class="h" d="M64.77,13.18c0,4.87-3.95,8.81-8.8,8.81-.96,0-1.86-.14-2.72-.43,1.8-1.33,3.42-2.74,4.83-4.19,2.84-2.93,4.73-6.07,5.2-9.08.94,1.39,1.49,3.07,1.49,4.89M51.91,21.01c-2.84-1.47-4.75-4.42-4.75-7.83,0-4.85,3.93-8.81,8.81-8.81,2.41,0,4.6.98,6.18,2.54-.04,3.11-1.92,6.44-4.97,9.59-1.51,1.57-3.29,3.07-5.26,4.5"/>
      <path class="f" d="M49.31,24.2c-.27,8.16-6.99,14.68-15.2,14.68-5.3,0-9.98-2.7-12.7-6.83.84-.02,1.7-.06,2.54-.1,2.21-.14,4.4-.35,6.5-.68,2.09-.33,4.07-.76,5.85-1.29h.02c1.92-.57,3.84-1.25,5.71-2.06,2.52-1.08,4.99-2.33,7.28-3.72M20.68,30.83c-1.14-2.13-1.8-4.58-1.8-7.16,0-1.72.29-3.37.82-4.91,2.04-5.99,7.71-10.31,14.4-10.31,3,0,5.79.86,8.14,2.37,4.01,2.54,6.75,6.91,7.04,11.94-2.41,1.51-5.03,2.88-7.73,4.03-1.84.76-3.72,1.45-5.6,2.01-1.76.51-3.68.92-5.71,1.25-2.04.31-4.19.53-6.36.67-1.08.06-2.15.1-3.21.12"/>
      <path class="d" d="M537.5,14.86c-2.6-.37-4.62-2.62-4.62-5.34,0-2.96,2.41-5.38,5.38-5.38s5.22,2.25,5.38,5.09c-2.51,1.31-4.64,3.25-6.15,5.63"/>
      <path class="g" d="M534.91,28.13c0,.94-.15,1.84-.41,2.68-8.16-.26-15.38-1.8-17-4.56.04-.24.09-.47.17-.69,1.1-3.62,4.46-6.24,8.43-6.24,1.84,0,3.54.57,4.95,1.53,2.33,1.58,3.85,4.24,3.85,7.28M534.01,32.01c-1.43,2.92-4.44,4.93-7.91,4.93-4.87,0-8.82-3.95-8.82-8.81,0-.1.02-.2.02-.29,2.74,2.45,9.38,3.85,16.71,4.17"/>
      <path class="h" d="M582.05,13.18c0,4.87-3.95,8.81-8.81,8.81-.96,0-1.86-.14-2.72-.43,1.8-1.33,3.42-2.74,4.83-4.19,2.84-2.93,4.73-6.07,5.2-9.08.94,1.39,1.49,3.07,1.49,4.89M569.2,21.01c-2.84-1.47-4.76-4.42-4.76-7.83,0-4.85,3.93-8.81,8.81-8.81,2.41,0,4.6.98,6.19,2.54-.04,3.11-1.92,6.44-4.97,9.59-1.51,1.57-3.28,3.07-5.26,4.5"/>
      <path class="f" d="M566.59,24.2c-.27,8.16-6.99,14.68-15.21,14.68-5.3,0-9.98-2.7-12.7-6.83.84-.02,1.71-.06,2.55-.1,2.21-.14,4.4-.35,6.49-.68,2.09-.33,4.07-.76,5.85-1.29h.02c1.92-.57,3.84-1.25,5.72-2.06,2.52-1.08,4.99-2.33,7.28-3.72M537.97,30.83c-1.14-2.13-1.8-4.58-1.8-7.16,0-1.72.29-3.37.82-4.91,2.04-5.99,7.71-10.31,14.4-10.31,3,0,5.79.86,8.14,2.37,4.01,2.54,6.75,6.91,7.05,11.94-2.41,1.51-5.03,2.88-7.73,4.03-1.84.76-3.72,1.45-5.6,2.01-1.76.51-3.68.92-5.71,1.25-2.04.31-4.19.53-6.36.67-1.08.06-2.15.1-3.21.12"/>
    </g>
  </g>
</svg>