<?xml version="1.0" encoding="UTF-8"?>
<svg id="Camada_2" data-name="Camada 2" xmlns="http://www.w3.org/2000/svg" viewBox="0 0 582.05 34.73">
  <defs>
    <style>
      .cls-1 {
        fill: #3daa48;
      }

      .cls-1, .cls-2, .cls-3, .cls-4 {
        fill-rule: evenodd;
        stroke-width: 0px;
      }

      .cls-2 {
        fill: #079cd9;
      }

      .cls-3 {
        fill: #e41f26;
      }

      .cls-4 {
        fill: #f29120;
      }

      .cls-5 {
        font-family: DozerTwo, 'Dozer Two';
        font-size: 32.82px;
      }
    </style>
  </defs>
  <g id="Camada_1-2" data-name="Camada 1">
    <g>
      <text class="cls-5" transform="translate(74.5 30.5) scale(.71 1)"><tspan x="0" y="0">SEMANA DA hipertrofia 2</tspan></text>
      <path class="cls-2" d="m20.21,10.72c-2.6-.37-4.62-2.62-4.62-5.34,0-2.96,2.41-5.38,5.38-5.38s5.23,2.25,5.38,5.09c-2.5,1.31-4.64,3.25-6.14,5.63"/>
      <path class="cls-3" d="m17.63,23.99c0,.94-.16,1.84-.41,2.68-8.16-.26-15.38-1.8-17-4.56.04-.24.1-.47.18-.69,1.1-3.62,4.46-6.24,8.43-6.24,1.84,0,3.54.57,4.95,1.53,2.33,1.58,3.86,4.24,3.86,7.28m-.9,3.88c-1.43,2.92-4.44,4.93-7.9,4.93-4.87,0-8.83-3.95-8.83-8.81,0-.1.02-.2.02-.29,2.74,2.45,9.37,3.85,16.71,4.17"/>
      <path class="cls-1" d="m64.77,9.04c0,4.87-3.95,8.81-8.8,8.81-.96,0-1.86-.14-2.72-.43,1.8-1.33,3.42-2.74,4.83-4.19,2.84-2.93,4.73-6.07,5.2-9.08.94,1.39,1.49,3.07,1.49,4.89m-12.86,7.83c-2.84-1.47-4.75-4.42-4.75-7.83,0-4.85,3.93-8.81,8.81-8.81,2.41,0,4.6.98,6.18,2.54-.04,3.11-1.92,6.44-4.97,9.59-1.51,1.57-3.29,3.07-5.26,4.5"/>
      <path class="cls-4" d="m49.31,20.06c-.27,8.16-6.99,14.68-15.2,14.68-5.3,0-9.98-2.7-12.7-6.83.84-.02,1.7-.06,2.54-.1,2.21-.14,4.4-.35,6.5-.68,2.09-.33,4.07-.76,5.85-1.29h.02c1.92-.57,3.84-1.25,5.71-2.06,2.52-1.08,4.99-2.33,7.28-3.72m-28.63,6.63c-1.14-2.13-1.8-4.58-1.8-7.16,0-1.72.29-3.37.82-4.91,2.04-5.99,7.71-10.31,14.4-10.31,3,0,5.79.86,8.14,2.37,4.01,2.54,6.75,6.91,7.04,11.94-2.41,1.51-5.03,2.88-7.73,4.03-1.84.76-3.72,1.45-5.6,2.01-1.76.51-3.68.92-5.71,1.25-2.04.31-4.19.53-6.36.67-1.08.06-2.15.1-3.21.12"/>
      <path class="cls-2" d="m537.5,10.72c-2.6-.37-4.62-2.62-4.62-5.34,0-2.96,2.41-5.38,5.38-5.38s5.22,2.25,5.38,5.09c-2.51,1.31-4.64,3.25-6.15,5.63"/>
      <path class="cls-3" d="m534.91,23.99c0,.94-.15,1.84-.41,2.68-8.16-.26-15.38-1.8-17-4.56.04-.24.09-.47.17-.69,1.1-3.62,4.46-6.24,8.43-6.24,1.84,0,3.54.57,4.95,1.53,2.33,1.58,3.85,4.24,3.85,7.28m-.9,3.88c-1.43,2.92-4.44,4.93-7.91,4.93-4.87,0-8.82-3.95-8.82-8.81,0-.1.02-.2.02-.29,2.74,2.45,9.38,3.85,16.71,4.17"/>
      <path class="cls-1" d="m582.05,9.04c0,4.87-3.95,8.81-8.81,8.81-.96,0-1.86-.14-2.72-.43,1.8-1.33,3.42-2.74,4.83-4.19,2.84-2.93,4.73-6.07,5.2-9.08.94,1.39,1.49,3.07,1.49,4.89m-12.85,7.83c-2.84-1.47-4.76-4.42-4.76-7.83,0-4.85,3.93-8.81,8.81-8.81,2.41,0,4.6.98,6.19,2.54-.04,3.11-1.92,6.44-4.97,9.59-1.51,1.57-3.28,3.07-5.26,4.5"/>
      <path class="cls-4" d="m566.59,20.06c-.27,8.16-6.99,14.68-15.21,14.68-5.3,0-9.98-2.7-12.7-6.83.84-.02,1.71-.06,2.55-.1,2.21-.14,4.4-.35,6.49-.68,2.09-.33,4.07-.76,5.85-1.29h.02c1.92-.57,3.84-1.25,5.72-2.06,2.52-1.08,4.99-2.33,7.28-3.72m-28.63,6.63c-1.14-2.13-1.8-4.58-1.8-7.16,0-1.72.29-3.37.82-4.91,2.04-5.99,7.71-10.31,14.4-10.31,3,0,5.79.86,8.14,2.37,4.01,2.54,6.75,6.91,7.05,11.94-2.41,1.51-5.03,2.88-7.73,4.03-1.84.76-3.72,1.45-5.6,2.01-1.76.51-3.68.92-5.71,1.25-2.04.31-4.19.53-6.36.67-1.08.06-2.15.1-3.21.12"/>
    </g>
  </g>
</svg>