<?xml version="1.0" encoding="UTF-8"?>
<svg id="b" data-name="Camada 2" xmlns="http://www.w3.org/2000/svg" viewBox="0 0 582.05 50.02">
  <defs>
    <style>
      .d {
        fill: #079cd9;
      }

      .d, .e, .f, .g, .h {
        stroke-width: 0px;
      }

      .d, .f, .g, .h {
        fill-rule: evenodd;
      }

      .e {
        fill: #000;
      }

      .f {
        fill: #f29120;
      }

      .g {
        fill: #e41f26;
      }

      .h {
        fill: #3daa48;
      }
    </style>
  </defs>
  <g id="c" data-name="Camada 1">
    <g>
      <g>
        <path class="e" d="M80.71,40.58v-7.33h14.26c1.45,0,2.29-1.36,2.29-3.53,0-2.3-.83-3.62-2.29-3.62h-8.54c-3.71,0-6-4.04-6-9.82s2.13-9.87,6.05-9.87h13.66v7.33h-13.66c-1.14,0-1.84,1.17-1.84,3.29s.73,3.29,1.84,3.29h8.49c3.97,0,6.1,3.2,6.1,10.01,0,5.87-2,10.25-6.1,10.25h-14.26Z"/>
        <path class="e" d="M103.64,40.58V6.41h17.14v7.33h-13.12v19.5h13.14v7.33h-17.17ZM110.03,26.1v-5.78h10.02v5.78h-10.02Z"/>
        <path class="e" d="M146.65,40.58l-3.09-21.57-5.04,19.32c-.47,1.74-1.06,2.73-2.05,2.73s-1.61-.99-2.05-2.73l-5.01-19.32-3.06,21.57h-3.97l4.62-31.63c.29-1.97.94-2.96,1.97-2.96.83,0,1.61.89,2.03,2.44l5.61,21.71,5.61-21.71c.39-1.55,1.06-2.44,1.92-2.44.99,0,1.64.99,1.92,2.96l4.6,31.63h-4Z"/>
        <path class="e" d="M171.79,40.58l-2.65-8.08h-7.97l1.84-5.69h4.26l-3.45-10.53-7.92,24.3h-4.6l10.73-32.29c.47-1.41,1.06-2.35,1.95-2.35s1.48.94,1.95,2.35l10.73,32.29h-4.86Z"/>
        <path class="e" d="M182.17,17.83v22.75h-3.84V10.31c0-2.68.78-4.32,2.03-4.32.6,0,1.06.38,1.64,1.36l12.36,21.48V6.08h3.87v30.6c0,2.73-.83,4.37-2.03,4.37-.62,0-1.12-.42-1.66-1.41l-12.36-21.81Z"/>
        <path class="e" d="M220.37,40.58l-2.65-8.08h-7.97l1.84-5.69h4.26l-3.45-10.53-7.92,24.3h-4.6l10.73-32.29c.47-1.41,1.06-2.35,1.95-2.35s1.48.94,1.95,2.35l10.73,32.29h-4.86Z"/>
        <path class="e" d="M242.91,40.58c-5.4,0-8.7-5.73-8.7-17.44s3.3-16.73,8.7-16.73h11.04v7.33h-11.04c-2.52,0-4.08,1.93-4.52,6.58h10.54c3.64,0,5.79,3.05,5.79,9.73s-2.21,10.53-5.79,10.53h-6.02ZM238.34,26.1c.36,5.03,1.9,7.14,4.57,7.14h5.64c1.53,0,2.31-1.36,2.31-3.71s-.75-3.43-2.31-3.43h-10.21Z"/>
        <path class="e" d="M265.24,40.67V6.41h4.05v34.26h-4.05ZM279.99,40.67v-14.29h-8.36v-6.3h8.36V6.41h4.05v34.26h-4.05Z"/>
        <path class="e" d="M287.24,40.58V6.41h4.05v34.17h-4.05Z"/>
        <path class="e" d="M300.87,31.36v-7.1h7.04c1.97,0,3.14-2.12,3.14-5.26s-1.17-5.26-3.14-5.26h-9.4v26.83h-4.03V6.41h13.43c4.47,0,7.09,4.79,7.09,12.36s-2.62,12.59-7.09,12.59h-7.04Z"/>
        <path class="e" d="M317.07,40.58V6.41h17.14v7.33h-13.12v19.5h13.14v7.33h-17.17ZM323.46,26.1v-5.78h10.03v5.78h-10.03Z"/>
        <path class="e" d="M353.67,40.58l-4.6-9.31h-5.87v-6.25h7.32c1.97,0,3.06-2.12,3.06-5.73s-1.14-5.54-3.06-5.54h-9.69v26.83h-4.03V6.41h13.71c4.42,0,7.04,4.93,7.04,12.69,0,5.59-1.45,9.49-3.82,11.19l5.66,10.29h-5.74Z"/>
        <path class="e" d="M366.67,40.58V13.74h-6.93v-7.33h17.92v7.33h-6.93v26.83h-4.05Z"/>
        <path class="e" d="M396.43,40.58l-4.6-9.31h-5.87v-6.25h7.32c1.97,0,3.06-2.12,3.06-5.73s-1.14-5.54-3.06-5.54h-9.69v26.83h-4.03V6.41h13.71c4.42,0,7.04,4.93,7.04,12.69,0,5.59-1.45,9.49-3.82,11.19l5.66,10.29h-5.74Z"/>
        <path class="e" d="M412.4,40.58c-5.38,0-9.32-7.52-9.32-17.44s3.95-16.73,9.32-16.73h4.67c5.56,0,9.4,6.81,9.4,16.73s-3.95,17.44-9.4,17.44h-4.67ZM417.08,33.25c3.14,0,5.35-4.09,5.35-9.73s-2.21-9.78-5.35-9.78h-4.67c-3.04,0-5.27,4.09-5.27,9.78s2.21,9.73,5.27,9.73h4.67Z"/>
        <path class="e" d="M428.89,40.58V6.41h16.28v7.33h-12.26v26.83h-4.03ZM435.28,26.99v-6.2h9.12v6.2h-9.12Z"/>
        <path class="e" d="M447.38,40.58V6.41h4.05v34.17h-4.05Z"/>
        <path class="e" d="M473.84,40.58l-2.65-8.08h-7.97l1.84-5.69h4.26l-3.45-10.53-7.92,24.3h-4.6l10.73-32.29c.47-1.41,1.06-2.35,1.95-2.35s1.48.94,1.95,2.35l10.73,32.29h-4.86Z"/>
        <path class="e" d="M501.58,40.58v-9.12h-7.22c-4.18,0-6.52-3.57-6.52-11.33V6.41h4.05v13.68c0,3.34.7,4.37,2.49,4.37h7.19V6.41h4.03v18.05h2.62v7h-2.62v9.12h-4.03Z"/>
      </g>
      <path class="d" d="M20.21,14.86c-2.6-.37-4.62-2.62-4.62-5.34,0-2.96,2.41-5.38,5.38-5.38s5.23,2.25,5.38,5.09c-2.5,1.31-4.64,3.25-6.14,5.63"/>
      <path class="g" d="M17.63,28.13c0,.94-.16,1.84-.41,2.68-8.16-.26-15.38-1.8-17-4.56.04-.24.1-.47.18-.69,1.1-3.62,4.46-6.24,8.43-6.24,1.84,0,3.54.57,4.95,1.53,2.33,1.58,3.86,4.24,3.86,7.28M16.73,32.01c-1.43,2.92-4.44,4.93-7.9,4.93-4.87,0-8.83-3.95-8.83-8.81,0-.1.02-.2.02-.29,2.74,2.45,9.37,3.85,16.71,4.17"/>
      <path class="h" d="M64.77,13.18c0,4.87-3.95,8.81-8.8,8.81-.96,0-1.86-.14-2.72-.43,1.8-1.33,3.42-2.74,4.83-4.19,2.84-2.93,4.73-6.07,5.2-9.08.94,1.39,1.49,3.07,1.49,4.89M51.91,21.01c-2.84-1.47-4.75-4.42-4.75-7.83,0-4.85,3.93-8.81,8.81-8.81,2.41,0,4.6.98,6.18,2.54-.04,3.11-1.92,6.44-4.97,9.59-1.51,1.57-3.29,3.07-5.26,4.5"/>
      <path class="f" d="M49.31,24.2c-.27,8.16-6.99,14.68-15.2,14.68-5.3,0-9.98-2.7-12.7-6.83.84-.02,1.7-.06,2.54-.1,2.21-.14,4.4-.35,6.5-.68,2.09-.33,4.07-.76,5.85-1.29h.02c1.92-.57,3.84-1.25,5.71-2.06,2.52-1.08,4.99-2.33,7.28-3.72M20.68,30.83c-1.14-2.13-1.8-4.58-1.8-7.16,0-1.72.29-3.37.82-4.91,2.04-5.99,7.71-10.31,14.4-10.31,3,0,5.79.86,8.14,2.37,4.01,2.54,6.75,6.91,7.04,11.94-2.41,1.51-5.03,2.88-7.73,4.03-1.84.76-3.72,1.45-5.6,2.01-1.76.51-3.68.92-5.71,1.25-2.04.31-4.19.53-6.36.67-1.08.06-2.15.1-3.21.12"/>
      <path class="d" d="M537.5,14.86c-2.6-.37-4.62-2.62-4.62-5.34,0-2.96,2.41-5.38,5.38-5.38s5.22,2.25,5.38,5.09c-2.51,1.31-4.64,3.25-6.15,5.63"/>
      <path class="g" d="M534.91,28.13c0,.94-.15,1.84-.41,2.68-8.16-.26-15.38-1.8-17-4.56.04-.24.09-.47.17-.69,1.1-3.62,4.46-6.24,8.43-6.24,1.84,0,3.54.57,4.95,1.53,2.33,1.58,3.85,4.24,3.85,7.28M534.01,32.01c-1.43,2.92-4.44,4.93-7.91,4.93-4.87,0-8.82-3.95-8.82-8.81,0-.1.02-.2.02-.29,2.74,2.45,9.38,3.85,16.71,4.17"/>
      <path class="h" d="M582.05,13.18c0,4.87-3.95,8.81-8.81,8.81-.96,0-1.86-.14-2.72-.43,1.8-1.33,3.42-2.74,4.83-4.19,2.84-2.93,4.73-6.07,5.2-9.08.94,1.39,1.49,3.07,1.49,4.89M569.2,21.01c-2.84-1.47-4.76-4.42-4.76-7.83,0-4.85,3.93-8.81,8.81-8.81,2.41,0,4.6.98,6.19,2.54-.04,3.11-1.92,6.44-4.97,9.59-1.51,1.57-3.28,3.07-5.26,4.5"/>
      <path class="f" d="M566.59,24.2c-.27,8.16-6.99,14.68-15.21,14.68-5.3,0-9.98-2.7-12.7-6.83.84-.02,1.71-.06,2.55-.1,2.21-.14,4.4-.35,6.49-.68,2.09-.33,4.07-.76,5.85-1.29h.02c1.92-.57,3.84-1.25,5.72-2.06,2.52-1.08,4.99-2.33,7.28-3.72M537.97,30.83c-1.14-2.13-1.8-4.58-1.8-7.16,0-1.72.29-3.37.82-4.91,2.04-5.99,7.71-10.31,14.4-10.31,3,0,5.79.86,8.14,2.37,4.01,2.54,6.75,6.91,7.05,11.94-2.41,1.51-5.03,2.88-7.73,4.03-1.84.76-3.72,1.45-5.6,2.01-1.76.51-3.68.92-5.71,1.25-2.04.31-4.19.53-6.36.67-1.08.06-2.15.1-3.21.12"/>
    </g>
  </g>
</svg>