<?xml version="1.0" encoding="UTF-8"?>
<svg id="b" data-name="Camada 2" xmlns="http://www.w3.org/2000/svg" xmlns:xlink="http://www.w3.org/1999/xlink" viewBox="0 0 533.97 38.55">
  <defs>
    <style>
      .k {
        fill: #010101;
      }

      .k, .l, .m, .n, .o, .p, .q, .r, .s, .t, .u, .v, .w {
        stroke-width: 0px;
      }

      .l {
        fill: none;
      }

      .m {
        fill: #1d1d1b;
      }

      .n {
        fill: #f39208;
      }

      .n, .o, .p, .r {
        fill-rule: evenodd;
      }

      .o {
        fill: #e20e18;
      }

      .x {
        clip-path: url(#i);
      }

      .y {
        clip-path: url(#f);
      }

      .p {
        fill: #3eab37;
      }

      .q {
        fill: #fff;
      }

      .r {
        fill: #1b9dd9;
      }

      .s {
        fill: url(#e);
      }

      .t {
        fill: url(#d);
      }

      .u {
        fill: url(#j);
      }

      .v {
        fill: url(#h);
      }

      .w {
        fill: url(#g);
      }
    </style>
    <linearGradient id="d" data-name="Gradiente sem nome 16" x1="503.42" y1="36.31" x2="503.42" y2=".86" gradientUnits="userSpaceOnUse">
      <stop offset="0" stop-color="#3dac4a"/>
      <stop offset="1" stop-color="#02445e"/>
    </linearGradient>
    <linearGradient id="e" data-name="Gradiente sem nome 12" x1="506.03" y1="18.61" x2="533.97" y2="18.61" gradientUnits="userSpaceOnUse">
      <stop offset="0" stop-color="#d45015"/>
      <stop offset="1" stop-color="#f39221"/>
    </linearGradient>
    <clipPath id="f">
      <path class="l" d="M493.61.75v35.68h19.62V.75h-19.62ZM513.17,9.19h-7.14V.87h7.14v8.33Z"/>
    </clipPath>
    <linearGradient id="g" data-name="Gradiente sem nome 16" x1="10.24" y1="38.44" x2="10.24" y2="2.98" xlink:href="#d"/>
    <linearGradient id="h" data-name="Gradiente sem nome 12" x1="12.85" y1="20.73" x2="40.8" y2="20.73" xlink:href="#e"/>
    <clipPath id="i">
      <path class="l" d="M.43,2.87v35.68h19.62V2.87H.43ZM20,11.31h-7.14V2.99h7.14v8.33Z"/>
    </clipPath>
    <linearGradient id="j" data-name="Gradiente sem nome 16" x1="10.24" y1="38.44" x2="10.24" y2="2.98" xlink:href="#d"/>
  </defs>
  <g id="c" data-name="Camada 1">
    <g>
      <g>
        <g>
          <g>
            <path class="t" d="M513.11.86v35.46h-9.51V13.08c-1.54,1.21-3.03,2.18-4.47,2.93-1.44.75-3.24,1.46-5.42,2.14v-7.94c3.2-1.06,5.69-2.34,7.46-3.83,1.77-1.49,3.16-3.33,4.16-5.52h7.78Z"/>
            <path class="s" d="M506.03.87h27.94v6.66c-2.43,2.26-4.46,4.7-6.09,7.33-1.97,3.19-3.53,6.75-4.68,10.67-.91,3.05-1.52,6.66-1.83,10.82h-9.54c.75-5.79,1.93-10.65,3.55-14.57,1.61-3.92,4.17-8.12,7.66-12.59h-17.02V.87Z"/>
            <g class="y">
              <path class="t" d="M513.11.86v35.46h-9.51V13.08c-1.54,1.21-3.03,2.18-4.47,2.93-1.44.75-3.24,1.46-5.42,2.14v-7.94c3.2-1.06,5.69-2.34,7.46-3.83,1.77-1.49,3.16-3.33,4.16-5.52h7.78Z"/>
            </g>
          </g>
          <g>
            <path class="q" d="M515.12,35.26v-1.47h-.37c-.17,0-.32.06-.43.18-.12.12-.18.26-.18.44s.06.32.18.43c.12.12.26.17.43.17.1,0,.19-.02.28-.07v.28c-.11.04-.21.06-.29.06-.24,0-.44-.08-.61-.25-.17-.17-.25-.37-.25-.62,0-.14.03-.27.09-.4.07-.15.18-.26.31-.34.13-.08.28-.12.45-.12h.66v1.72h-.26Z"/>
            <path class="q" d="M517.05,34.27v.99h-.26v-.98c0-.14-.04-.26-.13-.36-.09-.1-.2-.15-.34-.15s-.25.05-.34.15-.13.22-.13.36v.98h-.27v-1.72h.27v.18c.09-.07.17-.12.23-.15.08-.04.17-.05.27-.05.2,0,.37.07.51.22.14.15.21.32.21.53Z"/>
            <path class="q" d="M518.13,35.28c-.24,0-.46-.08-.63-.25s-.27-.38-.27-.62.09-.46.27-.63.39-.26.63-.26.46.09.64.26.27.38.27.63-.09.45-.27.62-.39.25-.64.25ZM518.13,33.77c-.18,0-.33.06-.45.18-.13.12-.19.27-.19.45,0,.18.07.32.19.44.13.12.28.18.45.18s.33-.06.45-.18c.13-.12.19-.27.19-.44,0-.18-.06-.32-.19-.45-.13-.12-.28-.18-.46-.18Z"/>
            <path class="q" d="M519.11,35.26v-.29h1.14c.07,0,.12-.02.17-.07s.07-.1.07-.17-.02-.12-.07-.17-.1-.07-.17-.07h-.69c-.18,0-.31-.08-.4-.23-.04-.07-.06-.16-.06-.24,0-.13.04-.24.13-.33.09-.09.2-.14.33-.14h1.16v.28h-1.15c-.05,0-.1.02-.14.06-.04.04-.06.09-.06.14s.02.1.06.14c.04.04.09.06.14.06h.7c.2,0,.35.09.45.26.04.08.07.17.07.26,0,.15-.05.28-.15.38-.1.1-.23.15-.37.15h-1.14Z"/>
          </g>
        </g>
        <g>
          <g>
            <path class="r" d="M494.36,23.89c-.03.3-.29.52-.59.52-.32,0-.59-.28-.59-.61s.25-.59.56-.61c.14.28.36.52.63.7"/>
            <path class="o" d="M496.26,24.29c.32.16.54.51.54.91,0,.56-.44,1.01-.98,1.01h-.03c.29-.33.44-1.08.47-1.92M495.84,24.19c.1,0,.2.02.31.05-.03.93-.2,1.76-.51,1.94-.03,0-.05-.02-.07-.02-.41-.12-.7-.51-.7-.96,0-.21.07-.4.17-.56.15-.28.46-.45.8-.45"/>
            <path class="p" d="M495.04,20.25c-.17.33-.49.54-.86.54-.54,0-.98-.45-.98-1.01,0-.28.1-.52.29-.72.34,0,.71.23,1.07.58.15.19.32.38.49.61M494.16,18.79c.54,0,.98.45.98,1.01,0,.1-.02.21-.05.31-.15-.21-.31-.38-.46-.56-.32-.33-.68-.54-1.02-.59.15-.1.34-.17.54-.17"/>
            <path class="n" d="M496.12,23.83c-.24.12-.51.21-.8.21-.19,0-.37-.03-.54-.09-.66-.23-1.15-.89-1.15-1.64,0-.35.1-.66.27-.93.29-.45.76-.77,1.32-.8.17.28.32.58.44.89.08.21.15.42.22.65.05.21.1.42.14.65s.05.47.07.73c.03.09.03.23.03.33M495.4,20.56c.9.03,1.63.8,1.63,1.75,0,.61-.31,1.14-.76,1.45,0-.1,0-.19-.02-.3-.02-.24-.03-.51-.07-.75-.03-.24-.08-.47-.14-.66h0c-.07-.23-.14-.44-.22-.65-.14-.3-.27-.58-.42-.84"/>
          </g>
          <g>
            <g>
              <path class="k" d="M499.5,35.92c-.4,0-.73-.15-.99-.44-.27-.29-.4-.64-.4-1.05v-1.11h3.7v.45h-.92v.69c0,.28-.07.54-.2.77s-.32.41-.55.54c-.2.11-.41.16-.63.16ZM498.56,33.76v.64c0,.29.09.54.27.74.18.2.41.3.68.3s.51-.1.7-.31.28-.45.28-.74v-.63h-1.92Z"/>
              <path class="k" d="M499.7,32.98h-1.59v-.46h1.57c.23,0,.43-.08.58-.23.16-.15.24-.35.24-.58s-.08-.43-.24-.59c-.16-.15-.35-.23-.58-.23h-1.57v-.47h2.77v.47h-.29c.12.15.19.28.24.4.06.14.09.29.09.46,0,.34-.12.63-.36.87-.24.24-.52.36-.86.36Z"/>
              <path class="k" d="M500.88,27.82h-2.38v.63c0,.29.09.54.28.74s.42.31.7.31.52-.1.7-.3c.19-.2.28-.45.28-.73,0-.17-.04-.33-.12-.48h.45c.06.19.09.36.09.5,0,.41-.14.76-.41,1.05-.27.29-.6.44-1,.44-.22,0-.44-.05-.64-.16-.24-.13-.42-.31-.55-.54s-.2-.49-.2-.77v-1.14h2.77v.44Z"/>
              <path class="k" d="M497.38,27.12v-.45h.73v-.99h.41v.99h1.37s.1-.01.18-.04c.08-.03.14-.05.17-.08.16-.12.24-.33.24-.63v-.34h.4s0,.12,0,.29c0,.13,0,.24,0,.32,0,.12-.03.21-.05.3-.05.19-.15.34-.31.45-.15.12-.32.17-.51.17h-2.64Z"/>
              <path class="k" d="M497.38,25.49v-.45h.73v-.99h.41v.99h1.37s.1-.01.18-.04c.08-.03.14-.05.17-.08.16-.12.24-.33.24-.63v-.34h.4s0,.12,0,.29c0,.13,0,.24,0,.32,0,.12-.03.21-.05.3-.05.19-.15.34-.31.45-.15.12-.32.17-.51.17h-2.64Z"/>
              <path class="k" d="M500.92,22.56c0,.42-.14.78-.41,1.09-.27.3-.61.46-1.01.46s-.74-.15-1.01-.46c-.28-.3-.42-.67-.42-1.09s.14-.79.42-1.1c.28-.31.62-.46,1.01-.46s.74.15,1.01.46c.27.31.41.67.41,1.1ZM498.48,22.56c0,.3.1.56.3.78.2.22.44.32.72.32.28,0,.52-.11.71-.33s.29-.47.29-.77-.1-.56-.29-.78c-.19-.22-.43-.33-.71-.33-.28,0-.52.11-.72.33-.2.22-.3.48-.3.78Z"/>
              <path class="k" d="M498.48,19.56c0,.24.08.43.24.58.16.15.35.23.59.23h1.58v.47h-2.77v-.47h.29c-.12-.15-.2-.29-.24-.4-.06-.14-.09-.29-.09-.46,0-.39.15-.71.44-.95l.21.4c-.16.16-.24.35-.24.59Z"/>
            </g>
            <g>
              <path class="k" d="M502.9,28.5h-.97v.26c0,.12.04.22.12.3.08.08.17.12.29.12s.21-.04.29-.12c.08-.08.11-.18.11-.3,0-.07-.02-.14-.05-.2h.18c.03.08.04.15.04.2,0,.17-.06.31-.17.43-.11.12-.25.18-.41.18-.09,0-.18-.02-.26-.07-.1-.05-.17-.13-.22-.22-.05-.09-.08-.2-.08-.31v-.46h1.13v.18Z"/>
              <path class="k" d="M502.09,27.17c-.11.11-.17.22-.17.35,0,.12.04.21.12.3.08.08.18.12.29.12s.21-.04.29-.12c.08-.08.12-.18.12-.3,0-.09-.02-.17-.07-.24-.05-.07-.11-.12-.19-.15l.12-.13c.21.11.31.28.31.49,0,.18-.05.33-.16.44-.11.12-.25.19-.42.19s-.3-.06-.42-.18-.17-.26-.17-.44c0-.21.08-.38.24-.49l.1.15Z"/>
              <path class="k" d="M502.9,26.04h-.97v.26c0,.12.04.22.12.3.08.08.17.12.29.12s.21-.04.29-.12c.08-.08.11-.18.11-.3,0-.07-.02-.14-.05-.2h.18c.03.08.04.15.04.2,0,.17-.06.31-.17.43-.11.12-.25.18-.41.18-.09,0-.18-.02-.26-.07-.1-.05-.17-.13-.22-.22-.05-.09-.08-.2-.08-.31v-.46h1.13v.18Z"/>
              <path class="k" d="M502.07,25.56c-.1-.05-.17-.13-.22-.22-.05-.09-.08-.2-.08-.31v-.28h-.3v-.18h1.43v.45c0,.17-.05.31-.16.43s-.24.18-.4.18c-.09,0-.18-.02-.26-.07ZM501.93,24.75v.26c0,.12.04.22.12.3.08.08.17.12.29.12s.21-.04.28-.12c.07-.08.11-.18.11-.3v-.26h-.79Z"/>
              <path class="k" d="M502.25,23.31c-.22.03-.33.18-.33.42,0,.12.04.23.12.32.08.09.18.13.29.13.11,0,.21-.04.29-.13.08-.08.12-.18.12-.3,0-.1-.02-.19-.05-.28-.04-.1-.1-.17-.18-.2l.12-.12c.09.05.16.13.21.24.05.1.07.21.07.34,0,.17-.06.32-.17.45s-.25.19-.41.19-.3-.06-.41-.19c-.11-.12-.17-.27-.17-.44,0-.19.04-.33.12-.44.1-.13.24-.19.44-.19.02,0,.05,0,.08,0v.89h-.14v-.69h0Z"/>
              <path class="k" d="M502.9,21.87v.18h-.64c-.09,0-.17.03-.24.09-.07.06-.1.14-.1.24s.03.18.1.24c.06.06.14.09.24.09h.64v.19h-1.13v-.19h.12c-.05-.06-.08-.12-.1-.16-.02-.06-.04-.12-.04-.19,0-.09.02-.17.06-.24.04-.07.09-.13.16-.18-.07-.05-.12-.12-.16-.19-.04-.08-.06-.16-.06-.24,0-.14.05-.26.15-.36s.21-.15.35-.15h.65v.19h-.64c-.09,0-.17.03-.24.09-.07.06-.1.14-.1.24s.03.18.1.24c.06.06.14.1.24.1h.65Z"/>
              <path class="k" d="M501.56,20.8s-.04,0-.06-.03c-.02-.02-.03-.04-.03-.06,0-.03,0-.05.03-.07.02-.02.04-.03.06-.03.03,0,.05,0,.06.03.02.02.03.04.03.07s0,.05-.03.06c-.02.02-.04.03-.06.03ZM502.9,20.61v.19h-1.15v-.19h1.15Z"/>
              <path class="k" d="M502.9,19.51h-.97v.26c0,.12.04.22.12.3.08.08.17.12.29.12s.21-.04.29-.12c.08-.08.11-.18.11-.3,0-.07-.02-.14-.05-.2h.18c.03.08.04.15.04.2,0,.17-.06.31-.17.43-.11.12-.25.18-.41.18-.09,0-.18-.02-.26-.07-.1-.05-.17-.13-.22-.22-.05-.09-.08-.2-.08-.31v-.46h1.13v.18Z"/>
            </g>
          </g>
        </g>
      </g>
      <g>
        <g>
          <g>
            <path class="w" d="M19.94,2.98v35.46h-9.51V15.2c-1.54,1.21-3.03,2.18-4.47,2.93-1.44.75-3.24,1.46-5.42,2.14v-7.94c3.2-1.06,5.69-2.34,7.46-3.83,1.77-1.49,3.16-3.33,4.16-5.52h7.78Z"/>
            <path class="v" d="M12.85,2.99h27.94v6.66c-2.43,2.26-4.46,4.7-6.09,7.33-1.97,3.19-3.53,6.75-4.68,10.67-.91,3.05-1.52,6.66-1.83,10.82h-9.54c.75-5.79,1.93-10.65,3.55-14.57,1.61-3.92,4.17-8.12,7.66-12.59H12.85V2.99Z"/>
            <g class="x">
              <path class="u" d="M19.94,2.98v35.46h-9.51V15.2c-1.54,1.21-3.03,2.18-4.47,2.93-1.44.75-3.24,1.46-5.42,2.14v-7.94c3.2-1.06,5.69-2.34,7.46-3.83,1.77-1.49,3.16-3.33,4.16-5.52h7.78Z"/>
            </g>
          </g>
          <g>
            <path class="q" d="M21.95,37.38v-1.47h-.37c-.17,0-.32.06-.43.18-.12.12-.18.26-.18.44s.06.32.18.43c.12.12.26.17.43.17.1,0,.19-.02.28-.07v.28c-.11.04-.21.06-.29.06-.24,0-.44-.08-.61-.25-.17-.17-.25-.37-.25-.62,0-.14.03-.27.09-.4.07-.15.18-.26.31-.34.13-.08.28-.12.45-.12h.66v1.72h-.26Z"/>
            <path class="q" d="M23.88,36.39v.99h-.26v-.98c0-.14-.04-.26-.13-.36-.09-.1-.2-.15-.34-.15s-.25.05-.34.15-.13.22-.13.36v.98h-.27v-1.72h.27v.18c.09-.07.17-.12.23-.15.08-.04.17-.05.27-.05.2,0,.37.07.51.22.14.15.21.32.21.53Z"/>
            <path class="q" d="M24.95,37.41c-.24,0-.46-.08-.63-.25s-.27-.38-.27-.62.09-.46.27-.63.39-.26.63-.26.46.09.64.26.27.38.27.63-.09.45-.27.62-.39.25-.64.25ZM24.95,35.9c-.18,0-.33.06-.45.18-.13.12-.19.27-.19.45,0,.18.07.32.19.44.13.12.28.18.45.18s.33-.06.45-.18c.13-.12.19-.27.19-.44,0-.18-.06-.32-.19-.45-.13-.12-.28-.18-.46-.18Z"/>
            <path class="q" d="M25.94,37.38v-.29h1.14c.07,0,.12-.02.17-.07s.07-.1.07-.17-.02-.12-.07-.17-.1-.07-.17-.07h-.69c-.18,0-.31-.08-.4-.23-.04-.07-.06-.16-.06-.24,0-.13.04-.24.13-.33.09-.09.2-.14.33-.14h1.16v.28h-1.15c-.05,0-.1.02-.14.06-.04.04-.06.09-.06.14s.02.1.06.14c.04.04.09.06.14.06h.7c.2,0,.35.09.45.26.04.08.07.17.07.26,0,.15-.05.28-.15.38-.1.1-.23.15-.37.15h-1.14Z"/>
          </g>
        </g>
        <g>
          <g>
            <path class="r" d="M1.19,26.01c-.03.3-.29.52-.59.52-.32,0-.59-.28-.59-.61s.25-.59.56-.61c.14.28.36.52.63.7"/>
            <path class="o" d="M3.09,26.41c.32.16.54.51.54.91,0,.56-.44,1.01-.98,1.01h-.03c.29-.33.44-1.08.47-1.92M2.67,26.31c.1,0,.2.02.31.05-.03.93-.2,1.76-.51,1.94-.03,0-.05-.02-.07-.02-.41-.12-.7-.51-.7-.96,0-.21.07-.4.17-.56.15-.28.46-.45.8-.45"/>
            <path class="p" d="M1.87,22.38c-.17.33-.49.54-.86.54-.54,0-.98-.45-.98-1.01,0-.28.1-.52.29-.72.34,0,.71.23,1.07.58.15.19.32.38.49.61M.99,20.91c.54,0,.98.45.98,1.01,0,.1-.02.21-.05.31-.15-.21-.31-.38-.46-.56-.32-.33-.68-.54-1.02-.59.15-.1.34-.17.54-.17"/>
            <path class="n" d="M2.95,25.95c-.24.12-.51.21-.8.21-.19,0-.37-.03-.54-.09-.66-.23-1.15-.89-1.15-1.64,0-.35.1-.66.27-.93.29-.45.76-.77,1.32-.8.17.28.32.58.44.89.08.21.15.42.22.65.05.21.1.42.14.65s.05.47.07.73c.03.09.03.23.03.33M2.22,22.68c.9.03,1.63.8,1.63,1.75,0,.61-.31,1.14-.76,1.45,0-.1,0-.19-.02-.3-.02-.24-.03-.51-.07-.75-.03-.24-.08-.47-.14-.66h0c-.07-.23-.14-.44-.22-.65-.14-.3-.27-.58-.42-.84"/>
          </g>
          <g>
            <g>
              <path class="k" d="M6.33,38.04c-.4,0-.73-.15-.99-.44-.27-.29-.4-.64-.4-1.05v-1.11h3.7v.45h-.92v.69c0,.28-.07.54-.2.77s-.32.41-.55.54c-.2.11-.41.16-.63.16ZM5.38,35.88v.64c0,.29.09.54.27.74.18.2.41.3.68.3s.51-.1.7-.31.28-.45.28-.74v-.63h-1.92Z"/>
              <path class="k" d="M6.53,35.1h-1.59v-.46h1.57c.23,0,.43-.08.58-.23.16-.15.24-.35.24-.58s-.08-.43-.24-.59c-.16-.15-.35-.23-.58-.23h-1.57v-.47h2.77v.47h-.29c.12.15.19.28.24.4.06.14.09.29.09.46,0,.34-.12.63-.36.87-.24.24-.52.36-.86.36Z"/>
              <path class="k" d="M7.71,29.94h-2.38v.63c0,.29.09.54.28.74s.42.31.7.31.52-.1.7-.3c.19-.2.28-.45.28-.73,0-.17-.04-.33-.12-.48h.45c.06.19.09.36.09.5,0,.41-.14.76-.41,1.05-.27.29-.6.44-1,.44-.22,0-.44-.05-.64-.16-.24-.13-.42-.31-.55-.54s-.2-.49-.2-.77v-1.14h2.77v.44Z"/>
              <path class="k" d="M4.2,29.24v-.45h.73v-.99h.41v.99h1.37s.1-.01.18-.04c.08-.03.14-.05.17-.08.16-.12.24-.33.24-.63v-.34h.4s0,.12,0,.29c0,.13,0,.24,0,.32,0,.12-.03.21-.05.3-.05.19-.15.34-.31.45-.15.12-.32.17-.51.17h-2.64Z"/>
              <path class="k" d="M4.2,27.61v-.45h.73v-.99h.41v.99h1.37s.1-.01.18-.04c.08-.03.14-.05.17-.08.16-.12.24-.33.24-.63v-.34h.4s0,.12,0,.29c0,.13,0,.24,0,.32,0,.12-.03.21-.05.3-.05.19-.15.34-.31.45-.15.12-.32.17-.51.17h-2.64Z"/>
              <path class="k" d="M7.75,24.68c0,.42-.14.78-.41,1.09-.27.3-.61.46-1.01.46s-.74-.15-1.01-.46c-.28-.3-.42-.67-.42-1.09s.14-.79.42-1.1c.28-.31.62-.46,1.01-.46s.74.15,1.01.46c.27.31.41.67.41,1.1ZM5.31,24.68c0,.3.1.56.3.78.2.22.44.32.72.32.28,0,.52-.11.71-.33s.29-.47.29-.77-.1-.56-.29-.78c-.19-.22-.43-.33-.71-.33-.28,0-.52.11-.72.33-.2.22-.3.48-.3.78Z"/>
              <path class="k" d="M5.31,21.69c0,.24.08.43.24.58.16.15.35.23.59.23h1.58v.47h-2.77v-.47h.29c-.12-.15-.2-.29-.24-.4-.06-.14-.09-.29-.09-.46,0-.39.15-.71.44-.95l.21.4c-.16.16-.24.35-.24.59Z"/>
            </g>
            <g>
              <path class="k" d="M9.73,30.62h-.97v.26c0,.12.04.22.12.3.08.08.17.12.29.12s.21-.04.29-.12c.08-.08.11-.18.11-.3,0-.07-.02-.14-.05-.2h.18c.03.08.04.15.04.2,0,.17-.06.31-.17.43-.11.12-.25.18-.41.18-.09,0-.18-.02-.26-.07-.1-.05-.17-.13-.22-.22-.05-.09-.08-.2-.08-.31v-.46h1.13v.18Z"/>
              <path class="k" d="M8.91,29.29c-.11.11-.17.22-.17.35,0,.12.04.21.12.3.08.08.18.12.29.12s.21-.04.29-.12c.08-.08.12-.18.12-.3,0-.09-.02-.17-.07-.24-.05-.07-.11-.12-.19-.15l.12-.13c.21.11.31.28.31.49,0,.18-.05.33-.16.44-.11.12-.25.19-.42.19s-.3-.06-.42-.18-.17-.26-.17-.44c0-.21.08-.38.24-.49l.1.15Z"/>
              <path class="k" d="M9.73,28.16h-.97v.26c0,.12.04.22.12.3.08.08.17.12.29.12s.21-.04.29-.12c.08-.08.11-.18.11-.3,0-.07-.02-.14-.05-.2h.18c.03.08.04.15.04.2,0,.17-.06.31-.17.43-.11.12-.25.18-.41.18-.09,0-.18-.02-.26-.07-.1-.05-.17-.13-.22-.22-.05-.09-.08-.2-.08-.31v-.46h1.13v.18Z"/>
              <path class="k" d="M8.9,27.68c-.1-.05-.17-.13-.22-.22-.05-.09-.08-.2-.08-.31v-.28h-.3v-.18h1.43v.45c0,.17-.05.31-.16.43s-.24.18-.4.18c-.09,0-.18-.02-.26-.07ZM8.76,26.87v.26c0,.12.04.22.12.3.08.08.17.12.29.12s.21-.04.28-.12c.07-.08.11-.18.11-.3v-.26h-.79Z"/>
              <path class="k" d="M9.07,25.43c-.22.03-.33.18-.33.42,0,.12.04.23.12.32.08.09.18.13.29.13.11,0,.21-.04.29-.13.08-.08.12-.18.12-.3,0-.1-.02-.19-.05-.28-.04-.1-.1-.17-.18-.2l.12-.12c.09.05.16.13.21.24.05.1.07.21.07.34,0,.17-.06.32-.17.45s-.25.19-.41.19-.3-.06-.41-.19c-.11-.12-.17-.27-.17-.44,0-.19.04-.33.12-.44.1-.13.24-.19.44-.19.02,0,.05,0,.08,0v.89h-.14v-.69h0Z"/>
              <path class="k" d="M9.73,23.99v.18h-.64c-.09,0-.17.03-.24.09-.07.06-.1.14-.1.24s.03.18.1.24c.06.06.14.09.24.09h.64v.19h-1.13v-.19h.12c-.05-.06-.08-.12-.1-.16-.02-.06-.04-.12-.04-.19,0-.09.02-.17.06-.24.04-.07.09-.13.16-.18-.07-.05-.12-.12-.16-.19-.04-.08-.06-.16-.06-.24,0-.14.05-.26.15-.36s.21-.15.35-.15h.65v.19h-.64c-.09,0-.17.03-.24.09-.07.06-.1.14-.1.24s.03.18.1.24c.06.06.14.1.24.1h.65Z"/>
              <path class="k" d="M8.39,22.92s-.04,0-.06-.03c-.02-.02-.03-.04-.03-.06,0-.03,0-.05.03-.07.02-.02.04-.03.06-.03.03,0,.05,0,.06.03.02.02.03.04.03.07s0,.05-.03.06c-.02.02-.04.03-.06.03ZM9.73,22.74v.19h-1.15v-.19h1.15Z"/>
              <path class="k" d="M9.73,21.63h-.97v.26c0,.12.04.22.12.3.08.08.17.12.29.12s.21-.04.29-.12c.08-.08.11-.18.11-.3,0-.07-.02-.14-.05-.2h.18c.03.08.04.15.04.2,0,.17-.06.31-.17.43-.11.12-.25.18-.41.18-.09,0-.18-.02-.26-.07-.1-.05-.17-.13-.22-.22-.05-.09-.08-.2-.08-.31v-.46h1.13v.18Z"/>
            </g>
          </g>
        </g>
      </g>
      <g>
        <path class="m" d="M63.09,34.5h-10.22c-2.77,0-4.06-.63-4.06-3.91v-3.03c0-.7.29-1,1-1h1.77c.7,0,1,.29,1,1v2.07c0,1.07.22,1.29,1.33,1.29h8.12c1.11,0,1.33-.22,1.33-1.29v-5.35c0-1.07-.22-1.29-1.33-1.29h-9.19c-2.77,0-4.06-.63-4.06-3.91v-7.3c0-3.28,1.29-3.91,4.06-3.91h10.22c2.77,0,4.06.63,4.06,3.91v3.03c0,.7-.3,1-1,1h-1.81c-.7,0-1-.29-1-1v-2.03c0-1.07-.22-1.29-1.33-1.29h-8.12c-1.11,0-1.33.22-1.33,1.29v5.35c0,1.07.22,1.29,1.33,1.29h9.22c2.77,0,4.06.63,4.06,3.91v7.27c0,3.28-1.29,3.91-4.06,3.91Z"/>
        <path class="m" d="M88.29,33.5c0,.7-.29,1-1,1h-14.61c-.7,0-1-.29-1-1V8.85c0-.7.3-1,1-1h14.61c.7,0,1,.29,1,1v1.62c0,.7-.29,1-1,1h-11.81v7.9h9.41c.7,0,1,.29,1,1v1.59c0,.7-.3,1-1,1h-9.41v7.97h11.81c.7,0,1,.29,1,1v1.59Z"/>
        <path class="m" d="M116.04,33.5c0,.7-.3,1-1,1h-1.81c-.7,0-1-.29-1-1V12.8l-5.5,20.74c-.18.7-.52.96-1.22.96h-2.62c-.7,0-1.07-.26-1.25-.96l-5.79-20.81v20.77c0,.7-.29,1-1,1h-1.81c-.7,0-1-.29-1-1V8.85c0-.7.3-1,1-1h4.1c.7,0,1.07.26,1.25.96l5.83,20.18,5.5-20.18c.18-.7.55-.96,1.25-.96h4.1c.7,0,1,.29,1,1l-.04,24.65Z"/>
        <path class="m" d="M139.28,33.5c0,.7-.3,1-1,1h-1.77c-.7,0-1-.29-1-1v-8.56h-10.81v8.56c0,.7-.3,1-1,1h-1.81c-.7,0-1-.29-1-1V11.77c0-3.28,1.29-3.91,4.06-3.91h10.26c2.77,0,4.06.63,4.06,3.91v21.73ZM135.52,21.36v-8.6c0-1.07-.22-1.29-1.33-1.29h-8.15c-1.11,0-1.33.22-1.33,1.29v8.6h10.81Z"/>
        <path class="m" d="M162.71,33.5c0,.7-.29,1-1,1h-2.69c-.74,0-1.14-.26-1.48-.92l-9.63-19.11v19c0,.7-.29,1-1,1h-1.81c-.7,0-1-.29-1-1V8.82c0-.7.29-1,1-1h2.58c.74,0,1.14.26,1.48.92l9.74,19.33V8.85c0-.7.3-1,1-1h1.81c.7,0,1,.29,1,1v24.65Z"/>
        <path class="m" d="M185.92,33.5c0,.7-.3,1-1,1h-1.77c-.7,0-1-.29-1-1v-8.56h-10.81v8.56c0,.7-.29,1-1,1h-1.81c-.7,0-1-.29-1-1V11.77c0-3.28,1.29-3.91,4.06-3.91h10.26c2.77,0,4.06.63,4.06,3.91v21.73ZM182.16,21.36v-8.6c0-1.07-.22-1.29-1.33-1.29h-8.15c-1.11,0-1.33.22-1.33,1.29v8.6h10.81Z"/>
        <path class="m" d="M212.86,34.5h-13.95c-.7,0-1-.29-1-1V8.85c0-.7.3-1,1-1h13.95c2.77,0,4.06.63,4.06,3.91v18.82c0,3.28-1.29,3.91-4.06,3.91ZM213.15,29.63V12.77c0-1.07-.22-1.29-1.33-1.29h-10.11v19.44h10.11c1.18,0,1.33-.22,1.33-1.29Z"/>
        <path class="m" d="M240.09,33.5c0,.7-.3,1-1,1h-1.77c-.7,0-1-.29-1-1v-8.56h-10.81v8.56c0,.7-.3,1-1,1h-1.81c-.7,0-1-.29-1-1V11.77c0-3.28,1.29-3.91,4.06-3.91h10.26c2.77,0,4.06.63,4.06,3.91v21.73ZM236.32,21.36v-8.6c0-1.07-.22-1.29-1.33-1.29h-8.15c-1.11,0-1.33.22-1.33,1.29v8.6h10.81Z"/>
        <path class="m" d="M269.49,33.65c.3.52.11.85-.52.85h-1.96c-.74,0-1.14-.22-1.51-.85l-5.5-9.37h-4.13v9.22c0,.7-.29,1-1,1h-1.81c-.7,0-1-.29-1-1V8.85c0-.7.29-1,1-1h12.95c2.77,0,4.06.63,4.06,3.91v8.6c0,3.28-1.29,3.91-4.06,3.91h-2.07l5.53,9.37ZM266.36,19.41v-6.64c0-1.07-.22-1.29-1.33-1.29h-9.11v9.22h9.11c1.18,0,1.33-.22,1.33-1.29Z"/>
        <path class="m" d="M291,33.5c0,.7-.29,1-1,1h-14.61c-.7,0-1-.29-1-1V8.85c0-.7.29-1,1-1h14.61c.7,0,1,.29,1,1v1.62c0,.7-.29,1-1,1h-11.81v7.9h9.41c.7,0,1,.29,1,1v1.59c0,.7-.29,1-1,1h-9.41v7.97h11.81c.7,0,1,.29,1,1v1.59Z"/>
        <path class="m" d="M308.75,34.5h-10.22c-2.77,0-4.06-.63-4.06-3.91v-3.03c0-.7.3-1,1-1h1.77c.7,0,1,.29,1,1v2.07c0,1.07.22,1.29,1.33,1.29h8.12c1.11,0,1.33-.22,1.33-1.29v-5.35c0-1.07-.22-1.29-1.33-1.29h-9.19c-2.77,0-4.06-.63-4.06-3.91v-7.3c0-3.28,1.29-3.91,4.06-3.91h10.22c2.77,0,4.06.63,4.06,3.91v3.03c0,.7-.29,1-1,1h-1.81c-.7,0-1-.29-1-1v-2.03c0-1.07-.22-1.29-1.33-1.29h-8.12c-1.11,0-1.33.22-1.33,1.29v5.35c0,1.07.22,1.29,1.33,1.29h9.22c2.77,0,4.06.63,4.06,3.91v7.27c0,3.28-1.29,3.91-4.06,3.91Z"/>
        <path class="m" d="M321.15,33.5c0,.7-.29,1-1,1h-1.81c-.7,0-1-.29-1-1V8.85c0-.7.29-1,1-1h1.81c.7,0,1,.29,1,1v24.65Z"/>
        <path class="m" d="M340,34.5h-10.22c-2.77,0-4.06-.63-4.06-3.91v-3.03c0-.7.3-1,1-1h1.77c.7,0,1,.29,1,1v2.07c0,1.07.22,1.29,1.33,1.29h8.12c1.11,0,1.33-.22,1.33-1.29v-5.35c0-1.07-.22-1.29-1.33-1.29h-9.19c-2.77,0-4.06-.63-4.06-3.91v-7.3c0-3.28,1.29-3.91,4.06-3.91h10.22c2.77,0,4.06.63,4.06,3.91v3.03c0,.7-.29,1-1,1h-1.81c-.7,0-1-.29-1-1v-2.03c0-1.07-.22-1.29-1.33-1.29h-8.12c-1.11,0-1.33.22-1.33,1.29v5.35c0,1.07.22,1.29,1.33,1.29h9.22c2.77,0,4.06.63,4.06,3.91v7.27c0,3.28-1.29,3.91-4.06,3.91Z"/>
        <path class="m" d="M357.6,33.5c0,.7-.29,1-1,1h-1.81c-.7,0-1-.29-1-1V11.47h-6.24c-.7,0-1-.3-1-1v-1.62c0-.7.29-1,1-1h16.23c.7,0,1,.29,1,1v1.62c0,.7-.3,1-1,1h-6.2v22.03Z"/>
        <path class="m" d="M384.28,33.5c0,.7-.29,1-1,1h-14.61c-.7,0-1-.29-1-1V8.85c0-.7.29-1,1-1h14.61c.7,0,1,.29,1,1v1.62c0,.7-.29,1-1,1h-11.81v7.9h9.41c.7,0,1,.29,1,1v1.59c0,.7-.29,1-1,1h-9.41v7.97h11.81c.7,0,1,.29,1,1v1.59ZM380.78,5.13c-.41.55-.81.63-1.4.22l-2.8-1.96-2.8,1.96c-.59.41-1,.33-1.4-.22l-.41-.55c-.41-.55-.33-.96.22-1.4l3.95-3.03c.15-.11.3-.15.48-.15h.07c.18,0,.33.04.48.15l3.84,3.03c.55.44.63.85.22,1.4l-.44.55Z"/>
        <path class="m" d="M406.6,33.5c0,.7-.3,1-1,1h-2.69c-.74,0-1.14-.26-1.48-.92l-9.63-19.11v19c0,.7-.29,1-1,1h-1.81c-.7,0-1-.29-1-1V8.82c0-.7.29-1,1-1h2.58c.74,0,1.14.26,1.48.92l9.74,19.33V8.85c0-.7.29-1,1-1h1.81c.7,0,1,.29,1,1v24.65Z"/>
        <path class="m" d="M425.72,34.5h-10.26c-2.77,0-4.06-.63-4.06-3.91V11.77c0-3.28,1.29-3.91,4.06-3.91h10.26c2.77,0,4.06.63,4.06,3.91v3.03c0,.7-.29,1-1,1h-1.77c-.7,0-1-.29-1-1v-2.03c0-1.07-.22-1.29-1.33-1.29h-8.15c-1.11,0-1.33.22-1.33,1.29v16.86c0,1.07.22,1.29,1.33,1.29h8.15c1.18,0,1.33-.22,1.33-1.29v-2.07c0-.7.3-1,1-1h1.77c.7,0,1,.29,1,1v3.03c0,3.28-1.29,3.91-4.06,3.91Z"/>
        <path class="m" d="M437.78,33.5c0,.7-.29,1-1,1h-1.81c-.7,0-1-.29-1-1V8.85c0-.7.29-1,1-1h1.81c.7,0,1,.29,1,1v24.65Z"/>
        <path class="m" d="M460.99,33.5c0,.7-.29,1-1,1h-1.77c-.7,0-1-.29-1-1v-8.56h-10.81v8.56c0,.7-.29,1-1,1h-1.81c-.7,0-1-.29-1-1V11.77c0-3.28,1.29-3.91,4.06-3.91h10.26c2.77,0,4.06.63,4.06,3.91v21.73ZM457.23,21.36v-8.6c0-1.07-.22-1.29-1.33-1.29h-8.15c-1.11,0-1.33.22-1.33,1.29v8.6h10.81Z"/>
        <path class="m" d="M486.93,33.5c0,.7-.29,1-1,1h-12.91c-.7,0-1-.29-1-1v-1.59c0-.7.3-1,1-1h4.46V11.51h-4.46c-.7,0-1-.29-1-1v-1.62c0-.7.3-1,1-1h7.27c.7,0,1,.29,1,1v22.03h4.65c.7,0,1,.29,1,1v1.59Z"/>
      </g>
    </g>
  </g>
</svg>