<?xml version="1.0" standalone="no"?>
<!DOCTYPE svg PUBLIC "-//W3C//DTD SVG 20010904//EN"
 "http://www.w3.org/TR/2001/REC-SVG-20010904/DTD/svg10.dtd">
<svg version="1.0" xmlns="http://www.w3.org/2000/svg"
 width="1280.000000pt" height="1167.000000pt" viewBox="0 0 1280.000000 1167.000000"
 preserveAspectRatio="xMidYMid meet">
<metadata>
Created by potrace 1.15, written by Peter Selinger 2001-2017
</metadata>
<g transform="translate(0.000000,1167.000000) scale(0.100000,-0.100000)"
fill="#000000" stroke="none">
<path d="M7895 11664 c-272 -44 -521 -199 -660 -409 -143 -217 -192 -429 -150
-646 88 -461 468 -779 930 -779 119 0 199 14 318 54 137 47 243 113 351 221
115 114 183 226 231 380 61 195 64 277 19 465 -82 337 -346 600 -694 691 -74
19 -282 33 -345 23z"/>
<path d="M6410 10097 c-127 -45 -174 -70 -231 -124 -66 -61 -89 -125 -89 -241
1 -165 43 -281 189 -517 194 -316 550 -701 862 -932 235 -174 639 -349 1044
-453 542 -138 887 -171 1595 -153 l305 8 3 24 c2 13 0 27 -5 31 -8 8 -114 22
-413 55 -266 30 -360 53 -595 145 -282 112 -520 228 -863 423 -306 174 -565
402 -768 677 -65 88 -105 155 -189 315 -161 307 -267 483 -343 567 -54 59
-152 126 -244 164 -117 50 -145 51 -258 11z"/>
<path d="M4470 8039 c-191 -118 -290 -273 -325 -508 -31 -202 -15 -346 87
-801 67 -301 65 -288 76 -345 17 -79 91 -412 112 -502 25 -105 52 -219 85
-358 33 -141 79 -323 116 -452 16 -56 59 -218 95 -360 84 -332 146 -573 178
-695 50 -190 78 -294 107 -408 48 -183 205 -730 260 -905 165 -524 228 -693
270 -715 16 -9 18 -2 24 66 8 82 0 432 -15 684 -5 85 -14 247 -20 360 -32 629
-49 945 -60 1135 -26 420 -31 509 -40 650 -33 481 -78 1050 -110 1370 -10 110
-34 363 -51 550 -39 441 -104 720 -220 946 -57 111 -130 198 -207 248 -60 38
-166 78 -228 86 -46 6 -54 3 -134 -46z"/>
<path d="M5447 7933 c-94 -108 -146 -215 -154 -315 -11 -143 30 -243 146 -359
185 -184 532 -358 1085 -541 116 -38 214 -72 217 -74 13 -8 -70 -196 -167
-379 -106 -201 -218 -427 -429 -867 -79 -163 -188 -382 -243 -485 -149 -281
-181 -362 -182 -460 0 -49 11 -53 63 -27 59 31 95 65 314 297 120 127 382 398
583 602 369 374 508 526 613 673 219 305 321 624 273 852 -19 90 -86 233 -149
316 -74 97 -191 202 -352 314 -423 295 -748 456 -1020 505 -57 10 -171 18
-310 21 l-220 5 -68 -78z"/>
<path d="M9757 6919 c-384 -55 -724 -201 -1062 -454 -759 -568 -1216 -1548
-1156 -2475 32 -487 137 -808 383 -1171 251 -370 646 -636 1083 -729 126 -27
431 -38 583 -21 420 46 834 225 1197 518 120 97 355 335 446 453 506 653 727
1475 598 2228 -42 247 -99 431 -194 627 -106 218 -228 388 -396 550 -112 108
-186 166 -305 238 -130 79 -175 100 -314 145 -333 108 -575 133 -863 91z m565
-274 c300 -67 492 -163 703 -349 126 -112 290 -327 369 -485 125 -250 201
-568 213 -891 19 -536 -142 -1083 -457 -1555 -97 -144 -178 -244 -309 -379
-378 -387 -812 -610 -1296 -666 -183 -20 -426 -2 -587 44 -367 107 -693 362
-889 697 -155 265 -226 485 -264 806 -123 1050 489 2177 1425 2627 365 175
749 228 1092 151z"/>
<path d="M2774 5589 c-390 -27 -816 -194 -1166 -457 -193 -145 -410 -357 -564
-552 -274 -346 -472 -798 -573 -1310 -28 -144 -43 -455 -30 -646 27 -415 115
-710 310 -1041 154 -260 374 -473 672 -651 237 -141 526 -214 852 -213 348 0
635 70 957 233 249 125 461 280 668 488 652 652 964 1578 834 2475 -54 370
-215 746 -441 1026 -82 101 -240 250 -342 323 -337 241 -748 354 -1177 325z
m416 -274 c708 -126 1218 -732 1305 -1553 91 -859 -294 -1777 -976 -2322 -137
-109 -253 -184 -416 -267 -387 -196 -806 -251 -1198 -158 -199 47 -339 115
-530 257 -227 168 -375 354 -507 634 -170 363 -226 911 -137 1353 83 419 255
818 482 1120 346 460 831 799 1307 913 208 49 470 58 670 23z"/>
<path d="M12650 3599 c-175 -85 -313 -175 -399 -260 -36 -35 -111 -127 -168
-204 -172 -233 -214 -284 -297 -362 -84 -79 -131 -106 -344 -199 -168 -73
-155 -65 -632 -392 -228 -157 -437 -295 -465 -308 -141 -66 -308 -84 -765 -84
-558 0 -718 -21 -990 -130 -104 -41 -184 -81 -475 -239 -312 -169 -491 -215
-830 -214 -198 1 -254 6 -565 53 -74 11 -164 25 -200 30 -188 29 -322 40 -483
40 -198 0 -265 -8 -443 -51 -229 -55 -405 -141 -754 -366 -437 -283 -597 -370
-793 -433 -227 -73 -387 -86 -623 -51 -71 11 -219 29 -329 41 -110 11 -274 29
-365 40 -191 22 -368 40 -700 70 -499 45 -939 40 -1245 -15 -212 -37 -466
-114 -677 -203 l-108 -46 0 -156 0 -157 162 81 c286 143 561 216 938 251 252
24 502 17 930 -25 58 -5 152 -15 210 -20 465 -44 751 -75 1014 -111 83 -11
192 -25 241 -31 98 -11 317 -5 387 11 176 41 234 57 318 88 179 67 277 121
675 373 154 98 332 205 395 238 315 167 579 227 885 202 124 -10 183 -17 395
-50 415 -65 529 -74 820 -67 193 5 240 9 332 31 179 42 283 83 518 204 124 64
279 143 345 175 295 145 491 176 1100 177 379 0 488 9 649 50 162 42 193 60
561 319 479 336 536 371 734 450 261 105 415 241 665 592 53 75 122 162 153
193 62 63 177 142 291 201 41 21 76 44 78 50 3 6 3 73 2 148 l-3 137 -145 -71z"/>
</g>
</svg>
